<?xml version="1.0" standalone="no"?>
<!DOCTYPE svg PUBLIC "-//W3C//DTD SVG 1.1//EN" "http://www.w3.org/Graphics/SVG/1.1/DTD/svg11.dtd" >
<svg>
<metadata>
Created by FontForge 20090914 at Tue Mar 23 11:20:46 2021
 By www-data
Copyright (c) ParaGraph Intl., 1990-1995. All Rights Reserved. ITC Franklin Gothic is a registered trade mark of International Typeface Corporation.
</metadata>
<defs>
<font id="FranklinGothicDemiC" horiz-adv-x="1249" >
  <font-face 
    font-family="FranklinGothDemiCTT"
    font-weight="400"
    font-stretch="normal"
    units-per-em="2048"
    panose-1="0 0 0 0 0 0 0 0 0 0"
    ascent="1638"
    descent="-410"
    x-height="1044"
    cap-height="1404"
    bbox="-141 -371.999 2093 1861.01"
    underline-thickness="81"
    underline-position="-123"
    unicode-range="U+0020-U+F002"
  />
<missing-glyph horiz-adv-x="900" 
d="M100 0v1024h800v-1024h-800zM110 10h780v1004h-780v-1004z" />
    <glyph glyph-name=".notdef" horiz-adv-x="900" 
d="M100 0v1024h800v-1024h-800zM110 10h780v1004h-780v-1004z" />
    <glyph glyph-name="space" unicode=" " horiz-adv-x="477" 
 />
    <glyph glyph-name="space" unicode="&#x45d;" horiz-adv-x="477" 
 />
    <glyph glyph-name="space" unicode="&#x40d;" horiz-adv-x="477" 
 />
    <glyph glyph-name="space" unicode="&#xa0;" horiz-adv-x="477" 
 />
    <glyph glyph-name="exclam" unicode="!" horiz-adv-x="618" 
d="M471 313v-313h-324v313h324zM503 1404l-98 -981h-193l-98 981h389z" />
    <glyph glyph-name="quotedbl" unicode="&#x22;" horiz-adv-x="753" 
d="M282 847h-158l-43 557h244zM628 847h-157l-43 557h243z" />
    <glyph glyph-name="numbersign" unicode="#" horiz-adv-x="1271" 
d="M808 0h-196l82 372h-248l-82 -372h-197l82 372h-215v185h252l60 278h-222v184h258l82 398h197l-82 -398h248l82 398h196l-81 -398h212v-184h-249l-60 -278h223v-185h-260zM731 557l59 278h-248l-59 -278h248z" />
    <glyph glyph-name="dollar" unicode="$" horiz-adv-x="1282" 
d="M540 1548l176.003 -0.00292969v-174c90.667 -9.33301 172.167 -40 244.5 -92s126.166 -126.667 161.499 -224l-260 -78c-4.66699 22 -12.5 41.667 -23.5 59s-26.5 34 -46.5 50c-26 21.333 -52.833 36.5 -80.5 45.5s-62.834 13.5 -105.501 13.5
c-61.333 0 -107.5 -12 -138.5 -36s-46.5 -56.333 -46.5 -97c0 -32 12.833 -58.667 38.5 -80s69.5 -39 131.5 -53l162 -37c85.333 -19.333 145 -36.5 179 -51.5s65.333 -33.833 94 -56.5c43.333 -35.333 76.666 -76.833 99.999 -124.5s35 -100.5 35 -158.5
c0 -59.333 -12.5 -115.666 -37.5 -168.999s-63.833 -100.666 -116.5 -141.999c-38.667 -30.667 -82.834 -55.167 -132.501 -73.5s-102.5 -28.833 -158.5 -31.5v-177h-176v177c-61.333 5.33301 -121.166 19 -179.499 41s-108.5 50 -150.5 84
c-38.667 32 -71.667 69.5 -99 112.5s-47.333 89.5 -60 139.5l280 51c12 -34.667 29.167 -66 51.5 -94s47.5 -50.333 75.5 -67c22.667 -13.333 47.667 -23.5 75 -30.5s60.333 -10.5 99 -10.5c70 0 123 12.667 159 38s54 59.666 54 102.999c0 38.667 -15.5 71.5 -46.5 98.5
s-74.833 46.833 -131.5 59.5l-174 39c-40 8.66699 -82.333 22.334 -127 41.001s-81.334 39 -110.001 61c-43.333 32 -77.166 70.833 -101.499 116.5s-36.5 98.167 -36.5 157.5c0 61.333 13 118.833 39 172.5s65 98.834 117 135.501c34 24 74.5 43.667 121.5 59
s95.167 25 144.5 29v174z" />
    <glyph glyph-name="percent" unicode="%" horiz-adv-x="1474" 
d="M61 1048c0 61.333 7.66699 115.668 23 163.001s39.666 88.666 72.999 123.999c26 26.667 54.5 46.334 85.5 59.001s66.167 19 105.5 19c38.667 0 73.5 -6.33301 104.5 -19s59.5 -32.334 85.5 -59.001c34 -35.333 58.5 -76.666 73.5 -123.999s22.5 -101.666 22.5 -162.999
c0 -110 -25.667 -198.167 -77 -264.5s-121 -99.5 -209 -99.5c-39.333 0 -74.5 6.16699 -105.5 18.5s-59.5 31.833 -85.5 58.5c-33.333 35.333 -57.666 76.666 -72.999 123.999s-23 101.666 -23 162.999zM239 1048c0 -84 9.33301 -143.167 28 -177.5s45.667 -51.5 81 -51.5
c16 0 32 5.5 48 16.5s28.667 26.5 38 46.5c6.66699 15.333 12 37.833 16 67.5s6 62.5 6 98.5s-2 68.833 -6 98.5s-9.33301 52.167 -16 67.5c-9.33301 20.667 -22 36.334 -38 47.001s-32 16 -48 16c-16.667 0 -33 -5.33301 -49 -16s-28.333 -26.334 -37 -47.001
c-7.33301 -15.333 -13 -37.833 -17 -67.5s-6 -62.5 -6 -98.5zM1253 1404l-854 -1404h-176l854 1404h176zM839 356.002c0 61.333 7.66699 115.665 23 162.998s39.666 88.666 72.999 123.999c26 26.667 54.5 46.167 85.5 58.5s66.167 18.5 105.5 18.5
s74.333 -6.16699 105 -18.5s59 -31.833 85 -58.5c34 -35.333 58.667 -76.666 74 -123.999s23 -101.666 23 -162.999c0 -110 -25.667 -198.167 -77 -264.5s-121.333 -99.5 -210 -99.5c-39.333 0 -74.5 6.16699 -105.5 18.5s-59.5 31.833 -85.5 58.5
c-33.333 34.667 -57.666 75.834 -72.999 123.501s-23 102.167 -23 163.5zM1017 356.001c0 -84 9.33398 -143.333 28.001 -178s45.667 -52 81 -52c16.667 0 32.834 5.5 48.501 16.5s28.167 26.833 37.5 47.5c6.66699 15.333 12 37.833 16 67.5s6 62.5 6 98.5
s-2 68.833 -6 98.5s-9.33301 52.167 -16 67.5c-9.33301 20 -21.833 35.5 -37.5 46.5s-31.834 16.5 -48.501 16.5s-32.834 -5.5 -48.501 -16.5s-28.167 -26.5 -37.5 -46.5c-6.66699 -15.333 -12.167 -37.833 -16.5 -67.5s-6.5 -62.5 -6.5 -98.5z" />
    <glyph glyph-name="ampersand" unicode="&#x26;" horiz-adv-x="1470" 
d="M796 747l203 -264c38 42.667 68.5 90.334 91.5 143.001s40.833 110.667 53.5 174l279 -39c-21.333 -94.667 -51.833 -180.834 -91.5 -258.501s-89.167 -146.5 -148.5 -206.5c20.667 -18.667 42.334 -32.5 65.001 -41.5s49 -13.5 79 -13.5c22 0 41.333 1 58 3
s32.667 5 48 9v-241c-28 -8 -54.833 -13.667 -80.5 -17s-52.834 -5 -81.501 -5c-50.667 0 -97.834 7.33301 -141.501 22s-85.834 39.334 -126.501 74.001l-25 20c-51.333 -44 -109.333 -76 -174 -96s-137.667 -30 -219 -30c-78 0 -149 10.333 -213 31
s-121.333 52.334 -172 95.001c-48.667 41.333 -84 86.666 -106 135.999s-33 103 -33 161c0 61.333 12.167 117.5 36.5 168.5s61.833 96.5 112.5 136.5c25.333 20 53.833 38.333 85.5 55s64.834 30.334 99.501 41.001c-46 60 -78.667 112.167 -98 156.5
s-29 89.166 -29 134.499c0 53.333 11.5 101.833 34.5 145.5s55.833 80.5 98.5 110.5c36.667 26.667 77.5 45.667 122.5 57s98.5 17 160.5 17c70.667 0 129.334 -7.66699 176.001 -23s89.667 -39.666 129 -72.999c37.333 -32.667 64.333 -68 81 -106s25 -79.333 25 -124
c0 -50 -9.83301 -97 -29.5 -141s-50.167 -83 -91.5 -117c-22 -18.667 -49 -36.334 -81 -53.001s-64.333 -30.334 -97 -41.001zM811 294l-271 344.001c-50 -18 -89.167 -45.167 -117.5 -81.5s-42.5 -78.5 -42.5 -126.5c0 -26 5.5 -52.833 16.5 -80.5
s26.167 -50.834 45.5 -69.501c19.333 -19.333 43.333 -34 72 -44s61.334 -15 98.001 -15c38.667 0 74.667 5.83301 108 17.5s63.666 30.167 90.999 55.5zM673 909.001l41 23.999c40 24 68.833 48.333 86.5 73s26.5 51.667 26.5 81c0 38.667 -13.5 69.5 -40.5 92.5
s-59.833 34.5 -98.5 34.5c-34.667 0 -64.167 -10.167 -88.5 -30.5s-36.5 -48.5 -36.5 -84.5c0 -24.667 6.33301 -49.667 19 -75s30.667 -50.666 54 -75.999z" />
    <glyph glyph-name="quotesingle" unicode="'" horiz-adv-x="407" 
d="M282 847h-158l-43 557h244z" />
    <glyph glyph-name="parenleft" unicode="(" horiz-adv-x="665" 
d="M385 1404l206 -0.00292969c-82.667 -124 -147 -259.167 -193 -405.5s-69 -299.833 -69 -460.5c0 -157.333 22.833 -309.166 68.5 -455.499s110.834 -286.166 195.501 -419.499h-208c-46 60 -86.5 121.333 -121.5 184s-65.5 126.334 -91.5 191.001
c-34 84 -60 166.5 -78 247.5s-27 162.5 -27 244.5c0 100 11.5 201.333 34.5 304s57.167 200.667 102.5 294c25.333 52 53.166 101 83.499 147s62.833 89 97.5 129z" />
    <glyph glyph-name="parenright" unicode=")" horiz-adv-x="665" 
d="M73 1404l207 0.00292969c34.667 -40 67 -83 97 -129s57.667 -95 83 -147c45.333 -93.333 79.666 -191.333 102.999 -294s35 -204 35 -304c0 -82 -9 -163.5 -27 -244.5s-44 -163.5 -78 -247.5c-26.667 -64.667 -57.5 -128.334 -92.5 -191.001s-75.167 -124 -120.5 -184
h-209c84.667 133.333 149.834 273.166 195.501 419.499s68.5 298.166 68.5 455.499c0 160.667 -22.833 314.167 -68.5 460.5s-110.167 281.5 -193.5 405.5z" />
    <glyph glyph-name="asterisk" unicode="*" horiz-adv-x="1101" 
d="M466 1433h168l-12 -315l299 106l51 -160l-305 -86l195 -249l-135 -99l-177 262l-176 -262l-135 99l195 249l-305 86l51 160l299 -106z" />
    <glyph glyph-name="plus" unicode="+" horiz-adv-x="1314" 
d="M538 1116h238v-408h407v-237h-407v-408h-238v408h-407v237h407v408z" />
    <glyph glyph-name="comma" unicode="," horiz-adv-x="571" 
d="M448 317v-291l-197 -347h-133l146 321h-142v317h326z" />
    <glyph glyph-name="hyphen" unicode="-" horiz-adv-x="581" 
d="M528 671v-246h-488v246h488z" />
    <glyph glyph-name="hyphen" unicode="&#xad;" horiz-adv-x="581" 
d="M528 671v-246h-488v246h488z" />
    <glyph glyph-name="period" unicode="." horiz-adv-x="571" 
d="M122 317h326v-317h-326v317z" />
    <glyph glyph-name="slash" unicode="/" horiz-adv-x="1067" 
d="M1017 1404l-942 -1754h-216l941 1754h217z" />
    <glyph glyph-name="zero" unicode="0" 
d="M79 696c0 100.667 10.3311 196 30.998 286s52 165.333 94 226c48 68.667 108.833 122 182.5 160s152.834 57 237.501 57s163.834 -19 237.501 -57s134.5 -91.333 182.5 -160c42 -60.667 73.333 -136 94 -226s31 -185.333 31 -286
c0 -220.667 -46.5 -395.167 -139.5 -523.5s-228.167 -192.5 -405.5 -192.5s-312.5 64.167 -405.5 192.5s-139.5 302.833 -139.5 523.5zM386.998 696c0 -97.333 7.33398 -179.666 22.001 -246.999s36 -119.666 64 -156.999c19.333 -25.333 41.666 -44.166 66.999 -56.499
s53.333 -18.5 84 -18.5c31.333 0 59.5 6.16699 84.5 18.5s47.5 31.166 67.5 56.499c28 37.333 49.333 89.666 64 156.999s22 149.666 22 246.999c0 109.333 -7 199.333 -21 270s-36.333 123.334 -67 158.001c-18.667 20.667 -40.167 36.334 -64.5 47.001
s-52.833 16 -85.5 16c-32 0 -60.333 -5.33301 -85 -16s-46 -26.334 -64 -47.001c-30.667 -34.667 -53 -87.334 -67 -158.001s-21 -160.667 -21 -270z" />
    <glyph glyph-name="one" unicode="1" 
d="M802 1404l-0.000976562 -1142h355v-262h-1041v262h375v790c-82 -54 -146.667 -93.667 -194 -119s-96 -46.333 -146 -63v260c40 13.333 79.833 29.166 119.5 47.499s77.834 38.833 114.501 61.5c40.667 24.667 75.167 50 103.5 76s54.5 55.667 78.5 89h235z" />
    <glyph glyph-name="two" unicode="2" 
d="M372 905l-277.997 60.998c6.66699 45.333 18.667 90.333 36 135s39.333 85 66 121c47.333 63.333 107.833 113 181.5 149s159.167 54 256.5 54c75.333 0 142.166 -9.66699 200.499 -29s109.833 -47.333 154.5 -84c49.333 -40 86.833 -87.667 112.5 -143
s38.5 -116.666 38.5 -183.999c0 -80.667 -21.333 -157.167 -64 -229.5s-99 -135.166 -169 -188.499l-400 -305h637l-10 -262h-1040v251l516 396c64.667 49.333 116 102 154 158s57 112.333 57 169c0 28.667 -5 56 -15 82s-25 48.667 -45 68c-18 17.333 -40 30.833 -66 40.5
s-53.667 14.5 -83 14.5c-42 0 -79.833 -10 -113.5 -30s-60.834 -47.333 -81.501 -82c-12.667 -22 -22.834 -47.5 -30.501 -76.5s-12.5 -57.5 -14.5 -85.5z" />
    <glyph glyph-name="three" unicode="3" 
d="M370 1001l-267.993 50.9971c36.667 123.333 103.667 216.333 201 279s209 94 335 94c78 0 148.5 -11 211.5 -33s115.5 -52 157.5 -90c38 -34 67.667 -73.833 89 -119.5s32 -93.167 32 -142.5c0 -72.667 -21.667 -136.667 -65 -192s-100.333 -93 -171 -113
c85.333 -16.667 153.833 -54.5 205.5 -113.5s77.5 -133.167 77.5 -222.5c0 -60 -12.167 -116 -36.5 -168s-60.5 -97 -108.5 -135c-46.667 -36.667 -106.834 -65.167 -180.501 -85.5s-148.834 -30.5 -225.501 -30.5c-152 0 -277.167 36.833 -375.5 110.5
s-163.5 171.834 -195.5 294.501l284 49c16 -62.667 47.833 -113.167 95.5 -151.5s106.834 -57.5 177.501 -57.5c30 0 62.667 5 98 15s63.333 23.333 84 40c19.333 15.333 34.833 35.5 46.5 60.5s17.5 51.167 17.5 78.5c0 30 -7.16699 58.167 -21.5 84.5
s-32.5 47.5 -54.5 63.5c-20.667 14.667 -48.334 25.834 -83.001 33.501s-75.334 11.5 -122.001 11.5h-150v221h132c50.667 0 90.167 3.5 118.5 10.5s52.166 17.167 71.499 30.5c20.667 14.667 37.167 33.5 49.5 56.5s18.5 47.833 18.5 74.5
c0 24.667 -5.33301 47.834 -16 69.501s-25.334 40.167 -44.001 55.5c-19.333 16.667 -41.833 29 -67.5 37s-52.834 12 -81.501 12c-59.333 0 -109.333 -16.667 -150 -50s-69.334 -76 -86.001 -128z" />
    <glyph glyph-name="four" unicode="4" 
d="M985 1404v-849h211v-238h-211v-317h-312v317h-622v227l567 860h367zM673 555v561l-366 -561h366z" />
    <glyph glyph-name="five" unicode="5" 
d="M1091 1404l-28.9961 -257.998h-628l-23 -307c38 35.333 80.333 62 127 80s98.667 27 156 27c63.333 0 122.166 -9.33301 176.499 -28s102.5 -47 144.5 -85c47.333 -42 84.833 -93 112.5 -153s41.5 -127 41.5 -201c0 -62.667 -11 -123.167 -33 -181.5
s-55.333 -110.5 -100 -156.5c-50 -51.333 -111 -91 -183 -119s-151 -42 -237 -42c-85.333 0 -163.333 14 -234 42s-132 67.667 -184 119c-30.667 30.667 -56.667 64.667 -78 102s-37 78.333 -47 123l279 47c5.33301 -20.667 12.833 -39.834 22.5 -57.501
s21.167 -33.834 34.5 -48.501c25.333 -28 54.666 -48.667 87.999 -62s70.333 -20 111 -20c39.333 0 73.666 5.66699 102.999 17s55 28.666 77 51.999c22.667 24 39.667 50.667 51 80s17 59.333 17 90c0 34.667 -6.33301 66.834 -19 96.501s-31 55.5 -55 77.5
c-21.333 20 -45.333 35.333 -72 46s-57.334 16 -92.001 16c-48 0 -91.667 -10.5 -131 -31.5s-72 -50.833 -98 -89.5l-250 39l55 786h897z" />
    <glyph glyph-name="six" unicode="6" 
d="M1132 1050l-274.001 -43.001c-12 54 -35.667 97.5 -71 130.5s-80 49.5 -134 49.5c-87.333 0 -154 -43.833 -200 -131.5s-67.333 -201.5 -64 -341.5c36.667 62.667 84.334 110.167 143.001 142.5s125 48.5 199 48.5c139.333 0 249.166 -43.667 329.499 -131
s120.5 -192 120.5 -314c0 -68 -14.5 -132.667 -43.5 -194s-69.833 -114.666 -122.5 -159.999c-46 -39.333 -100.167 -70.166 -162.5 -92.499s-130.166 -33.5 -203.499 -33.5c-101.333 0 -190 19.5 -266 58.5s-139 95.5 -189 169.5c-40 60 -70.833 128.5 -92.5 205.5
s-32.5 164.167 -32.5 261.5c0 121.333 15.5 229 46.5 323s76.833 176.333 137.5 247c53.333 61.333 110.666 106.666 171.999 135.999s135.333 44 222 44c133.333 0 241.833 -34 325.5 -102s136.834 -159 159.501 -273zM637.999 216.999
c32.667 0 62.3291 5.33301 88.9961 16s50.334 26.334 71.001 47.001c20.667 20 36.5 42.833 47.5 68.5s16.5 55.5 16.5 89.5c0 30 -5.16699 58.667 -15.5 86s-27.166 53.333 -50.499 78c-20.667 22 -43.167 38.333 -67.5 49s-51.5 16 -81.5 16s-59.667 -5.5 -89 -16.5
s-55.666 -27.833 -78.999 -50.5c-24 -23.333 -41.667 -49.166 -53 -77.499s-17 -58.5 -17 -90.5c0 -29.333 5.33301 -56.333 16 -81s25 -46.334 43 -65.001c20.667 -20.667 46.334 -37.334 77.001 -50.001s61.667 -19 93 -19z" />
    <glyph glyph-name="seven" unicode="7" 
d="M1130 1404v-199.999c-92 -117.333 -167 -233.5 -225 -348.5s-106 -245.5 -144 -391.5c-20.667 -80 -34.667 -148.167 -42 -204.5s-11 -115.833 -11 -178.5v-81h-350c8.66699 143.333 35.667 290.666 81 441.999s106.333 294 183 428
c26.667 46.667 57.167 93.5 91.5 140.5s70.833 92.167 109.5 135.5h-694l24 258h977z" />
    <glyph glyph-name="eight" unicode="8" 
d="M329 702c-67.333 34 -119.332 79.001 -155.999 135.001s-55 114.667 -55 176c0 56.667 14.667 113.667 44 171s68 104.333 116 141c44 33.333 96.333 58.333 157 75s125 25 193 25c65.333 0 127 -7.33301 185 -22s109.667 -36 155 -64
c55.333 -34 96.833 -74.667 124.5 -122s41.5 -99 41.5 -155c0 -64 -18.667 -123.333 -56 -178s-91 -96.334 -161 -125.001c83.333 -34 149.166 -81.833 197.499 -143.5s72.5 -132.5 72.5 -212.5c0 -60.667 -14 -119.167 -42 -175.5s-67 -102.833 -117 -139.5
c-48.667 -36 -109.667 -63 -183 -81s-149 -27 -227 -27c-85.333 0 -163.5 10.667 -234.5 32s-132.167 52 -183.5 92c-46 36 -80.333 75.667 -103 119s-34 90.333 -34 141c0 76 23.833 143.833 71.5 203.5s112.5 104.5 194.5 134.5zM673.001 847.001
c60 22 104.668 47.833 134.001 77.5s44 64.167 44 103.5c0 52 -21.167 94.667 -63.5 128s-99.5 50 -171.5 50c-62.667 0 -111.834 -14.5 -147.501 -43.5s-53.5 -64.5 -53.5 -106.5c0 -46 24 -87.5 72 -124.5s110 -65.167 186 -84.5zM555.002 591.001
c-59.333 -17.333 -107.667 -44.168 -145 -80.501s-56 -76.833 -56 -121.5c0 -54 23 -99.333 69 -136s113 -55 201 -55c78.667 0 140 14.833 184 44.5s66 68.834 66 117.501c0 45.333 -23.167 86 -69.5 122s-129.5 72.333 -249.5 109z" />
    <glyph glyph-name="nine" unicode="9" 
d="M118 354l275.002 43c11.333 -54 34.666 -97.5 69.999 -130.5s80.333 -49.5 135 -49.5c87.333 0 154 43.833 200 131.5s67.333 201.5 64 341.5c-37.333 -62.667 -85.166 -110.167 -143.499 -142.5s-124.5 -48.5 -198.5 -48.5c-139.333 0 -249.333 43.667 -330 131
s-121 192 -121 314c0 67.333 14.5 131.833 43.5 193.5s69.833 115.167 122.5 160.5c46 39.333 100.167 70.333 162.5 93s130.5 34 204.5 34c100.667 0 189.167 -19.667 265.5 -59s139.166 -96 188.499 -170c40 -60 70.833 -128.5 92.5 -205.5s32.5 -164.167 32.5 -261.5
c0 -121.333 -15.5 -229 -46.5 -323s-76.833 -176.333 -137.5 -247c-53.333 -61.333 -110.5 -106.5 -171.5 -135.5s-134.833 -43.5 -221.5 -43.5c-134 0 -242.833 33.833 -326.5 101.5s-136.834 158.5 -159.501 272.5zM612.002 1187c-32 0 -61.499 -5.5 -88.499 -16.5
s-50.833 -26.5 -71.5 -46.5c-20 -20 -35.5 -42.833 -46.5 -68.5s-16.5 -55.5 -16.5 -89.5c0 -30.667 5 -59.5 15 -86.5s26.667 -52.833 50 -77.5c21.333 -22 44 -38.333 68 -49s51.333 -16 82 -16c30 0 59.5 5.5 88.5 16.5s55.5 27.833 79.5 50.5
c24 23.333 41.5 49.166 52.5 77.499s16.5 58.5 16.5 90.5c0 29.333 -5.33301 56.333 -16 81s-25 46.334 -43 65.001c-20.667 20 -46.334 36.5 -77.001 49.5s-61.667 19.5 -93 19.5z" />
    <glyph glyph-name="colon" unicode=":" horiz-adv-x="571" 
d="M448 317v-317h-326v317h326zM448 1044v-317h-326v317h326z" />
    <glyph glyph-name="semicolon" unicode=";" horiz-adv-x="571" 
d="M448 317v-291l-197 -347h-133l146 321h-142v317h326zM448 1044v-317h-326v317h326z" />
    <glyph glyph-name="less" unicode="&#x3c;" horiz-adv-x="1294" 
d="M468 591l691 -268v-254l-1026 412v221l1026 412v-254z" />
    <glyph glyph-name="equal" unicode="=" horiz-adv-x="1314" 
d="M131 700v237h1052v-237h-1052zM131 243v238h1052v-238h-1052z" />
    <glyph glyph-name="greater" unicode="&#x3e;" horiz-adv-x="1294" 
d="M821 591l-688 269v254l1026 -412v-221l-1026 -412v254z" />
    <glyph glyph-name="question" unicode="?" horiz-adv-x="1107" 
d="M315 931l-286.996 38.998c7.33301 67.333 25.666 129.833 54.999 187.5s67.666 107.167 114.999 148.5c44 38.667 93.667 68.167 149 88.5s125.333 30.5 210 30.5c70.667 0 133 -8.16699 187 -24.5s105 -43.833 153 -82.5c49.333 -39.333 86.5 -85.333 111.5 -138
s37.5 -112.334 37.5 -179.001c0 -64 -15 -122 -45 -174s-102.333 -119 -217 -201c-43.333 -30.667 -73 -58.667 -89 -84s-24 -52.666 -24 -81.999v-53h-272v51c0 86.667 10.167 149.5 30.5 188.5s50.5 72.5 90.5 100.5l61 43c49.333 34 84.5 69.833 105.5 107.5
s31.5 76.834 31.5 117.501c0 54 -17.333 97.667 -52 131s-79.334 50 -134.001 50c-44 0 -82.167 -11.667 -114.5 -35s-56.166 -55.666 -71.499 -96.999c-4.66699 -11.333 -9.33398 -27.333 -14.001 -48s-10.334 -49 -17.001 -85zM696.004 312.998v-313h-324v313h324z" />
    <glyph glyph-name="at" unicode="@" horiz-adv-x="1662" 
d="M1081 1048l174 0.000976562l-123 -541c-3.33301 -15.333 -5.16602 -24.333 -5.49902 -27s-0.5 -5 -0.5 -7c0 -16 4.33301 -28.333 13 -37s20.667 -13 36 -13c58.667 0 109.167 33.333 151.5 100s63.5 153.667 63.5 261c0 146 -48.333 262.333 -145 349s-227 130 -391 130
c-172 0 -305.833 -55.667 -401.5 -167s-143.5 -246 -143.5 -404c0 -168.667 52.167 -302.334 156.5 -401.001s237.833 -148 400.5 -148c70 0 134 7.33301 192 22s110 37.334 156 68.001l131 -47c-57.333 -66 -128.833 -116.833 -214.5 -152.5s-177.167 -53.5 -274.5 -53.5
c-212 0 -387.333 69.333 -526 208s-208 306 -208 502c0 214.667 71.667 391.167 215 529.5s322.333 207.5 537 207.5c188 0 347.667 -57.333 479 -172s197 -257.334 197 -428.001c0 -153.333 -48.333 -279.333 -145 -378s-202 -148 -316 -148
c-40 0 -73.833 9.66699 -101.5 29s-41.5 43 -41.5 71c-32.667 -34.667 -64.334 -60 -95.001 -76s-66.667 -24 -108 -24c-87.333 0 -159.333 31.167 -216 93.5s-85 141.5 -85 237.5c0 112 39.5 212.833 118.5 302.5s171.833 134.5 278.5 134.5
c54.667 0 98.5 -8.83301 131.5 -26.5s60.833 -47.167 83.5 -88.5zM860 884.001c-58.667 0 -108.166 -23.833 -148.499 -71.5s-60.5 -107.167 -60.5 -178.5c0 -42 12.667 -78.333 38 -109s57 -46 95 -46c49.333 0 94.166 24.167 134.499 72.5s63.833 105.833 70.5 172.5
c0.666992 8.66699 1 16.5 1 23.5s-0.333008 13.833 -1 20.5c-4.66699 36 -18.667 64.333 -42 85s-52.333 31 -87 31z" />
    <glyph glyph-name="A" unicode="A" horiz-adv-x="1255" 
d="M796 1404l447 -1404h-342l-99 331h-430l-98 -331h-274l442 1404h354zM741 569l-154 512l-153 -512h307z" />
    <glyph glyph-name="B" unicode="B" horiz-adv-x="1374" 
d="M143 1404h642.999c82 0 149.667 -6.83301 203 -20.5s99 -36.167 137 -67.5c35.333 -28.667 63.666 -65.834 84.999 -111.501s32 -96.5 32 -152.5c0 -40 -7.16699 -79.333 -21.5 -118s-33.166 -71 -56.499 -97c-18.667 -20.667 -42.834 -40.167 -72.501 -58.5
s-59.5 -32.166 -89.5 -41.499v-4c30 -6 58.833 -15.167 86.5 -27.5s52.834 -27.833 75.501 -46.5c38.667 -32 67.834 -70.333 87.501 -115s29.5 -95 29.5 -151c0 -60 -10.5 -114.667 -31.5 -164s-50.833 -91 -89.5 -125s-85.167 -59.833 -139.5 -77.5
s-123.833 -26.5 -208.5 -26.5h-670v1404zM470.999 1159l-0.000976562 -317.999h227c46.667 0 82.334 3.66699 107.001 11s46.334 19.333 65.001 36c16 14.667 28.167 31.167 36.5 49.5s12.5 40.166 12.5 65.499c0 28 -4.33301 51.5 -13 70.5s-22 35.167 -40 48.5
c-18 12.667 -40.333 22 -67 28s-58.334 9 -95.001 9h-233zM470.998 604.001v-354.999h264c36.667 0 67.5 3.83301 92.5 11.5s46.5 18.834 64.5 33.501c18 15.333 31.833 33.666 41.5 54.999s14.5 46.666 14.5 75.999c0 24 -3.83301 46.5 -11.5 67.5s-19.5 39.5 -35.5 55.5
c-18.667 18.667 -41.667 32.667 -69 42s-62.333 14 -105 14h-256z" />
    <glyph glyph-name="C" unicode="C" horiz-adv-x="1329" 
d="M1267 913l-306.998 -25.0068c-2 29.333 -7 58.5 -15 87.5s-18.667 55.833 -32 80.5c-23.333 42.667 -51.333 73.834 -84 93.501s-73 29.5 -121 29.5c-54 0 -99.667 -13.167 -137 -39.5s-68.666 -67.166 -93.999 -122.499c-18 -39.333 -30.667 -83.333 -38 -132
s-11 -107.667 -11 -177c0 -72.667 3.66699 -134.5 11 -185.5s20 -95.5 38 -133.5c25.333 -56 57.833 -97.333 97.5 -124s83.5 -40 131.5 -40c42 0 79.167 8.5 111.5 25.5s60.166 41.833 83.499 74.5c16 23.333 29.833 51.833 41.5 85.5s19.5 68.167 23.5 103.5l301 -29
c-7.33301 -66.667 -25.166 -130.667 -53.499 -192s-65.833 -114.666 -112.5 -159.999c-50.667 -50 -109.167 -88 -175.5 -114s-139.5 -39 -219.5 -39c-122 0 -227.833 26.833 -317.5 80.5s-159.834 124.834 -210.501 213.501c-33.333 58.667 -58.833 126.334 -76.5 203.001
s-26.5 152.334 -26.5 227.001c0 116 18.333 222.5 55 319.5s86 176.167 148 237.5c54 54 116.167 94.833 186.5 122.5s151.5 41.5 243.5 41.5c77.333 0 150.166 -12.167 218.499 -36.5s128.5 -62.166 180.5 -113.499c47.333 -46 84.666 -101 111.999 -165
s43.333 -129.667 48 -197z" />
    <glyph glyph-name="D" unicode="D" horiz-adv-x="1404" 
d="M143 1404l480.998 0.000976562c118.667 0 218.834 -15.167 300.501 -45.5s152.167 -75.833 211.5 -136.5c62 -63.333 109.667 -142.833 143 -238.5s50 -188.834 50 -279.501c0 -110 -19.167 -213 -57.5 -309s-90.166 -174.667 -155.499 -236
c-60 -56 -126.5 -96.5 -199.5 -121.5s-158.833 -37.5 -257.5 -37.5h-516v1404zM470.998 258.001l147 -0.00292969c68.667 0 125.667 12 171 36s82 58.333 110 103c26.667 42.667 46.167 90.834 58.5 144.501s18.5 111.834 18.5 174.501c0 71.333 -8 134.5 -24 189.5
s-40 101.167 -72 138.5c-29.333 34.667 -64.833 60.334 -106.5 77.001s-95.5 25 -161.5 25h-141v-888z" />
    <glyph glyph-name="E" unicode="E" horiz-adv-x="1198" 
d="M143 1404h989v-258h-661v-303h528v-237h-528v-348h669v-258h-997v1404z" />
    <glyph glyph-name="F" unicode="F" horiz-adv-x="1126" 
d="M1097 1404v-258h-626v-303h501v-237h-501v-606h-328v1404h954z" />
    <glyph glyph-name="G" unicode="G" horiz-adv-x="1415" 
d="M1292 753l0.00195312 -752.999h-172l-51 153c-18 -23.333 -38 -45 -60 -65s-44.333 -36.667 -67 -50c-32.667 -18 -71.334 -32.167 -116.001 -42.5s-93 -15.5 -145 -15.5c-86 0 -163.667 13.667 -233 41s-131.333 71.333 -186 132
c-59.333 65.333 -105.333 146.333 -138 243s-49 192.667 -49 288c0 98.667 14.833 195.667 44.5 291s73.5 177 131.5 245c60 69.333 129.833 120.833 209.5 154.5s167.5 50.5 263.5 50.5c153.333 0 279 -39.167 377 -117.5s160.333 -190.833 187 -337.5l-318 -41
c-3.33301 27.333 -10 54.833 -20 82.5s-22.333 51.5 -37 71.5c-22 30 -49.5 53.5 -82.5 70.5s-70.5 25.5 -112.5 25.5c-51.333 0 -97 -12.833 -137 -38.5s-72.667 -63.167 -98 -112.5c-18 -35.333 -31.667 -79.833 -41 -133.5s-14 -117.167 -14 -190.5
c0 -76 5.5 -142.5 16.5 -199.5s27.167 -103.833 48.5 -140.5c26.667 -45.333 60.167 -79.833 100.5 -103.5s86.166 -35.5 137.499 -35.5c36 0 69.333 6.16699 100 18.5s56.667 29.166 78 50.499c21.333 22 38.5 49.333 51.5 82s19.5 67 19.5 103v35h-280v239h592z" />
    <glyph glyph-name="H" unicode="H" horiz-adv-x="1402" 
d="M1259 1404v-1404h-328v595h-460v-595h-328v1404h328v-550h460v550h328z" />
    <glyph glyph-name="I" unicode="I" horiz-adv-x="614" 
d="M471 1404v-1404h-328v1404h328z" />
    <glyph glyph-name="J" unicode="J" horiz-adv-x="839" 
d="M696 1404l0.000976562 -905c0 -96 -6.33301 -172.333 -19 -229s-33.667 -105.334 -63 -146.001c-36.667 -50 -84.167 -86.5 -142.5 -109.5s-134.5 -34.5 -228.5 -34.5c-43.333 0 -83.333 1.83301 -120 5.5s-73 9.16699 -109 16.5v254
c29.333 -6 57.666 -10.667 84.999 -14s52.333 -5 75 -5c32.667 0 61.834 5.33301 87.501 16s46.167 25 61.5 43c15.333 18.667 26.666 42.834 33.999 72.501s11 71.167 11 124.5v911h328z" />
    <glyph glyph-name="K" unicode="K" horiz-adv-x="1347" 
d="M471 1404v-673h4l479 673h311l-362 -505l475 -899h-377l-313 628l-217 -282v-346h-328v1404h328z" />
    <glyph glyph-name="L" unicode="L" horiz-adv-x="1097" 
d="M471 1404v-1146h598v-258h-926v1404h328z" />
    <glyph glyph-name="M" unicode="M" horiz-adv-x="1769" 
d="M589 1404l295 -897h4l291 897h447v-1404h-316v1093h-4l-340 -1093h-213l-348 1093h-4v-1093h-258v1404h446z" />
    <glyph glyph-name="N" unicode="N" horiz-adv-x="1427" 
d="M479 1404l553 -926.999h4c-7.33301 28 -13 58.167 -17 90.5s-6 62.166 -6 89.499v747h271v-1404h-283l-549 921l-57 115h-4c8 -33.333 13.667 -63.5 17 -90.5s5 -65.167 5 -114.5v-831h-270v1404h336z" />
    <glyph glyph-name="O" unicode="O" horiz-adv-x="1417" 
d="M708 1425c80 0 154.003 -11.5 222.003 -34.5s130 -59.167 186 -108.5c74.667 -66.667 130.834 -151 168.501 -253s56.5 -211 56.5 -327c0 -117.333 -18.5 -225 -55.5 -323s-88.833 -178.667 -155.5 -242c-53.333 -50.667 -115.833 -89.5 -187.5 -116.5
s-149.834 -40.5 -234.501 -40.5s-162.834 13.5 -234.501 40.5s-134.167 65.833 -187.5 116.5c-66.667 63.333 -118.5 144 -155.5 242s-55.5 205.667 -55.5 323c0 116 19 225 57 327s94.333 186.333 169 253c55.333 49.333 117.166 85.5 185.499 108.5
s142.166 34.5 221.499 34.5zM708.003 1179c-45.333 0 -84.832 -10.333 -118.499 -31s-63.167 -51.334 -88.5 -92.001c-24.667 -40 -43 -89.333 -55 -148s-18 -126 -18 -202s6 -144.333 18 -205s30.333 -111 55 -151c25.333 -40.667 55.666 -71.667 90.999 -93
s74 -32 116 -32c42.667 0 81.5 10.667 116.5 32s65.167 52.333 90.5 93c24.667 40 43.167 90.333 55.5 151s18.5 129 18.5 205s-6.16699 143.333 -18.5 202s-30.833 108 -55.5 148c-25.333 40.667 -54.833 71.334 -88.5 92.001s-73.167 31 -118.5 31z" />
    <glyph glyph-name="P" unicode="P" horiz-adv-x="1280" 
d="M143 1404l519.999 0.000976562c98.667 0 176.667 -6.33301 234 -19s108.333 -32.667 153 -60c58.667 -36.667 104.334 -83.834 137.001 -141.501s49 -126.167 49 -205.5c0 -54.667 -8 -104.5 -24 -149.5s-38.667 -85.833 -68 -122.5c-44 -55.333 -97 -97.5 -159 -126.5
s-155 -43.5 -279 -43.5h-235v-536h-328v1404zM470.999 782.001l205.999 0.000976562c44 0 79.333 4 106 12s49.334 21 68.001 39c18 16.667 32.167 37.667 42.5 63s15.5 50.666 15.5 75.999c0 27.333 -4.5 52.833 -13.5 76.5s-22.167 43.167 -39.5 58.5
c-18 16.667 -40.667 29.5 -68 38.5s-62 13.5 -104 13.5h-213v-377z" />
    <glyph glyph-name="Q" unicode="Q" horiz-adv-x="1417" 
d="M1298 -20v-250.001c-25.333 -5.33301 -50.666 -9.33301 -75.999 -12s-55.333 -4 -90 -4c-64.667 0 -118.667 8 -162 24s-80 42.667 -110 80c-18.667 22.667 -33.834 49 -45.501 79s-19.167 59.667 -22.5 89c-14.667 -2 -29 -3.5 -43 -4.5s-27.667 -1.5 -41 -1.5
c-84.667 0 -163.167 14 -235.5 42s-134.5 66.333 -186.5 115c-66.667 63.333 -118.5 144 -155.5 242s-55.5 205.667 -55.5 323c0 116 19 225 57 327s94.333 186.333 169 253c55.333 49.333 117.166 85.5 185.499 108.5s142.166 34.5 221.499 34.5c80 0 154 -11.5 222 -34.5
s130 -59.167 186 -108.5c74.667 -66.667 130.834 -151 168.501 -253s56.5 -211 56.5 -327c0 -140 -27.167 -268 -81.5 -384s-135.833 -203.667 -244.5 -263c2.66699 -12 6.83398 -22.667 12.501 -32s13.167 -17.666 22.5 -24.999c14 -11.333 30 -19.833 48 -25.5
s39 -8.5 63 -8.5c16 0 36.5 1.5 61.5 4.5s50.167 6.83301 75.5 11.5zM428 705.999c0 -76 6.00098 -144.333 18.001 -205s30.333 -111 55 -151c25.333 -40.667 55.666 -71.667 90.999 -93s74 -32 116 -32c42.667 0 81.5 10.667 116.5 32s65.167 52.333 90.5 93
c24.667 40 43.167 90.333 55.5 151s18.5 129 18.5 205s-6.16699 143.333 -18.5 202s-30.833 108 -55.5 148c-25.333 40.667 -54.833 71.334 -88.5 92.001s-73.167 31 -118.5 31s-84.833 -10.333 -118.5 -31s-63.167 -51.334 -88.5 -92.001c-24.667 -40 -43 -89.333 -55 -148
s-18 -126 -18 -202z" />
    <glyph glyph-name="R" unicode="R" horiz-adv-x="1400" 
d="M143 1404h635c80 0 151.5 -9.66699 214.5 -29s114.167 -46.333 153.5 -81c41.333 -36 72.833 -80.667 94.5 -134s32.5 -108.333 32.5 -165c0 -90 -22.167 -168.5 -66.5 -235.5s-104.5 -115.5 -180.5 -145.5l274 -614h-363l-225 552h-241v-552h-328v1404zM471 1159
l0.00195312 -361.002h241c48 0 85.167 4.16699 111.5 12.5s49.166 21.833 68.499 40.5c17.333 16 30.666 35.333 39.999 58s14 47.334 14 74.001s-5.16699 51.667 -15.5 75s-23.833 42 -40.5 56c-17.333 14.667 -40.333 25.834 -69 33.501s-63 11.5 -103 11.5h-247z" />
    <glyph glyph-name="S" unicode="S" horiz-adv-x="1302" 
d="M1183 1081l-278.004 -81.9961c-6 22.667 -15 43.667 -27 63s-28.333 37.333 -49 54c-26.667 21.333 -55.667 37.166 -87 47.499s-69.333 15.5 -114 15.5c-66 0 -115.5 -13.333 -148.5 -40s-49.5 -61 -49.5 -103c0 -34 13.333 -62.5 40 -85.5s74.667 -42.5 144 -58.5
l174 -38c77.333 -17.333 137.5 -35.333 180.5 -54s80.5 -40.334 112.5 -65.001c46.667 -37.333 82.5 -81.5 107.5 -132.5s37.5 -107.833 37.5 -170.5c0 -68 -14.5 -130.167 -43.5 -186.5s-69.833 -104.833 -122.5 -145.5c-51.333 -40 -112.166 -70 -182.499 -90
s-147.166 -30 -230.499 -30c-162 0 -296.5 35.833 -403.5 107.5s-178.167 172.834 -213.5 303.501l303 53c13.333 -36.667 32.333 -70.834 57 -102.501s51.667 -56.167 81 -73.5c23.333 -14.667 49.5 -25.5 78.5 -32.5s64.833 -10.5 107.5 -10.5
c73.333 0 129.833 13.667 169.5 41s59.5 64.666 59.5 111.999c0 39.333 -15.5 74 -46.5 104s-79.5 52 -145.5 66l-187 41c-40.667 9.33301 -86.167 24.5 -136.5 45.5s-90.833 42.833 -121.5 65.5c-47.333 35.333 -83.666 77.666 -108.999 126.999s-38 105.333 -38 168
c0 136 50 241.667 150 317s231 113 393 113c70 0 131.667 -6.83301 185 -20.5s101.333 -33.5 144 -59.5c49.333 -29.333 91.833 -66 127.5 -110s62.834 -95.333 81.501 -154z" />
    <glyph glyph-name="T" unicode="T" horiz-adv-x="1011" 
d="M10 1404h991v-258h-332v-1146h-327v1146h-332v258z" />
    <glyph glyph-name="U" unicode="U" horiz-adv-x="1325" 
d="M135 1404l327 0.000976562v-892c0 -63.333 3.66699 -109.833 11 -139.5s19.333 -55.167 36 -76.5c18.667 -23.333 43.167 -41 73.5 -53s68.833 -18 115.5 -18c38.667 0 73 5.5 103 16.5s55.667 28.5 77 52.5c20 22.667 33.833 48.167 41.5 76.5s11.5 75.5 11.5 141.5v892
h271v-897c0 -108.667 -11.333 -191.5 -34 -248.5s-55 -105.833 -97 -146.5c-43.333 -40.667 -97.833 -72.834 -163.5 -96.501s-141.167 -35.5 -226.5 -35.5c-92.667 0 -172 10 -238 30s-121.667 50 -167 90c-50 43.333 -86 95.5 -108 156.5s-33 139.833 -33 236.5v911z" />
    <glyph glyph-name="V" unicode="V" horiz-adv-x="1224" 
d="M-14 1404h345l316 -1003l315 1003h277l-457 -1404h-336z" />
    <glyph glyph-name="W" unicode="W" horiz-adv-x="1812" 
d="M14 1404h317l234 -942l235 942h260l252 -942l226 942h260l-359 -1404h-291l-237 901l-232 -901h-290z" />
    <glyph glyph-name="X" unicode="X" horiz-adv-x="1298" 
d="M40 1404h379l254 -436l256 436h305l-403 -651l463 -753h-379l-299 503l-301 -503h-311l456 729z" />
    <glyph glyph-name="Y" unicode="Y" horiz-adv-x="1187" 
d="M1218 1404l-453 -811v-593h-327v593l-468 811h367l295 -536l297 536h289z" />
    <glyph glyph-name="Z" unicode="Z" horiz-adv-x="1183" 
d="M83 1404h1035v-211l-668 -935h690v-258h-1097v219l675 927h-635v258z" />
    <glyph glyph-name="bracketleft" unicode="[" horiz-adv-x="661" 
d="M575 1404v-145h-199v-1451h199v-145h-438v1741h438z" />
    <glyph glyph-name="backslash" unicode="\" horiz-adv-x="1153" 
d="M274 1404l821 -1404h-217l-821 1404h217z" />
    <glyph glyph-name="bracketright" unicode="]" horiz-adv-x="661" 
d="M86 1404h438v-1741h-438v145h198v1451h-198v145z" />
    <glyph glyph-name="asciicircum" unicode="^" horiz-adv-x="1177" 
d="M587 1110l-241 -578h-258l389 872h221l389 -872h-258z" />
    <glyph glyph-name="underscore" unicode="_" horiz-adv-x="1024" 
d="M1024 -133v-127h-1024v127h1024z" />
    <glyph glyph-name="grave" unicode="`" horiz-adv-x="1028" 
d="M319 1560l393 -248l-51 -116l-418 192z" />
    <glyph glyph-name="a" unicode="a" horiz-adv-x="1206" 
d="M389 722l-282.999 30.9941c12 51.333 33.167 98.333 63.5 141s69.166 77.667 116.499 105c40 22.667 87 39.167 141 49.5s115.667 15.5 185 15.5c114.667 0 205.834 -14 273.501 -42s117.834 -75.333 150.501 -142c12.667 -26.667 22 -56 28 -88s9 -86.667 9 -164v-403
c0 -36 2.5 -73 7.5 -111s12.5 -76 22.5 -114h-297c-4.66699 26 -8.33398 52.833 -11.001 80.5s-4.33398 55.834 -5.00098 84.501c-35.333 -62 -82.833 -108.333 -142.5 -139s-128.834 -46 -207.501 -46c-50.667 0 -99 6.5 -145 19.5s-85 32.833 -117 59.5
c-33.333 27.333 -59.5 61.333 -78.5 102s-28.5 84.334 -28.5 131.001c0 68 18.833 128 56.5 180s93.167 93 166.5 123c46 19.333 105 34.833 177 46.5s141.333 18.834 208 21.501l99 4v23c0 28 -2.66699 52.333 -8 73s-13 37.334 -23 50.001
c-13.333 16 -32.5 27.833 -57.5 35.5s-54.833 11.5 -89.5 11.5c-33.333 0 -60.666 -2.66699 -81.999 -8s-40 -13 -56 -23c-18 -11.333 -33.5 -26.166 -46.5 -44.499s-21.833 -39.166 -26.5 -62.499zM778.001 500.994l-92.001 -8.00195
c-81.333 -7.33301 -140 -17.666 -176 -30.999s-65 -33 -87 -59c-10.667 -13.333 -18.667 -28 -24 -44s-8 -32.667 -8 -50c0 -19.333 3.83301 -36.666 11.5 -51.999s18.834 -28.666 33.501 -39.999c13.333 -10.667 30 -18.834 50 -24.501s40.667 -8.5 62 -8.5
c32.667 0 65 6.66699 97 20s57.667 32 77 56c17.333 20.667 31 47.667 41 81s15 68.333 15 105v55z" />
    <glyph glyph-name="b" unicode="b" horiz-adv-x="1196" 
d="M434 1404l-0.000976562 -503.001c28 50 67.5 89.667 118.5 119s107.5 44 169.5 44c124.667 0 222.834 -48.667 294.501 -146s107.5 -226 107.5 -386c0 -169.333 -39.833 -303.666 -119.5 -402.999s-186.5 -149 -320.5 -149c-71.333 0 -134.833 14.5 -190.5 43.5
s-101.5 72.833 -137.5 131.5l-60 -155h-167v1404h305zM433.999 646.999l0.000976562 -232c0 -76 16.833 -133.5 50.5 -172.5s77.5 -58.5 131.5 -58.5c62.667 0 109.667 28.833 141 86.5s47 144.167 47 259.5c0 104 -15.833 185 -47.5 243s-79.834 87 -144.501 87
c-54 0 -97.167 -19.5 -129.5 -58.5s-48.5 -90.5 -48.5 -154.5z" />
    <glyph glyph-name="c" unicode="c" horiz-adv-x="1069" 
d="M1015 673l-274.004 -25.9971c-1.33301 26 -5.66602 52.5 -12.999 79.5s-16.666 48.833 -27.999 65.5c-14 20 -32.5 36.333 -55.5 49s-48.167 19 -75.5 19c-28.667 0 -55.334 -7.33301 -80.001 -22s-44.334 -34.667 -59.001 -60c-15.333 -25.333 -26.333 -59.5 -33 -102.5
s-10 -94.167 -10 -153.5c0 -58.667 3.33301 -109 10 -151s18.334 -77 35.001 -105c16.667 -29.333 36 -50.333 58 -63s49 -19 81 -19c31.333 0 56.5 5.33301 75.5 16s36.167 27.667 51.5 51c13.333 20.667 23.833 44.167 31.5 70.5s12.167 52.833 13.5 79.5l274 -29
c-6.66699 -56.667 -22.667 -109.834 -48 -159.501s-57 -91.167 -95 -124.5c-38.667 -34.667 -84.667 -61.334 -138 -80.001s-112.333 -28 -177 -28s-126.167 10.333 -184.5 31s-109.5 52.334 -153.5 95.001c-47.333 46 -84.833 104.667 -112.5 176
s-41.5 150.666 -41.5 237.999c0 89.333 14.667 170.166 44 242.499s70 132.166 122 179.499c41.333 37.333 90.833 67 148.5 89s118.834 33 183.501 33c60.667 0 118.334 -9.16699 173.001 -27.5s101.334 -45.166 140.001 -80.499c36.667 -34 67 -76.167 91 -126.5
s39.333 -102.5 46 -156.5z" />
    <glyph glyph-name="d" unicode="d" horiz-adv-x="1196" 
d="M1067 1404v-1404h-283v151h-4c-10.667 -21.333 -23.667 -41.166 -39 -59.499s-32.333 -34.5 -51 -48.5c-28.667 -21.333 -60.5 -37.166 -95.5 -47.499s-72.167 -15.5 -111.5 -15.5c-58.667 0 -113 12 -163 36s-94.667 62.333 -134 115
c-36.667 48.667 -65 107.334 -85 176.001s-30 141.667 -30 219c0 82.667 9.83301 157.834 29.5 225.501s51.5 127.5 95.5 179.5c40.667 48.667 84.667 83 132 103s101.666 30 162.999 30c37.333 0 71.333 -4.16699 102 -12.5s59.334 -21.166 86.001 -38.499
c14.667 -9.33301 29 -20.333 43 -33s27 -26 39 -40v464h306zM761 414.995l-0.00195312 232c0 27.333 -4.16699 55.5 -12.5 84.5s-19.833 52.5 -34.5 70.5c-14 18 -31.833 32.167 -53.5 42.5s-46.167 15.5 -73.5 15.5c-34 0 -64 -7.66699 -90 -23s-47.667 -39.333 -65 -72
c-14.667 -26 -25.167 -58.167 -31.5 -96.5s-9.5 -81.833 -9.5 -130.5c0 -54 3.33301 -103.333 10 -148s16.334 -80 29.001 -106c14.667 -31.333 34.5 -55.833 59.5 -73.5s54.833 -26.5 89.5 -26.5c30 0 57.333 6.83301 82 20.5s44.334 31.5 59.001 53.5
c13.333 19.333 23.5 42.833 30.5 70.5s10.5 56.5 10.5 86.5z" />
    <glyph glyph-name="e" unicode="e" horiz-adv-x="1177" 
d="M813 346l286 -27.001c-14.667 -52 -36.667 -98.667 -66 -140s-64.666 -76.666 -105.999 -105.999c-42 -29.333 -91.167 -52.166 -147.5 -68.499s-118.5 -24.5 -186.5 -24.5c-72.667 0 -141.5 12 -206.5 36s-121.5 60 -169.5 108c-48 47.333 -85 104.666 -111 171.999
s-39 142 -39 224c0 94 16.333 176.667 49 248s77.667 131.333 135 180c44.667 37.333 95 66 151 86s120.333 30 193 30c82.667 0 157.5 -15 224.5 -45s123.5 -73 169.5 -129c39.333 -48 69.333 -104.333 90 -169s31 -133.667 31 -207v-54h-723
c-1.33301 -29.333 1 -58.666 7 -87.999s15 -55.333 27 -78c20 -36.667 45.667 -64.167 77 -82.5s68 -27.5 110 -27.5c31.333 0 60.166 5.16699 86.499 15.5s48.5 24.833 66.5 43.5c12.667 13.333 23.5 28.666 32.5 45.999s15.5 36.333 19.5 57zM387 633.999
l409.001 0.00195312c0.666992 26 -2.33301 52 -9 78s-17.334 49.333 -32.001 70c-18 25.333 -40.167 44.666 -66.5 57.999s-55.833 20 -88.5 20c-32 0 -61.333 -5.83301 -88 -17.5s-49.334 -27.834 -68.001 -48.501c-18 -19.333 -32.167 -43 -42.5 -71
s-15.166 -57.667 -14.499 -89z" />
    <glyph glyph-name="f" unicode="f" horiz-adv-x="763" 
d="M778 1400l-0.00390625 -202.001c-30 5.33301 -56.667 9.33301 -80 12s-43.333 4 -60 4c-23.333 0 -44.666 -2.83301 -63.999 -8.5s-34.666 -14.5 -45.999 -26.5c-12 -12 -20.5 -27 -25.5 -45s-7.5 -44 -7.5 -78v-26h232v-215h-232v-815h-305v815h-162v215h162v22
c0 76 7.5 136.667 22.5 182s38.167 83 69.5 113c28.667 26.667 63.834 46.334 105.501 59.001s89.834 19 144.501 19c36.667 0 77.5 -2.16699 122.5 -6.5s86.167 -10.5 123.5 -18.5z" />
    <glyph glyph-name="g" unicode="g" horiz-adv-x="1142" 
d="M1128 1243l-0.00195312 -217.002c-11.333 2 -23.666 3.5 -36.999 4.5s-28.333 1.5 -45 1.5c-22.667 0 -41.667 -2.16699 -57 -6.5s-28.333 -10.5 -39 -18.5c-8 -5.33301 -15.333 -12.166 -22 -20.499s-12.334 -17.833 -17.001 -28.5c36 -29.333 63.333 -65.333 82 -108
s28 -88 28 -136s-11.167 -94.167 -33.5 -138.5s-56.166 -82.166 -101.499 -113.499c-34 -23.333 -76.667 -42 -128 -56s-102 -21 -152 -21c-25.333 0 -53 1.66699 -83 5s-51.667 5 -65 5c-34.667 0 -59.667 -6 -75 -18s-23 -29.333 -23 -52
c0 -18.667 7.33301 -33.167 22 -43.5s38.667 -16.166 72 -17.499l273 -13c75.333 -3.33301 133.166 -9.5 173.499 -18.5s76.5 -22.5 108.5 -40.5c42 -23.333 74.667 -54.833 98 -94.5s35 -87.167 35 -142.5c0 -56.667 -13.333 -107 -40 -151s-66.334 -80.333 -119.001 -109
c-44 -23.333 -98.333 -40.333 -163 -51s-147 -16 -247 -16c-98.667 0 -178 4.5 -238 13.5s-112.333 23.5 -157 43.5c-50.667 22.667 -89.334 50.834 -116.001 84.501s-40 75.167 -40 124.5c0 48.667 14.333 90.667 43 126s67 60.666 115 75.999
c-31.333 15.333 -55.666 37.5 -72.999 66.5s-26 60.833 -26 95.5c0 50.667 15.667 95.667 47 135s75.333 64.333 132 75v5c-48.667 22 -87.167 54.5 -115.5 97.5s-42.5 94.167 -42.5 153.5c0 60 13.167 112 39.5 156s62.166 80.333 107.499 109
c39.333 24 86.833 42.5 142.5 55.5s110.834 19.5 165.501 19.5c42.667 0 82 -2.66699 118 -8s68.333 -12.666 97 -21.999c2.66699 31.333 10.834 60.666 24.501 87.999s31.834 51 54.501 71c24.667 22 51.334 37.833 80.001 47.5s67.667 14.5 117 14.5
c16.667 0 30.667 -0.833008 42 -2.5s24 -4.83398 38 -9.50098zM562.998 556.998c26 0 49.165 3.50293 69.498 10.5029s37.5 17.167 51.5 30.5c14.667 14 26.167 32.167 34.5 54.5s12.5 47.166 12.5 74.499s-4 51.333 -12 72s-20.667 38 -38 52
c-15.333 13.333 -33.5 23.5 -54.5 30.5s-41.5 10.5 -61.5 10.5c-22.667 0 -42.167 -2.33301 -58.5 -7s-31.166 -11.667 -44.499 -21c-21.333 -15.333 -38.166 -34.833 -50.499 -58.5s-18.5 -50.834 -18.5 -81.501c0 -24.667 4.5 -48.334 13.5 -71.001s22.167 -42 39.5 -58
c14.667 -13.333 31.167 -23 49.5 -29s40.833 -9 67.5 -9zM670.996 12.001l-271.999 12c-33.333 -4 -59.5 -14.167 -78.5 -30.5s-28.5 -36.5 -28.5 -60.5s8.66699 -45.167 26 -63.5s43.666 -32.833 78.999 -43.5c24 -6.66699 51.333 -11.667 82 -15s68.667 -5 114 -5
c60 0 102 1.66699 126 5s45 8.33301 63 15c25.333 10.667 45 24.334 59 41.001s21 35.334 21 56.001c0 29.333 -13.5 50.666 -40.5 63.999s-77.167 21.666 -150.5 24.999z" />
    <glyph glyph-name="h" unicode="h" horiz-adv-x="1198" 
d="M434 1404l-0.00292969 -510c12 19.333 25.5 37 40.5 53s32.167 31.333 51.5 46c34 25.333 68.667 43.5 104 54.5s73 16.5 113 16.5c46.667 0 91.5 -7.16699 134.5 -21.5s78.167 -35.166 105.5 -62.499c28 -28.667 49.333 -65.5 64 -110.5s22 -103.5 22 -175.5v-694h-306
v665c0 34.667 -2.5 64.667 -7.5 90s-12.5 45.333 -22.5 60c-10.667 14 -24.167 25 -40.5 33s-37.166 12 -62.499 12c-33.333 0 -62.666 -6.83301 -87.999 -20.5s-45.666 -31.5 -60.999 -53.5c-14.667 -20.667 -26.167 -47.334 -34.5 -80.001s-12.5 -66 -12.5 -100v-606h-305
v1404h305z" />
    <glyph glyph-name="i" unicode="i" horiz-adv-x="581" 
d="M448 1044v-1044h-305v1044h305zM452 1417v-240h-313v240h313z" />
    <glyph glyph-name="j" unicode="j" horiz-adv-x="589" 
d="M456 1044l-0.00292969 -1012c0 -82.667 -7.5 -148.834 -22.5 -198.501s-39.5 -89.5 -73.5 -119.5c-26.667 -24 -60.167 -42.333 -100.5 -55s-88.166 -19 -143.499 -19c-29.333 0 -59.166 1.5 -89.499 4.5s-60.833 7.5 -91.5 13.5v230c14 -3.33301 27.167 -5.5 39.5 -6.5
s24.833 -1.5 37.5 -1.5c32.667 0 57.334 3.83301 74.001 11.5s30 19.5 40 35.5c9.33301 13.333 15.833 29.333 19.5 48s5.5 45.334 5.5 80.001v989h305zM459.997 1417v-240h-313v240h313z" />
    <glyph glyph-name="k" unicode="k" horiz-adv-x="1138" 
d="M434 1404v-815l393 455h280l-317 -360l356 -684h-321l-242 479l-149 -178v-301h-305v1404h305z" />
    <glyph glyph-name="l" unicode="l" horiz-adv-x="563" 
d="M434 1404v-1404h-305v1404h305z" />
    <glyph glyph-name="m" unicode="m" horiz-adv-x="1783" 
d="M434 0l-304.998 0.000976562v1044h288v-168h2c32.667 62 75.167 108.833 127.5 140.5s109.5 47.5 171.5 47.5c42 0 81 -6 117 -18s68 -31 96 -57c18 -16.667 33.333 -35 46 -55s22.667 -42 30 -66c13.333 28 30.166 53.667 50.499 77s44.5 44 72.5 62
c29.333 18.667 60.666 32.834 93.999 42.501s71 14.5 113 14.5c49.333 0 94.166 -7.5 134.499 -22.5s74.5 -37.5 102.5 -67.5c26.667 -28 46.667 -61.833 60 -101.5s20 -84.167 20 -133.5v-739h-305v661c0 41.333 -1.83301 73 -5.5 95s-9.83398 40.333 -18.501 55
c-10.667 16 -24.667 28.167 -42 36.5s-37.666 12.5 -60.999 12.5c-26.667 0 -51.5 -5.83301 -74.5 -17.5s-43.167 -29.834 -60.5 -54.501c-14 -20.667 -24.667 -45.167 -32 -73.5s-11 -61.833 -11 -100.5v-614h-305v661c0 40 -2.66699 71.333 -8 94s-13 41.334 -23 56.001
c-11.333 16 -25.666 28.167 -42.999 36.5s-37 12.5 -59 12.5c-24.667 0 -47.5 -5.33301 -68.5 -16s-39.833 -27.334 -56.5 -50.001s-28.667 -48.834 -36 -78.501s-11 -63.5 -11 -101.5v-614z" />
    <glyph glyph-name="n" unicode="n" horiz-adv-x="1198" 
d="M434 0l-304.996 0.000976562v1044h284v-164h4c17.333 31.333 38.166 59.166 62.499 83.499s50.166 43.5 77.499 57.5c26 14.667 54.667 25.5 86 32.5s62.666 10.5 93.999 10.5c46 0 90 -6.83301 132 -20.5s76.333 -32.5 103 -56.5c32.667 -30 57 -67.333 73 -112
s24 -94 24 -148v-727h-306v665c0 40.667 -2.83301 73.167 -8.5 97.5s-14.834 43.833 -27.501 58.5c-10.667 12 -24.834 21.5 -42.501 28.5s-38.5 10.5 -62.5 10.5c-20.667 0 -41.667 -4.33301 -63 -13s-40.666 -21.667 -57.999 -39c-22 -21.333 -38.667 -49 -50 -83
s-17 -73.667 -17 -119v-606z" />
    <glyph glyph-name="o" unicode="o" horiz-adv-x="1171" 
d="M585 1064c70 0 135.5 -11.5 196.5 -34.5s116.5 -59.167 166.5 -108.5c49.333 -49.333 87.5 -108.166 114.5 -176.499s40.5 -141.833 40.5 -220.5c0 -82.667 -14.667 -160 -44 -232s-69 -132 -119 -180c-46 -43.333 -99.333 -76.166 -160 -98.499
s-125.667 -33.5 -195 -33.5s-134.333 11.167 -195 33.5s-113.667 55.166 -159 98.499c-50.667 48 -90.667 108 -120 180s-44 149.333 -44 232c0 78.667 13.5 152.167 40.5 220.5s65.5 127.166 115.5 176.499c49.333 49.333 104.5 85.5 165.5 108.5s126.5 34.5 196.5 34.5z
M585 860c-32 0 -59.832 -6.83301 -83.499 -20.5s-44.167 -34.167 -61.5 -61.5c-18 -28 -31.333 -61.667 -40 -101s-13 -90.333 -13 -153c0 -59.333 3.83301 -109.333 11.5 -150s19.5 -74.667 35.5 -102c16.667 -28.667 37.667 -50.5 63 -65.5s54.666 -22.5 87.999 -22.5
c34 0 63.667 7.5 89 22.5s46.333 36.833 63 65.5c16 27.333 27.833 61.333 35.5 102s11.5 90.667 11.5 150c0 62.667 -4.33301 113.667 -13 153s-22 73 -40 101c-18 27.333 -38.833 47.833 -62.5 61.5s-51.5 20.5 -83.5 20.5z" />
    <glyph glyph-name="p" unicode="p" horiz-adv-x="1193" 
d="M434 -335l-305.002 0.000976562v1379h282v-168c31.333 60 75.5 106.333 132.5 139s118.833 49 185.5 49c124.667 0 221.334 -48.833 290.001 -146.5s103 -226.167 103 -385.5c0 -166 -36.167 -299.5 -108.5 -400.5s-171.5 -151.5 -297.5 -151.5
c-62 0 -116.667 12.667 -164 38s-86.666 63.666 -117.999 114.999v-468zM433.998 643.001v-225.999c0 -72.667 15.833 -129.667 47.5 -171s75.167 -62 130.5 -62c63.333 0 110.833 28.667 142.5 86s47.5 142.666 47.5 255.999c0 114.667 -16.5 199 -49.5 253
s-79.833 81 -140.5 81c-54 0 -97.167 -20.333 -129.5 -61s-48.5 -92.667 -48.5 -156z" />
    <glyph glyph-name="q" unicode="q" horiz-adv-x="1206" 
d="M1069 -335l-306.003 0.000976562v474c-10 -22 -22.667 -41.833 -38 -59.5s-33.333 -33.5 -54 -47.5c-27.333 -18 -56.833 -31.167 -88.5 -39.5s-66.167 -12.5 -103.5 -12.5c-59.333 0 -113.5 11.833 -162.5 35.5s-93.167 62.167 -132.5 115.5
c-35.333 47.333 -63 104.833 -83 172.5s-30 143.167 -30 226.5c0 82 10.5 156.5 31.5 223.5s54.833 126.167 101.5 177.5c39.333 43.333 84.333 76.333 135 99s110.334 34 179.001 34c40.667 0 78.834 -4.83301 114.501 -14.5s69.834 -25.834 102.501 -48.501
c20 -14 38 -29.667 54 -47s30 -37.333 42 -60l70 150h176c-5.33301 -54 -8 -83.667 -8 -89v-18v-1272zM762.997 425.001v220.002c0 25.333 -2.83301 49.166 -8.5 71.499s-14.167 42.833 -25.5 61.5c-16.667 25.333 -37 45.333 -61 60s-51.667 22 -83 22
c-32 0 -60.333 -8 -85 -24s-46 -40.333 -64 -73c-16 -28.667 -27.5 -62.334 -34.5 -101.001s-10.5 -82.667 -10.5 -132c0 -54.667 3.5 -102.667 10.5 -144s17.167 -75.333 30.5 -102c16 -32.667 36.333 -57.5 61 -74.5s54 -25.5 88 -25.5c58 0 102.833 23.667 134.5 71
s47.5 104 47.5 170z" />
    <glyph glyph-name="r" unicode="r" horiz-adv-x="778" 
d="M434 0l-305 -0.00195312v1044h266v-231h4c4 32.667 12.667 62.834 26 90.501s30 51.834 50 72.501c28 30.667 59.667 53 95 67s72.333 21 111 21c10 0 19.5 -0.166992 28.5 -0.5s18.167 -1.5 27.5 -3.5v-280c-10 2 -19 3.5 -27 4.5s-15.333 1.5 -22 1.5
c-26.667 0 -52 -2.83301 -76 -8.5s-45.333 -14.5 -64 -26.5c-42 -26 -71.5 -60 -88.5 -102s-25.5 -98.667 -25.5 -170v-479z" />
    <glyph glyph-name="s" unicode="s" horiz-adv-x="1067" 
d="M970 798l-242.996 -50.999c-8.66699 17.333 -19 33.833 -31 49.5s-24.333 28.5 -37 38.5c-17.333 13.333 -37 23.5 -59 30.5s-50 10.5 -84 10.5c-25.333 0 -47.333 -1.83301 -66 -5.5s-34.334 -8.5 -47.001 -14.5c-18 -9.33301 -31.667 -21.5 -41 -36.5
s-14 -30.833 -14 -47.5c0 -26 10.333 -47 31 -63s54.667 -27.333 102 -34l172 -24c69.333 -10 126.333 -24.667 171 -44s81 -43 109 -71c27.333 -26.667 47.833 -57.834 61.5 -93.501s20.5 -74.167 20.5 -115.5c0 -55.333 -12 -104.833 -36 -148.5
s-57.667 -80.834 -101 -111.501c-40 -28 -89.833 -49.5 -149.5 -64.5s-127.167 -22.5 -202.5 -22.5c-70 0 -135 7.5 -195 22.5s-113 39.167 -159 72.5c-36.667 26 -67.834 56.833 -93.501 92.5s-45.167 74.5 -58.5 116.5l258 39c6 -20.667 14.667 -39.667 26 -57
s25.333 -32.333 42 -45c22 -17.333 49.333 -30.666 82 -39.999s66 -14 100 -14c29.333 0 58.666 3 87.999 9s52 14 68 24c14 9.33301 24.667 20.666 32 33.999s11 28.666 11 45.999c0 26 -9.33301 47.5 -28 64.5s-58 30.5 -118 40.5l-149 24
c-68 11.333 -122.5 25.333 -163.5 42s-75.5 37 -103.5 61c-32 27.333 -56.333 60.333 -73 99s-25 79.334 -25 122.001c0 50 12.667 97.667 38 143s59.666 83 102.999 113c39.333 26 85.5 45 138.5 57s112.833 18 179.5 18c76 0 139 -7.66699 189 -23s94 -38.333 132 -69
c28.667 -22 53.5 -47.667 74.5 -77s37.167 -61.666 48.5 -96.999z" />
    <glyph glyph-name="t" unicode="t" horiz-adv-x="770" 
d="M479 1363l0.000976562 -319.001h217v-215h-217v-469c0 -35.333 2.66699 -60.833 8 -76.5s13.666 -29.167 24.999 -40.5c9.33301 -10 21.166 -17.667 35.499 -23s33.833 -8 58.5 -8c13.333 0 30.333 1 51 3s41 4.66699 61 8v-225
c-35.333 -5.33301 -73.5 -9.66602 -114.5 -12.999s-77.833 -5 -110.5 -5c-51.333 0 -98.166 7 -140.499 21s-77.5 36 -105.5 66c-25.333 26.667 -43.833 58 -55.5 94s-17.5 99.667 -17.5 191v477h-164v215h164l28 307z" />
    <glyph glyph-name="u" unicode="u" horiz-adv-x="1191" 
d="M129 1044l305.003 -0.000976562v-629c0 -44 3 -77.667 9 -101s14.333 -42 25 -56c12 -15.333 27.167 -27.166 45.5 -35.499s38.166 -12.5 59.499 -12.5c25.333 0 50.166 6 74.499 18s45.166 29.333 62.499 52c16.667 22 28.667 46.833 36 74.5s11 59.5 11 95.5v594h305
v-1044h-282v186h-4c-27.333 -64 -67.833 -114.333 -121.5 -151s-117.834 -55 -192.501 -55c-44.667 0 -85.167 6.33301 -121.5 19s-68.166 30.667 -95.499 54c-42 36 -71.833 78.833 -89.5 128.5s-26.5 111.167 -26.5 184.5v678z" />
    <glyph glyph-name="v" unicode="v" horiz-adv-x="1007" 
d="M999 1044l-373 -1044h-252l-382 1044h327l219 -670h4l223 670h234z" />
    <glyph glyph-name="w" unicode="w" horiz-adv-x="1480" 
d="M1468 1044l-324 -1044h-227l-174 649h-4l-170 -649h-227l-330 1044h311l168 -619h4l164 619h233l166 -619h4l179 619h227z" />
    <glyph glyph-name="x" unicode="x" horiz-adv-x="1069" 
d="M565 749l178 295h264l-303 -473l365 -571h-353l-219 368l-231 -368h-266l362 548l-319 496h350z" />
    <glyph glyph-name="y" unicode="y" horiz-adv-x="1005" 
d="M997 1044l-406.002 -1121c-19.333 -54 -39.666 -96.833 -60.999 -128.5s-46 -59.167 -74 -82.5c-32 -26.667 -66 -46 -102 -58s-81.667 -18 -137 -18c-26.667 0 -55.5 1.5 -86.5 4.5s-60.167 6.83301 -87.5 11.5v226c24.667 -4.66699 50.667 -8.33398 78 -11.001
s52.333 -4 75 -4c28 0 51.167 2.33301 69.5 7s33.5 11.334 45.5 20.001c12.667 10 24.334 24.5 35.001 43.5s18 37.167 22 54.5l6 26l-382 1030h335l211 -653l223 653h236z" />
    <glyph glyph-name="z" unicode="z" horiz-adv-x="946" 
d="M894 1044v-168l-495 -661h504v-215h-860v186l487 653h-447v205h811z" />
    <glyph glyph-name="braceleft" unicode="{" horiz-adv-x="794" 
d="M737 1413v-157.996h-78c-22 0 -41.167 -2.5 -57.5 -7.5s-28.5 -12.167 -36.5 -21.5c-7.33301 -8 -13 -19.333 -17 -34s-6 -37.334 -6 -68.001v-324c0 -38.667 -3.33301 -70 -10 -94s-17 -45 -31 -63c-16 -22 -39.833 -41.667 -71.5 -59s-64.5 -30 -98.5 -38v-4
c34 -7.33301 66.833 -19.833 98.5 -37.5s55.5 -37.167 71.5 -58.5c14 -18 24.333 -39.167 31 -63.5s10 -55.833 10 -94.5v-337c0 -30.667 2 -53.334 6 -68.001s9.66699 -26 17 -34c8 -9.33301 20.167 -16.5 36.5 -21.5s35.5 -7.5 57.5 -7.5h78v-157h-148
c-48 0 -89.667 5.83301 -125 17.5s-66 29.5 -92 53.5c-24.667 23.333 -42.334 49.166 -53.001 77.499s-16 67.5 -16 117.5v394c0 26.667 -3.33301 47 -10 61s-18.334 27.667 -35.001 41s-34.667 23.833 -54 31.5s-38.333 11.5 -57 11.5h-39v152h39
c18.667 0 37.667 3.83301 57 11.5s37.333 18.167 54 31.5c16.667 14 28.334 28 35.001 42s10 34 10 60v381c0 50 5.33301 89.167 16 117.5s28.334 54.166 53.001 77.499c26 24 56.667 42 92 54s77 18 125 18h148z" />
    <glyph glyph-name="bar" unicode="|" horiz-adv-x="622" 
d="M428 1404v-1404h-234v1404h234z" />
    <glyph glyph-name="braceright" unicode="}" horiz-adv-x="794" 
d="M57 1413l147 -0.00390625c48 0 89.833 -6 125.5 -18s66.167 -30 91.5 -54c25.333 -23.333 43.333 -49.166 54 -77.499s16 -67.5 16 -117.5v-381c0 -26 3.33301 -46 10 -60s18.334 -28 35.001 -42c16.667 -13.333 34.667 -23.833 54 -31.5s38.333 -11.5 57 -11.5h39v-152
h-39c-18.667 0 -37.667 -3.83301 -57 -11.5s-37.333 -18.167 -54 -31.5s-28.334 -27 -35.001 -41s-10 -34.333 -10 -61v-394c0 -50 -5.33301 -89.167 -16 -117.5s-28.667 -54.166 -54 -77.499c-25.333 -24 -55.833 -41.833 -91.5 -53.5s-77.5 -17.5 -125.5 -17.5h-147v157
h78c22 0 41 2.5 57 7.5s28.333 12.167 37 21.5c7.33301 8 12.833 19.333 16.5 34s5.5 37.334 5.5 68.001v337c0 38.667 3.5 70.167 10.5 94.5s17.167 45.5 30.5 63.5c16.667 21.333 40.834 40.833 72.501 58.5s64.167 30.167 97.5 37.5v4c-33.333 8 -65.833 20.667 -97.5 38
s-55.834 37 -72.501 59c-13.333 18 -23.5 39 -30.5 63s-10.5 55.333 -10.5 94v324c0 30.667 -1.83301 53.334 -5.5 68.001s-9.16699 26 -16.5 34c-8.66699 9.33301 -21 16.5 -37 21.5s-35 7.5 -57 7.5h-78v158z" />
    <glyph glyph-name="asciitilde" unicode="~" horiz-adv-x="1169" 
d="M233 397l-167.999 88.0039c12.667 31.333 27.5 62.166 44.5 92.499s34.167 56.166 51.5 77.499c28.667 34 60.667 59.5 96 76.5s76.333 25.5 123 25.5c26 0 53.5 -3.33301 82.5 -10s74.833 -21.667 137.5 -45l71 -27c19.333 -6.66699 39.666 -12.334 60.999 -17.001
s39.333 -7 54 -7c34 0 62.5 8.83301 85.5 26.5s44.167 45.5 63.5 83.5l168 -88c-15.333 -30.667 -30.5 -58.167 -45.5 -82.5s-29.833 -44.5 -44.5 -60.5c-32 -36.667 -68.5 -64 -109.5 -82s-84.167 -27 -129.5 -27c-18 0 -36.167 1.83301 -54.5 5.5s-40.5 10.167 -66.5 19.5
l-88 31c-72 24.667 -116.167 39 -132.5 43s-30.833 6 -43.5 6c-35.333 0 -64.833 -9.83301 -88.5 -29.5s-46.167 -52.834 -67.5 -99.501z" />
    <glyph glyph-name="afii10051" horiz-adv-x="1488" 
d="M0 1404l995.002 -0.000976562v-258h-348v-325c43.333 10.667 88.833 18.834 136.5 24.501s96.834 8.5 147.501 8.5c82 0 152.667 -10.833 212 -32.5s108.333 -52.5 147 -92.5c34 -36 60.167 -80.167 78.5 -132.5s27.5 -113.5 27.5 -183.5
c0 -67.333 -8.83301 -127.5 -26.5 -180.5s-42.834 -97.167 -75.501 -132.5c-36.667 -39.333 -83.667 -69.166 -141 -89.499s-125.666 -30.5 -204.999 -30.5c-36.667 0 -71.834 2.16699 -105.501 6.5s-66.834 10.166 -99.501 17.499l37 239
c16.667 -4.66699 32.667 -8.16699 48 -10.5s30.666 -3.5 45.999 -3.5c34.667 0 65 4.33301 91 13s47 21.334 63 38.001c13.333 14 23.5 31.167 30.5 51.5s10.5 46.166 10.5 77.499c0 32.667 -4.5 61 -13.5 85s-22.5 44.333 -40.5 61c-17.333 15.333 -40.333 27.333 -69 36
s-58.667 13 -90 13c-33.333 0 -69 -2.83301 -107 -8.5s-72 -12.5 -102 -20.5v-575h-328v1146h-319v258z" />
    <glyph glyph-name="afii10051" unicode="&#x402;" horiz-adv-x="1488" 
d="M0 1404l995.002 -0.000976562v-258h-348v-325c43.333 10.667 88.833 18.834 136.5 24.501s96.834 8.5 147.501 8.5c82 0 152.667 -10.833 212 -32.5s108.333 -52.5 147 -92.5c34 -36 60.167 -80.167 78.5 -132.5s27.5 -113.5 27.5 -183.5
c0 -67.333 -8.83301 -127.5 -26.5 -180.5s-42.834 -97.167 -75.501 -132.5c-36.667 -39.333 -83.667 -69.166 -141 -89.499s-125.666 -30.5 -204.999 -30.5c-36.667 0 -71.834 2.16699 -105.501 6.5s-66.834 10.166 -99.501 17.499l37 239
c16.667 -4.66699 32.667 -8.16699 48 -10.5s30.666 -3.5 45.999 -3.5c34.667 0 65 4.33301 91 13s47 21.334 63 38.001c13.333 14 23.5 31.167 30.5 51.5s10.5 46.166 10.5 77.499c0 32.667 -4.5 61 -13.5 85s-22.5 44.333 -40.5 61c-17.333 15.333 -40.333 27.333 -69 36
s-58.667 13 -90 13c-33.333 0 -69 -2.83301 -107 -8.5s-72 -12.5 -102 -20.5v-575h-328v1146h-319v258z" />
    <glyph glyph-name="afii10052" horiz-adv-x="1070" 
d="M143 1404h907v-258h-579v-1146h-328v1404zM790 1861l70 -178l-461 -156l-51 119z" />
    <glyph glyph-name="afii10052" unicode="&#x403;" horiz-adv-x="1070" 
d="M143 1404h907v-258h-579v-1146h-328v1404zM790 1861l70 -178l-461 -156l-51 119z" />
    <glyph glyph-name="afii10061" horiz-adv-x="1349" 
d="M143 1404l327.998 0.00878906v-561h102c21.333 0 41 2.16699 59 6.5s34.333 11.166 49 20.499c21.333 12.667 39.333 30.167 54 52.5s32.334 68.166 53.001 137.499l39 131c11.333 38 23.333 70.167 36 96.5s27.334 48.833 44.001 67.5
c14.667 16.667 29.834 29.167 45.501 37.5s33.834 12.166 54.501 11.499h256c-12 -8.66699 -22.333 -17.834 -31 -27.501s-18.667 -24.167 -30 -43.5c-19.333 -32 -36.5 -66.5 -51.5 -103.5s-29.5 -79.167 -43.5 -126.5l-32 -114
c-14.667 -50.667 -30.334 -90.834 -47.001 -120.501s-36 -53.834 -58 -72.501c-14.667 -12.667 -30.334 -22.667 -47.001 -30s-34.334 -12.333 -53.001 -15v-8c20 -2.66699 39.5 -7.5 58.5 -14.5s36.167 -15.833 51.5 -26.5c35.333 -22.667 66 -55.167 92 -97.5
s53.667 -109.5 83 -201.5c40 -128 62.833 -199.833 68.5 -215.5s12.167 -31.834 19.5 -48.501c12.667 -31.333 25.334 -57.333 38.001 -78s28.667 -41 48 -61h-303c-22 2 -42 11.167 -60 27.5s-34.333 39.166 -49 68.499c-8.66699 16.667 -18.667 41.667 -30 75
s-23.333 71 -36 113l-36 127c-9.33301 31.333 -18.333 58.166 -27 80.499s-17.667 39.833 -27 52.5c-14.667 21.333 -34 37 -58 47s-60.667 15 -110 15h-122v-606h-328v1404zM928.998 1861.01l70 -178l-461 -156l-51 119z" />
    <glyph glyph-name="afii10061" unicode="&#x40c;" horiz-adv-x="1349" 
d="M143 1404l327.998 0.00878906v-561h102c21.333 0 41 2.16699 59 6.5s34.333 11.166 49 20.499c21.333 12.667 39.333 30.167 54 52.5s32.334 68.166 53.001 137.499l39 131c11.333 38 23.333 70.167 36 96.5s27.334 48.833 44.001 67.5
c14.667 16.667 29.834 29.167 45.501 37.5s33.834 12.166 54.501 11.499h256c-12 -8.66699 -22.333 -17.834 -31 -27.501s-18.667 -24.167 -30 -43.5c-19.333 -32 -36.5 -66.5 -51.5 -103.5s-29.5 -79.167 -43.5 -126.5l-32 -114
c-14.667 -50.667 -30.334 -90.834 -47.001 -120.501s-36 -53.834 -58 -72.501c-14.667 -12.667 -30.334 -22.667 -47.001 -30s-34.334 -12.333 -53.001 -15v-8c20 -2.66699 39.5 -7.5 58.5 -14.5s36.167 -15.833 51.5 -26.5c35.333 -22.667 66 -55.167 92 -97.5
s53.667 -109.5 83 -201.5c40 -128 62.833 -199.833 68.5 -215.5s12.167 -31.834 19.5 -48.501c12.667 -31.333 25.334 -57.333 38.001 -78s28.667 -41 48 -61h-303c-22 2 -42 11.167 -60 27.5s-34.333 39.166 -49 68.499c-8.66699 16.667 -18.667 41.667 -30 75
s-23.333 71 -36 113l-36 127c-9.33301 31.333 -18.333 58.166 -27 80.499s-17.667 39.833 -27 52.5c-14.667 21.333 -34 37 -58 47s-60.667 15 -110 15h-122v-606h-328v1404zM928.998 1861.01l70 -178l-461 -156l-51 119z" />
    <glyph glyph-name="afii10060" horiz-adv-x="1476" 
d="M0 1404l994.999 -0.00292969v-258h-348v-325c43.333 10.667 88.5 18.834 135.5 24.501s96.5 8.5 148.5 8.5c82 0 152.667 -10.833 212 -32.5s108.333 -52.5 147 -92.5c33.333 -36 57.333 -76 72 -120s22 -99.667 22 -167v-442h-315v389
c0 44.667 -4.5 79.334 -13.5 104.001s-22.5 45.334 -40.5 62.001s-41.833 29 -71.5 37s-64.5 12 -104.5 12c-25.333 0 -55.166 -2.66699 -89.499 -8s-68.5 -12.333 -102.5 -21v-575h-328v1146h-319v258z" />
    <glyph glyph-name="afii10060" unicode="&#x40b;" horiz-adv-x="1476" 
d="M0 1404l994.999 -0.00292969v-258h-348v-325c43.333 10.667 88.5 18.834 135.5 24.501s96.5 8.5 148.5 8.5c82 0 152.667 -10.833 212 -32.5s108.333 -52.5 147 -92.5c33.333 -36 57.333 -76 72 -120s22 -99.667 22 -167v-442h-315v389
c0 44.667 -4.5 79.334 -13.5 104.001s-22.5 45.334 -40.5 62.001s-41.833 29 -71.5 37s-64.5 12 -104.5 12c-25.333 0 -55.166 -2.66699 -89.499 -8s-68.5 -12.333 -102.5 -21v-575h-328v1146h-319v258z" />
    <glyph glyph-name="afii10145" horiz-adv-x="1396" 
d="M143 1404h328v-1146h454v1146h328v-1404h-406v-319h-299v319h-405v1404z" />
    <glyph glyph-name="afii10145" unicode="&#x40f;" horiz-adv-x="1396" 
d="M143 1404h328v-1146h454v1146h328v-1404h-406v-319h-299v319h-405v1404z" />
    <glyph glyph-name="afii10099" horiz-adv-x="1181" 
d="M112 1155l-121.997 0.00390625v141h122v108h305v-108h348v-141h-348v-281c35.333 56 79.166 98.333 131.499 127s113.166 43 182.499 43c47.333 0 91.5 -7.33301 132.5 -22s75.833 -37.334 104.5 -68.001c28 -29.333 49 -65.5 63 -108.5s21 -100.5 21 -172.5v-608
c0 -107.333 -7.5 -185.333 -22.5 -234s-39.5 -87.667 -73.5 -117c-24.667 -22 -58.334 -39.833 -101.001 -53.5s-91 -20.5 -145 -20.5c-26.667 0 -59.167 2.33301 -97.5 7s-73.5 10.667 -105.5 18v219c16.667 -4.66699 35.5 -8.33398 56.5 -11.001s40.5 -4 58.5 -4
c23.333 0 43.5 4.16699 60.5 12.5s30.167 20.166 39.5 35.499c8 11.333 14.167 29.166 18.5 53.499s6.5 54.5 6.5 90.5v584c0 37.333 -2.66699 67.5 -8 90.5s-13 41.167 -23 54.5c-10.667 14.667 -25.5 26.5 -44.5 35.5s-38.833 13.5 -59.5 13.5
c-56 0 -102.5 -23.5 -139.5 -70.5s-55.5 -108.167 -55.5 -183.5v-585h-305v1155z" />
    <glyph glyph-name="afii10099" unicode="&#x452;" horiz-adv-x="1181" 
d="M112 1155l-121.997 0.00390625v141h122v108h305v-108h348v-141h-348v-281c35.333 56 79.166 98.333 131.499 127s113.166 43 182.499 43c47.333 0 91.5 -7.33301 132.5 -22s75.833 -37.334 104.5 -68.001c28 -29.333 49 -65.5 63 -108.5s21 -100.5 21 -172.5v-608
c0 -107.333 -7.5 -185.333 -22.5 -234s-39.5 -87.667 -73.5 -117c-24.667 -22 -58.334 -39.833 -101.001 -53.5s-91 -20.5 -145 -20.5c-26.667 0 -59.167 2.33301 -97.5 7s-73.5 10.667 -105.5 18v219c16.667 -4.66699 35.5 -8.33398 56.5 -11.001s40.5 -4 58.5 -4
c23.333 0 43.5 4.16699 60.5 12.5s30.167 20.166 39.5 35.499c8 11.333 14.167 29.166 18.5 53.499s6.5 54.5 6.5 90.5v584c0 37.333 -2.66699 67.5 -8 90.5s-13 41.167 -23 54.5c-10.667 14.667 -25.5 26.5 -44.5 35.5s-38.833 13.5 -59.5 13.5
c-56 0 -102.5 -23.5 -139.5 -70.5s-55.5 -108.167 -55.5 -183.5v-585h-305v1155z" />
    <glyph glyph-name="afii10109" horiz-adv-x="1154" 
d="M129 1044l304.997 -0.00292969v-401h82c36.667 0 66.834 7.33301 90.501 22s42.5 37.334 56.5 68.001c14 30 27.5 70.667 40.5 122s26.167 89 39.5 113c12.667 23.333 27.334 41.166 44.001 53.499s34.667 19.833 54 22.5h252c-16 -16.667 -31 -35 -45 -55
s-25.667 -39.333 -35 -58c-13.333 -28 -29.5 -70.667 -48.5 -128s-30.167 -89.666 -33.5 -96.999c-16.667 -44 -38.334 -77.333 -65.001 -100s-61.667 -35.667 -105 -39v-4c34 -5.33301 64 -16.666 90 -33.999s48 -39.666 66 -66.999c10 -14.667 19.833 -32.667 29.5 -54
s24.5 -60 44.5 -116c12.667 -36 23.334 -65 32.001 -87l35 -87c14 -32 25.5 -55.667 34.5 -71s20.167 -31 33.5 -47h-287c-26 8 -47.333 23.667 -64 47s-32.667 58 -48 104c-9.33301 26 -18.666 54.5 -27.999 85.5s-17.333 54.5 -24 70.5l-14 37
c-13.333 33.333 -29.833 57.333 -49.5 72s-48.167 22 -85.5 22h-92v-438h-305v1044zM770.997 1560l76 -172l-418 -192l-51 116z" />
    <glyph glyph-name="afii10109" unicode="&#x45c;" horiz-adv-x="1154" 
d="M129 1044l304.997 -0.00292969v-401h82c36.667 0 66.834 7.33301 90.501 22s42.5 37.334 56.5 68.001c14 30 27.5 70.667 40.5 122s26.167 89 39.5 113c12.667 23.333 27.334 41.166 44.001 53.499s34.667 19.833 54 22.5h252c-16 -16.667 -31 -35 -45 -55
s-25.667 -39.333 -35 -58c-13.333 -28 -29.5 -70.667 -48.5 -128s-30.167 -89.666 -33.5 -96.999c-16.667 -44 -38.334 -77.333 -65.001 -100s-61.667 -35.667 -105 -39v-4c34 -5.33301 64 -16.666 90 -33.999s48 -39.666 66 -66.999c10 -14.667 19.833 -32.667 29.5 -54
s24.5 -60 44.5 -116c12.667 -36 23.334 -65 32.001 -87l35 -87c14 -32 25.5 -55.667 34.5 -71s20.167 -31 33.5 -47h-287c-26 8 -47.333 23.667 -64 47s-32.667 58 -48 104c-9.33301 26 -18.666 54.5 -27.999 85.5s-17.333 54.5 -24 70.5l-14 37
c-13.333 33.333 -29.833 57.333 -49.5 72s-48.167 22 -85.5 22h-92v-438h-305v1044zM770.997 1560l76 -172l-418 -192l-51 116z" />
    <glyph glyph-name="afii10108" horiz-adv-x="1202" 
d="M438 1404l0.00292969 -107.997h348v-141h-348v-281c35.333 56 79.166 98.333 131.499 127s112.833 43 181.5 43c47.333 0 91.5 -7.33301 132.5 -22s76.167 -37.334 105.5 -68.001c27.333 -29.333 48.166 -65.5 62.499 -108.5s21.5 -100.5 21.5 -172.5v-673h-305v645
c0 37.333 -2.66699 67.5 -8 90.5s-13 41.167 -23 54.5c-11.333 14.667 -26.5 26.5 -45.5 35.5s-38.833 13.5 -59.5 13.5c-15.333 0 -32.5 -3.33301 -51.5 -10s-36.5 -15.667 -52.5 -27c-30.667 -20.667 -53.334 -48.334 -68.001 -83.001s-22 -79.334 -22 -134.001v-585h-305
v1155h-123v141h123v108h305z" />
    <glyph glyph-name="afii10108" unicode="&#x45b;" horiz-adv-x="1202" 
d="M438 1404l0.00292969 -107.997h348v-141h-348v-281c35.333 56 79.166 98.333 131.499 127s112.833 43 181.5 43c47.333 0 91.5 -7.33301 132.5 -22s76.167 -37.334 105.5 -68.001c27.333 -29.333 48.166 -65.5 62.499 -108.5s21.5 -100.5 21.5 -172.5v-673h-305v645
c0 37.333 -2.66699 67.5 -8 90.5s-13 41.167 -23 54.5c-11.333 14.667 -26.5 26.5 -45.5 35.5s-38.833 13.5 -59.5 13.5c-15.333 0 -32.5 -3.33301 -51.5 -10s-36.5 -15.667 -52.5 -27c-30.667 -20.667 -53.334 -48.334 -68.001 -83.001s-22 -79.334 -22 -134.001v-585h-305
v1155h-123v141h123v108h305z" />
    <glyph glyph-name="afii10062" unicode="&#xa1;" horiz-adv-x="1325" 
d="M-14 1404l360.004 0.00195312l309 -671h4l270 671h289l-428 -1011c-36.667 -86.667 -68.5 -153.334 -95.5 -200.001s-53.833 -83.334 -80.5 -110.001c-34.667 -33.333 -75.834 -58.833 -123.501 -76.5s-104.834 -26.5 -171.501 -26.5c-25.333 0 -51.833 1.66699 -79.5 5
s-55.834 8.33301 -84.501 15v256c20 -6 41 -10.667 63 -14s42.667 -5 62 -5c25.333 0 49.166 2.83301 71.499 8.5s41.5 14.5 57.5 26.5c14 10 28 25 42 45s25.333 41.667 34 65zM267.004 1822h251.994c-1.33301 -35.333 10.834 -62.833 36.501 -82.5
s60.167 -29.5 103.5 -29.5c42.667 0 76.834 9.83301 102.501 29.5s37.834 47.167 36.501 82.5h252c-5.33301 -91.333 -43.666 -160.166 -114.999 -206.499s-163.333 -69.5 -276 -69.5c-113.333 0 -205.666 23.167 -276.999 69.5s-109.666 115.166 -114.999 206.499z" />
    <glyph glyph-name="afii10062" unicode="&#x40e;" horiz-adv-x="1325" 
d="M-14 1404l360.004 0.00195312l309 -671h4l270 671h289l-428 -1011c-36.667 -86.667 -68.5 -153.334 -95.5 -200.001s-53.833 -83.334 -80.5 -110.001c-34.667 -33.333 -75.834 -58.833 -123.501 -76.5s-104.834 -26.5 -171.501 -26.5c-25.333 0 -51.833 1.66699 -79.5 5
s-55.834 8.33301 -84.501 15v256c20 -6 41 -10.667 63 -14s42.667 -5 62 -5c25.333 0 49.166 2.83301 71.499 8.5s41.5 14.5 57.5 26.5c14 10 28 25 42 45s25.333 41.667 34 65zM267.004 1822h251.994c-1.33301 -35.333 10.834 -62.833 36.501 -82.5
s60.167 -29.5 103.5 -29.5c42.667 0 76.834 9.83301 102.501 29.5s37.834 47.167 36.501 82.5h252c-5.33301 -91.333 -43.666 -160.166 -114.999 -206.499s-163.333 -69.5 -276 -69.5c-113.333 0 -205.666 23.167 -276.999 69.5s-109.666 115.166 -114.999 206.499z" />
    <glyph glyph-name="afii10110" unicode="&#xa2;" horiz-adv-x="1005" 
d="M997 1044l-406.002 -1121c-19.333 -54 -39.666 -96.833 -60.999 -128.5s-46 -59.167 -74 -82.5c-32 -26.667 -66 -46 -102 -58s-81.667 -18 -137 -18c-26.667 0 -55.5 1.5 -86.5 4.5s-60.167 6.83301 -87.5 11.5v226c24.667 -4.66699 50.667 -8.33398 78 -11.001
s52.333 -4 75 -4c28 0 51.167 2.33301 69.5 7s33.5 11.334 45.5 20.001c12.667 10 24.334 24.5 35.001 43.5s18 37.167 22 54.5l6 26l-382 1030h335l211 -653l223 653h236zM685.998 1492h163.998c-4.66699 -46.667 -18.5 -91.167 -41.5 -133.5s-51.5 -75.5 -85.5 -99.5
c-27.333 -19.333 -57.833 -34 -91.5 -44s-70.834 -15 -111.501 -15s-77.834 5 -111.501 15s-64.167 24.667 -91.5 44c-34 24 -62.5 57.167 -85.5 99.5s-36.833 86.833 -41.5 133.5h164c0.666992 -20.667 5.83398 -40.667 15.501 -60s22.167 -34.666 37.5 -45.999
c12.667 -9.33301 28.334 -16.5 47.001 -21.5s40.667 -7.5 66 -7.5s47.333 2.5 66 7.5s34.334 12.167 47.001 21.5c15.333 11.333 27.833 26.666 37.5 45.999s14.834 39.333 15.501 60z" />
    <glyph glyph-name="afii10110" unicode="&#x45e;" horiz-adv-x="1005" 
d="M997 1044l-406.002 -1121c-19.333 -54 -39.666 -96.833 -60.999 -128.5s-46 -59.167 -74 -82.5c-32 -26.667 -66 -46 -102 -58s-81.667 -18 -137 -18c-26.667 0 -55.5 1.5 -86.5 4.5s-60.167 6.83301 -87.5 11.5v226c24.667 -4.66699 50.667 -8.33398 78 -11.001
s52.333 -4 75 -4c28 0 51.167 2.33301 69.5 7s33.5 11.334 45.5 20.001c12.667 10 24.334 24.5 35.001 43.5s18 37.167 22 54.5l6 26l-382 1030h335l211 -653l223 653h236zM685.998 1492h163.998c-4.66699 -46.667 -18.5 -91.167 -41.5 -133.5s-51.5 -75.5 -85.5 -99.5
c-27.333 -19.333 -57.833 -34 -91.5 -44s-70.834 -15 -111.501 -15s-77.834 5 -111.501 15s-64.167 24.667 -91.5 44c-34 24 -62.5 57.167 -85.5 99.5s-36.833 86.833 -41.5 133.5h164c0.666992 -20.667 5.83398 -40.667 15.501 -60s22.167 -34.666 37.5 -45.999
c12.667 -9.33301 28.334 -16.5 47.001 -21.5s40.667 -7.5 66 -7.5s47.333 2.5 66 7.5s34.334 12.167 47.001 21.5c15.333 11.333 27.833 26.666 37.5 45.999s14.834 39.333 15.501 60z" />
    <glyph glyph-name="afii10057" unicode="&#xa3;" horiz-adv-x="839" 
d="M696 1404l0.000976562 -905c0 -96 -6.33301 -172.333 -19 -229s-33.667 -105.334 -63 -146.001c-36.667 -50 -84.167 -86.5 -142.5 -109.5s-134.5 -34.5 -228.5 -34.5c-43.333 0 -83.333 1.83301 -120 5.5s-73 9.16699 -109 16.5v254
c29.333 -6 57.666 -10.667 84.999 -14s52.333 -5 75 -5c32.667 0 61.834 5.33301 87.501 16s46.167 25 61.5 43c15.333 18.667 26.666 42.834 33.999 72.501s11 71.167 11 124.5v911h328z" />
    <glyph glyph-name="afii10057" unicode="&#x408;" horiz-adv-x="839" 
d="M696 1404l0.000976562 -905c0 -96 -6.33301 -172.333 -19 -229s-33.667 -105.334 -63 -146.001c-36.667 -50 -84.167 -86.5 -142.5 -109.5s-134.5 -34.5 -228.5 -34.5c-43.333 0 -83.333 1.83301 -120 5.5s-73 9.16699 -109 16.5v254
c29.333 -6 57.666 -10.667 84.999 -14s52.333 -5 75 -5c32.667 0 61.834 5.33301 87.501 16s46.167 25 61.5 43c15.333 18.667 26.666 42.834 33.999 72.501s11 71.167 11 124.5v911h328z" />
    <glyph glyph-name="currency" unicode="&#xa4;" horiz-adv-x="1189" 
d="M135 301l96 94c-23.333 31.333 -41.833 67.833 -55.5 109.5s-20.5 84.834 -20.5 129.501s6.83301 88 20.5 130s32.167 78.667 55.5 110l-96 94l118 119l97 -94c38 26 78 45.833 120 59.5s83 20.5 123 20.5c40.667 0 82 -6.83301 124 -20.5s82 -33.5 120 -59.5l96 94
l119 -119l-96 -94c23.333 -31.333 41.833 -68 55.5 -110s20.5 -85.333 20.5 -130s-6.83301 -87.834 -20.5 -129.501s-32.167 -78.167 -55.5 -109.5l96 -94l-119 -119l-96 94c-38 -26 -78 -45.833 -120 -59.5s-83.333 -20.5 -124 -20.5c-40 0 -81 6.83301 -123 20.5
s-82 33.5 -120 59.5l-97 -94zM335 634c0 -70.667 25.333 -131.334 76 -182.001s111.334 -76 182.001 -76c71.333 0 132.166 25.333 182.499 76s75.5 111.334 75.5 182.001c0 71.333 -25.167 132.166 -75.5 182.499s-111.166 75.5 -182.499 75.5
c-70.667 0 -131.334 -25.167 -182.001 -75.5s-76 -111.166 -76 -182.499z" />
    <glyph glyph-name="CyrHardG" unicode="&#xa5;" horiz-adv-x="1089" 
d="M147 1404h655v211h267v-469h-594v-1146h-328v1404z" />
    <glyph glyph-name="CyrHardG" unicode="&#x490;" horiz-adv-x="1089" 
d="M147 1404h655v211h267v-469h-594v-1146h-328v1404z" />
    <glyph glyph-name="brokenbar" unicode="&#xa6;" horiz-adv-x="622" 
d="M428 561v-561h-234v561h234zM428 1404v-561h-234v561h234z" />
    <glyph glyph-name="section" unicode="&#xa7;" horiz-adv-x="1245" 
d="M1067 1165l-215.998 -48.9932c-19.333 41.333 -48.333 73.166 -87 95.499s-86.667 33.5 -144 33.5c-55.333 0 -97.166 -11.167 -125.499 -33.5s-42.5 -50.166 -42.5 -83.499c0 -9.33301 1.66699 -19.333 5 -30s8 -20.334 14 -29.001
c6.66699 -10.667 16 -20.834 28 -30.501s66.667 -32.5 164 -68.5l100 -37c51.333 -18.667 91.833 -34.834 121.5 -48.501s53.5 -26.834 71.5 -39.501c44 -30.667 77.167 -68 99.5 -112s33.5 -90 33.5 -138c0 -50.667 -12.167 -99.834 -36.5 -147.501
s-57.833 -91.167 -100.5 -130.5c54 -29.333 95.833 -68.333 125.5 -117s44.5 -102.667 44.5 -162c0 -57.333 -15.167 -112.833 -45.5 -166.5s-70.5 -98.167 -120.5 -133.5c-44 -30.667 -94.167 -53.334 -150.5 -68.001s-116.833 -22 -181.5 -22
c-118.667 0 -221.667 25.333 -309 76s-151.666 127.667 -192.999 231l254 41c24 -53.333 59.167 -93.5 105.5 -120.5s97.166 -40.5 152.499 -40.5c60.667 0 112 14 154 42s63 63.667 63 107c0 38.667 -17.5 72 -52.5 100s-89.833 53 -164.5 75l-96 29
c-78.667 23.333 -144.334 49 -197.001 77s-93.334 60.333 -122.001 97c-20 25.333 -36 54.333 -48 87s-18 65.667 -18 99c0 53.333 13.333 106.666 40 159.999s64.667 99 114 137c-42.667 30 -74.5 65.833 -95.5 107.5s-31.5 86.5 -31.5 134.5
c0 54.667 11.167 102.667 33.5 144s54.166 77.333 95.499 108c40.667 30 86 51.833 136 65.5s106.333 20.5 169 20.5c112.667 0 207.167 -21.5 283.5 -64.5s132.833 -108.167 169.5 -195.5zM634.002 706.007l-133 50.999c-30 -16.667 -54.167 -38 -72.5 -64
s-27.5 -52.333 -27.5 -79c0 -14.667 3.33301 -29 10 -43s15.667 -27 27 -39c10 -10.667 22.667 -20.667 38 -30s58 -26.666 128 -51.999l141 -51c27.333 14.667 50.166 34.834 68.499 60.501s27.5 52.5 27.5 80.5c0 18 -3.33301 33.5 -10 46.5s-17 24.833 -31 35.5
c-12.667 10 -37.167 24.167 -73.5 42.5s-67.166 32.166 -92.499 41.499z" />
    <glyph glyph-name="afii10023" unicode="&#xa8;" horiz-adv-x="1198" 
d="M143 1404h989v-258h-661v-303h528v-237h-528v-348h669v-258h-997v1404zM536 1783v-237h-250v237h250zM983 1783v-237h-250v237h250z" />
    <glyph glyph-name="afii10023" unicode="&#x401;" horiz-adv-x="1198" 
d="M143 1404h989v-258h-661v-303h528v-237h-528v-348h669v-258h-997v1404zM536 1783v-237h-250v237h250zM983 1783v-237h-250v237h250z" />
    <glyph glyph-name="copyright" unicode="&#xa9;" horiz-adv-x="1667" 
d="M73 700c0 200.667 70.667 371.667 212 513s312.333 212 513 212c201.333 0 372.5 -70.667 513.5 -212s211.5 -312.333 211.5 -513s-70.5 -371.5 -211.5 -512.5s-312.167 -211.5 -513.5 -211.5c-200.667 0 -371.667 70.5 -513 211.5s-212 311.833 -212 512.5zM208 700
c0 -168 57.333 -310 172 -426s254 -174 418 -174s303.333 58 418 174s172 258 172 426c0 167.333 -57.333 309.166 -172 425.499s-254 174.5 -418 174.5s-303.333 -58.167 -418 -174.5s-172 -258.166 -172 -425.499zM1185 811l-221.001 -15
c1.33301 50 -9.83398 92.5 -33.501 127.5s-59.5 52.5 -107.5 52.5c-57.333 0 -100 -22.5 -128 -67.5s-42 -114.5 -42 -208.5c0 -98 12.667 -167.5 38 -208.5s67.333 -61.5 126 -61.5c46.667 0 84.334 14.667 113.001 44s45.334 67 50.001 113l205 -12
c-14 -96.667 -54 -171.667 -120 -225s-149.333 -80 -250 -80c-121.333 0 -218 39.5 -290 118.5s-108 183.5 -108 313.5c0 122 34.667 224.5 104 307.5s169.333 124.5 300 124.5c102 0 184.833 -26.333 248.5 -79s102.167 -134 115.5 -244z" />
    <glyph glyph-name="afii10053" unicode="&#xaa;" horiz-adv-x="1333" 
d="M1263 991l-303 -55.998c-18 76 -51.167 135.667 -99.5 179s-105.833 65 -172.5 65c-80.667 0 -144.5 -31 -191.5 -93s-69.167 -143.667 -66.5 -245h405v-239h-407c-2.66699 -80.667 10.833 -152.334 40.5 -215.001s67.834 -106.334 114.501 -131.001
c16 -8.66699 34.167 -15.334 54.5 -20.001s43.166 -7 68.499 -7c66 0 121.833 20.667 167.5 62s76.5 92.333 92.5 153l305 -57c-28 -128.667 -91.333 -228.667 -190 -300s-225 -107 -379 -107c-148.667 0 -270 36 -364 108s-162.333 171.667 -205 299
c-18.667 54 -33 107.833 -43 161.5s-15 106.834 -15 159.501c0 58.667 2.5 110.5 7.5 155.5s12.833 86.833 23.5 125.5c40 146 110.667 255.167 212 327.5s222.333 108.5 363 108.5c160.667 0 289.667 -40 387 -120s162.333 -184.667 195 -314z" />
    <glyph glyph-name="afii10053" unicode="&#x404;" horiz-adv-x="1333" 
d="M1263 991l-303 -55.998c-18 76 -51.167 135.667 -99.5 179s-105.833 65 -172.5 65c-80.667 0 -144.5 -31 -191.5 -93s-69.167 -143.667 -66.5 -245h405v-239h-407c-2.66699 -80.667 10.833 -152.334 40.5 -215.001s67.834 -106.334 114.501 -131.001
c16 -8.66699 34.167 -15.334 54.5 -20.001s43.166 -7 68.499 -7c66 0 121.833 20.667 167.5 62s76.5 92.333 92.5 153l305 -57c-28 -128.667 -91.333 -228.667 -190 -300s-225 -107 -379 -107c-148.667 0 -270 36 -364 108s-162.333 171.667 -205 299
c-18.667 54 -33 107.833 -43 161.5s-15 106.834 -15 159.501c0 58.667 2.5 110.5 7.5 155.5s12.833 86.833 23.5 125.5c40 146 110.667 255.167 212 327.5s222.333 108.5 363 108.5c160.667 0 289.667 -40 387 -120s162.333 -184.667 195 -314z" />
    <glyph glyph-name="guillemotleft" unicode="&#xab;" horiz-adv-x="763" 
d="M264 526l108 -289h-125l-176 289l176 295h125zM569 526l108 -289h-125l-176 289l176 295h125z" />
    <glyph glyph-name="logicalnot" unicode="&#xac;" horiz-adv-x="1294" 
d="M1189 911v-623h-237v385h-848v238h1085z" />
    <glyph glyph-name="registered" unicode="&#xae;" horiz-adv-x="1622" 
d="M86 700c0 200.667 70.5 371.667 211.5 513s312.167 212 513.5 212c200.667 0 371.667 -70.667 513 -212s212 -312.333 212 -513s-70.667 -371.5 -212 -512.5s-312.333 -211.5 -513 -211.5c-201.333 0 -372.5 70.5 -513.5 211.5s-211.5 311.833 -211.5 512.5zM221 700
c0 -168 57.167 -310 171.5 -426s253.833 -174 418.5 -174c164 0 303.167 58 417.5 174s171.5 258 171.5 426c0 167.333 -57.167 309.166 -171.5 425.499s-253.5 174.5 -417.5 174.5c-164.667 0 -304.167 -58.167 -418.5 -174.5s-171.5 -258.166 -171.5 -425.499zM688 616
l-0.000976562 -333.998h-220v840h379c58 0 104.5 -4.33301 139.5 -13s65.833 -22.667 92.5 -42c30.667 -23.333 54.334 -52.833 71.001 -88.5s25 -71.834 25 -108.501c0 -52 -14 -97.833 -42 -137.5s-63.667 -66.834 -107 -81.501l161 -369h-241l-135 334h-123z
M687.999 968.002l0.00195312 -205.001h135c22 0 41.167 2.33301 57.5 7s29.833 12 40.5 22c10 8.66699 17.667 19.334 23 32.001s8 28 8 46c0 17.333 -2.83301 32 -8.5 44s-14.5 22.667 -26.5 32c-10.667 8 -22.834 13.667 -36.501 17s-30.834 5 -51.501 5h-141z" />
    <glyph glyph-name="afii10056" unicode="&#xaf;" horiz-adv-x="724" 
d="M526 1404v-1404h-328v1404h328zM684 1783v-237h-226v237h226zM266 1783v-237h-226v237h226z" />
    <glyph glyph-name="afii10056" unicode="&#x407;" horiz-adv-x="724" 
d="M526 1404v-1404h-328v1404h328zM684 1783v-237h-226v237h226zM266 1783v-237h-226v237h226z" />
    <glyph glyph-name="degree" unicode="&#xb0;" horiz-adv-x="1277" 
d="M331 1118c0 84.667 30 157 90 217s132.333 90 217 90c85.333 0 158 -30 218 -90s90 -132.333 90 -217c0 -85.333 -30 -157.833 -90 -217.5s-132.667 -89.5 -218 -89.5c-84.667 0 -157 29.833 -217 89.5s-90 132.167 -90 217.5zM487 1118
c0 -42 14.833 -77.833 44.5 -107.5s65.167 -44.5 106.5 -44.5c42 0 77.833 14.833 107.5 44.5s44.5 65.5 44.5 107.5c0 41.333 -14.833 76.833 -44.5 106.5s-65.5 44.5 -107.5 44.5c-41.333 0 -76.833 -14.833 -106.5 -44.5s-44.5 -65.167 -44.5 -106.5z" />
    <glyph glyph-name="plusminus" unicode="&#xb1;" horiz-adv-x="1314" 
d="M538 1359h238v-407h407v-238h-407v-407h-238v407h-407v238h407v407zM131 0v237h1052v-237h-1052z" />
    <glyph glyph-name="afii10055" unicode="&#xb2;" horiz-adv-x="614" 
d="M471 1404v-1404h-328v1404h328z" />
    <glyph glyph-name="afii10055" unicode="&#x406;" horiz-adv-x="614" 
d="M471 1404v-1404h-328v1404h328z" />
    <glyph glyph-name="afii10103" unicode="&#xb3;" horiz-adv-x="571" 
d="M438 1044v-1044h-305v1044h305zM442 1417v-240h-313v240h313z" />
    <glyph glyph-name="afii10103" unicode="&#x456;" horiz-adv-x="571" 
d="M438 1044v-1044h-305v1044h305zM442 1417v-240h-313v240h313z" />
    <glyph glyph-name="cyrhardg" unicode="&#xb4;" horiz-adv-x="917" 
d="M129 1044h563v156h205v-371h-463v-829h-305v1044z" />
    <glyph glyph-name="cyrhardg" unicode="&#x491;" horiz-adv-x="917" 
d="M129 1044h563v156h205v-371h-463v-829h-305v1044z" />
    <glyph glyph-name="mu" unicode="&#xb5;" horiz-adv-x="1193" 
d="M1064 1044l0.000976562 -1044h-286v186h-4c-28.667 -63.333 -68 -111.166 -118 -143.499s-105.667 -48.5 -167 -48.5c-8.66699 0 -17.667 0.666992 -27 2l-28 4v-333h-305v1377h305v-635c0 -70 10.167 -120.333 30.5 -151s55.166 -46 104.499 -46
c57.333 0 103.333 23 138 69s52 105.667 52 179v584h305z" />
    <glyph glyph-name="paragraph" unicode="&#xb6;" horiz-adv-x="1124" 
d="M1089 1404v-149h-129v-1607h-162v1607h-160v-1607h-161v837c-44 2 -85.833 9.66699 -125.5 23s-75.167 31 -106.5 53c-60.667 42 -107.167 96.333 -139.5 163s-48.5 135.667 -48.5 207c0 63.333 10 123.5 30 180.5s51 108.167 93 153.5c48 51.333 100.5 87.333 157.5 108
s130.167 31 219.5 31h532z" />
    <glyph glyph-name="afii10071" unicode="&#xb8;" horiz-adv-x="1177" 
d="M813 346l286 -27.001c-14.667 -52 -36.667 -98.667 -66 -140s-64.666 -76.666 -105.999 -105.999c-42 -29.333 -91.167 -52.166 -147.5 -68.499s-118.5 -24.5 -186.5 -24.5c-72.667 0 -141.5 12 -206.5 36s-121.5 60 -169.5 108c-48 47.333 -85 104.666 -111 171.999
s-39 142 -39 224c0 94 16.333 176.667 49 248s77.667 131.333 135 180c44.667 37.333 95 66 151 86s120.333 30 193 30c82.667 0 157.5 -15 224.5 -45s123.5 -73 169.5 -129c39.333 -48 69.333 -104.333 90 -169s31 -133.667 31 -207v-54h-723
c-1.33301 -29.333 1 -58.666 7 -87.999s15 -55.333 27 -78c20 -36.667 45.667 -64.167 77 -82.5s68 -27.5 110 -27.5c31.333 0 60.166 5.16699 86.499 15.5s48.5 24.833 66.5 43.5c12.667 13.333 23.5 28.666 32.5 45.999s15.5 36.333 19.5 57zM387 633.999
l409.001 0.00195312c0.666992 26 -2.33301 52 -9 78s-17.334 49.333 -32.001 70c-18 25.333 -40.167 44.666 -66.5 57.999s-55.833 20 -88.5 20c-32 0 -61.333 -5.83301 -88 -17.5s-49.334 -27.834 -68.001 -48.501c-18 -19.333 -32.167 -43 -42.5 -71
s-15.166 -57.667 -14.499 -89zM501.001 1433v-237h-250v237h250zM925.001 1433v-237h-250v237h250z" />
    <glyph glyph-name="afii10071" unicode="&#x451;" horiz-adv-x="1177" 
d="M813 346l286 -27.001c-14.667 -52 -36.667 -98.667 -66 -140s-64.666 -76.666 -105.999 -105.999c-42 -29.333 -91.167 -52.166 -147.5 -68.499s-118.5 -24.5 -186.5 -24.5c-72.667 0 -141.5 12 -206.5 36s-121.5 60 -169.5 108c-48 47.333 -85 104.666 -111 171.999
s-39 142 -39 224c0 94 16.333 176.667 49 248s77.667 131.333 135 180c44.667 37.333 95 66 151 86s120.333 30 193 30c82.667 0 157.5 -15 224.5 -45s123.5 -73 169.5 -129c39.333 -48 69.333 -104.333 90 -169s31 -133.667 31 -207v-54h-723
c-1.33301 -29.333 1 -58.666 7 -87.999s15 -55.333 27 -78c20 -36.667 45.667 -64.167 77 -82.5s68 -27.5 110 -27.5c31.333 0 60.166 5.16699 86.499 15.5s48.5 24.833 66.5 43.5c12.667 13.333 23.5 28.666 32.5 45.999s15.5 36.333 19.5 57zM387 633.999
l409.001 0.00195312c0.666992 26 -2.33301 52 -9 78s-17.334 49.333 -32.001 70c-18 25.333 -40.167 44.666 -66.5 57.999s-55.833 20 -88.5 20c-32 0 -61.333 -5.83301 -88 -17.5s-49.334 -27.834 -68.001 -48.501c-18 -19.333 -32.167 -43 -42.5 -71
s-15.166 -57.667 -14.499 -89zM501.001 1433v-237h-250v237h250zM925.001 1433v-237h-250v237h250z" />
    <glyph glyph-name="afii61352" unicode="&#xb9;" horiz-adv-x="2086" 
d="M483 1404l553 -926.999h4c-7.33301 28 -13 58.167 -17 90.5s-6 62.166 -6 89.499v747h271v-1404h-283l-547 921l-59 115h-4c3.33301 -30 7.83301 -55.333 13.5 -76s8.5 -61.667 8.5 -123v-837h-270v1404h336zM1708 1404c39.333 0 77.167 -8 113.5 -24s66.5 -38 90.5 -66
c27.333 -30.667 47.833 -69.167 61.5 -115.5s20.5 -97.833 20.5 -154.5c0 -119.333 -27 -209.166 -81 -269.499s-122.333 -90.5 -205 -90.5c-83.333 0 -152 30.167 -206 90.5s-81 150.166 -81 269.499c0 56.667 6.83301 108.167 20.5 154.5s34.167 84.833 61.5 115.5
c24 28 54.167 50 90.5 66s74.5 24 114.5 24zM1708 1269c-18.667 0 -35.334 -5.16699 -50.001 -15.5s-26 -24.833 -34 -43.5c-7.33301 -16.667 -13.333 -40.5 -18 -71.5s-7 -62.5 -7 -94.5s2.33301 -63.667 7 -95s10.667 -55 18 -71c8 -18.667 19.333 -33.167 34 -43.5
s31.334 -15.5 50.001 -15.5c18 0 34.333 5.16699 49 15.5s26.334 24.833 35.001 43.5c7.33301 16 13.166 39.667 17.499 71s6.5 63 6.5 95s-2.16699 63.5 -6.5 94.5s-10.166 54.833 -17.499 71.5c-8.66699 18.667 -20.334 33.167 -35.001 43.5s-31 15.5 -49 15.5z
M1441 557.001h533v-166h-533v166z" />
    <glyph glyph-name="afii61352" unicode="&#x2116;" horiz-adv-x="2086" 
d="M483 1404l553 -926.999h4c-7.33301 28 -13 58.167 -17 90.5s-6 62.166 -6 89.499v747h271v-1404h-283l-547 921l-59 115h-4c3.33301 -30 7.83301 -55.333 13.5 -76s8.5 -61.667 8.5 -123v-837h-270v1404h336zM1708 1404c39.333 0 77.167 -8 113.5 -24s66.5 -38 90.5 -66
c27.333 -30.667 47.833 -69.167 61.5 -115.5s20.5 -97.833 20.5 -154.5c0 -119.333 -27 -209.166 -81 -269.499s-122.333 -90.5 -205 -90.5c-83.333 0 -152 30.167 -206 90.5s-81 150.166 -81 269.499c0 56.667 6.83301 108.167 20.5 154.5s34.167 84.833 61.5 115.5
c24 28 54.167 50 90.5 66s74.5 24 114.5 24zM1708 1269c-18.667 0 -35.334 -5.16699 -50.001 -15.5s-26 -24.833 -34 -43.5c-7.33301 -16.667 -13.333 -40.5 -18 -71.5s-7 -62.5 -7 -94.5s2.33301 -63.667 7 -95s10.667 -55 18 -71c8 -18.667 19.333 -33.167 34 -43.5
s31.334 -15.5 50.001 -15.5c18 0 34.333 5.16699 49 15.5s26.334 24.833 35.001 43.5c7.33301 16 13.166 39.667 17.499 71s6.5 63 6.5 95s-2.16699 63.5 -6.5 94.5s-10.166 54.833 -17.499 71.5c-8.66699 18.667 -20.334 33.167 -35.001 43.5s-31 15.5 -49 15.5z
M1441 557.001h533v-166h-533v166z" />
    <glyph glyph-name="afii10101" unicode="&#xba;" horiz-adv-x="1136" 
d="M1060 741l-270.002 -38.9961c-5.33301 20.667 -13.666 40 -24.999 58s-25.666 34 -42.999 48c-20 17.333 -42 30.333 -66 39s-49.667 13 -77 13c-32.667 0 -61.667 -6.66699 -87 -20s-46.666 -32.666 -63.999 -57.999c-13.333 -19.333 -23.833 -42.833 -31.5 -70.5
s-10.834 -56.167 -9.50098 -85.5h315v-174h-315c-2 -34 0.666992 -67.5 8 -100.5s18.333 -60.833 33 -83.5c18.667 -29.333 41 -50.666 67 -63.999s55.333 -20 88 -20c32 0 59.5 4 82.5 12s44.833 21.667 65.5 41c14.667 14 27.334 30 38.001 48s18.334 37.667 23.001 59
l277 -37c-13.333 -54.667 -36 -103.834 -68 -147.501s-71.667 -79.834 -119 -108.501c-40.667 -25.333 -85.834 -43.5 -135.501 -54.5s-104.834 -16.5 -165.501 -16.5c-87.333 0 -162.833 13 -226.5 39s-118.5 68 -164.5 126c-38 47.333 -68 106.666 -90 177.999
s-33 143.666 -33 216.999c0 76 12.167 148.5 36.5 217.5s60.5 127.5 108.5 175.5c46 45.333 98.167 78.5 156.5 99.5s123.833 31.5 196.5 31.5c68.667 0 130.667 -8.33301 186 -25s104 -40.334 146 -71.001c38 -27.333 71 -60.333 99 -99s49.333 -81.334 64 -128.001z" />
    <glyph glyph-name="afii10101" unicode="&#x454;" horiz-adv-x="1136" 
d="M1060 741l-270.002 -38.9961c-5.33301 20.667 -13.666 40 -24.999 58s-25.666 34 -42.999 48c-20 17.333 -42 30.333 -66 39s-49.667 13 -77 13c-32.667 0 -61.667 -6.66699 -87 -20s-46.666 -32.666 -63.999 -57.999c-13.333 -19.333 -23.833 -42.833 -31.5 -70.5
s-10.834 -56.167 -9.50098 -85.5h315v-174h-315c-2 -34 0.666992 -67.5 8 -100.5s18.333 -60.833 33 -83.5c18.667 -29.333 41 -50.666 67 -63.999s55.333 -20 88 -20c32 0 59.5 4 82.5 12s44.833 21.667 65.5 41c14.667 14 27.334 30 38.001 48s18.334 37.667 23.001 59
l277 -37c-13.333 -54.667 -36 -103.834 -68 -147.501s-71.667 -79.834 -119 -108.501c-40.667 -25.333 -85.834 -43.5 -135.501 -54.5s-104.834 -16.5 -165.501 -16.5c-87.333 0 -162.833 13 -226.5 39s-118.5 68 -164.5 126c-38 47.333 -68 106.666 -90 177.999
s-33 143.666 -33 216.999c0 76 12.167 148.5 36.5 217.5s60.5 127.5 108.5 175.5c46 45.333 98.167 78.5 156.5 99.5s123.833 31.5 196.5 31.5c68.667 0 130.667 -8.33301 186 -25s104 -40.334 146 -71.001c38 -27.333 71 -60.333 99 -99s49.333 -81.334 64 -128.001z" />
    <glyph glyph-name="guillemotright" unicode="&#xbb;" horiz-adv-x="763" 
d="M194 526l-108 295h124l177 -295l-177 -289h-124zM499 526l-108 295h125l176 -295l-176 -289h-125z" />
    <glyph glyph-name="afii10105" unicode="&#xbc;" horiz-adv-x="589" 
d="M456 1044l-0.00292969 -1012c0 -82.667 -7.5 -148.834 -22.5 -198.501s-39.5 -89.5 -73.5 -119.5c-26.667 -24 -60.167 -42.333 -100.5 -55s-88.166 -19 -143.499 -19c-29.333 0 -59.166 1.5 -89.499 4.5s-60.833 7.5 -91.5 13.5v230c14 -3.33301 27.167 -5.5 39.5 -6.5
s24.833 -1.5 37.5 -1.5c32.667 0 57.334 3.83301 74.001 11.5s30 19.5 40 35.5c9.33301 13.333 15.833 29.333 19.5 48s5.5 45.334 5.5 80.001v989h305zM459.997 1417v-240h-313v240h313z" />
    <glyph glyph-name="afii10105" unicode="&#x458;" horiz-adv-x="589" 
d="M456 1044l-0.00292969 -1012c0 -82.667 -7.5 -148.834 -22.5 -198.501s-39.5 -89.5 -73.5 -119.5c-26.667 -24 -60.167 -42.333 -100.5 -55s-88.166 -19 -143.499 -19c-29.333 0 -59.166 1.5 -89.499 4.5s-60.833 7.5 -91.5 13.5v230c14 -3.33301 27.167 -5.5 39.5 -6.5
s24.833 -1.5 37.5 -1.5c32.667 0 57.334 3.83301 74.001 11.5s30 19.5 40 35.5c9.33301 13.333 15.833 29.333 19.5 48s5.5 45.334 5.5 80.001v989h305zM459.997 1417v-240h-313v240h313z" />
    <glyph glyph-name="afii10054" unicode="&#xbd;" horiz-adv-x="1302" 
d="M1183 1081l-278.004 -81.9961c-6 22.667 -15 43.667 -27 63s-28.333 37.333 -49 54c-26.667 21.333 -55.667 37.166 -87 47.499s-69.333 15.5 -114 15.5c-66 0 -115.5 -13.333 -148.5 -40s-49.5 -61 -49.5 -103c0 -34 13.333 -62.5 40 -85.5s74.667 -42.5 144 -58.5
l174 -38c77.333 -17.333 137.5 -35.333 180.5 -54s80.5 -40.334 112.5 -65.001c46.667 -37.333 82.5 -81.5 107.5 -132.5s37.5 -107.833 37.5 -170.5c0 -68 -14.5 -130.167 -43.5 -186.5s-69.833 -104.833 -122.5 -145.5c-51.333 -40 -112.166 -70 -182.499 -90
s-147.166 -30 -230.499 -30c-162 0 -296.5 35.833 -403.5 107.5s-178.167 172.834 -213.5 303.501l303 53c13.333 -36.667 32.333 -70.834 57 -102.501s51.667 -56.167 81 -73.5c23.333 -14.667 49.5 -25.5 78.5 -32.5s64.833 -10.5 107.5 -10.5
c73.333 0 129.833 13.667 169.5 41s59.5 64.666 59.5 111.999c0 39.333 -15.5 74 -46.5 104s-79.5 52 -145.5 66l-187 41c-40.667 9.33301 -86.167 24.5 -136.5 45.5s-90.833 42.833 -121.5 65.5c-47.333 35.333 -83.666 77.666 -108.999 126.999s-38 105.333 -38 168
c0 136 50 241.667 150 317s231 113 393 113c70 0 131.667 -6.83301 185 -20.5s101.333 -33.5 144 -59.5c49.333 -29.333 91.833 -66 127.5 -110s62.834 -95.333 81.501 -154z" />
    <glyph glyph-name="afii10054" unicode="&#x405;" horiz-adv-x="1302" 
d="M1183 1081l-278.004 -81.9961c-6 22.667 -15 43.667 -27 63s-28.333 37.333 -49 54c-26.667 21.333 -55.667 37.166 -87 47.499s-69.333 15.5 -114 15.5c-66 0 -115.5 -13.333 -148.5 -40s-49.5 -61 -49.5 -103c0 -34 13.333 -62.5 40 -85.5s74.667 -42.5 144 -58.5
l174 -38c77.333 -17.333 137.5 -35.333 180.5 -54s80.5 -40.334 112.5 -65.001c46.667 -37.333 82.5 -81.5 107.5 -132.5s37.5 -107.833 37.5 -170.5c0 -68 -14.5 -130.167 -43.5 -186.5s-69.833 -104.833 -122.5 -145.5c-51.333 -40 -112.166 -70 -182.499 -90
s-147.166 -30 -230.499 -30c-162 0 -296.5 35.833 -403.5 107.5s-178.167 172.834 -213.5 303.501l303 53c13.333 -36.667 32.333 -70.834 57 -102.501s51.667 -56.167 81 -73.5c23.333 -14.667 49.5 -25.5 78.5 -32.5s64.833 -10.5 107.5 -10.5
c73.333 0 129.833 13.667 169.5 41s59.5 64.666 59.5 111.999c0 39.333 -15.5 74 -46.5 104s-79.5 52 -145.5 66l-187 41c-40.667 9.33301 -86.167 24.5 -136.5 45.5s-90.833 42.833 -121.5 65.5c-47.333 35.333 -83.666 77.666 -108.999 126.999s-38 105.333 -38 168
c0 136 50 241.667 150 317s231 113 393 113c70 0 131.667 -6.83301 185 -20.5s101.333 -33.5 144 -59.5c49.333 -29.333 91.833 -66 127.5 -110s62.834 -95.333 81.501 -154z" />
    <glyph glyph-name="afii10102" unicode="&#xbe;" horiz-adv-x="1067" 
d="M970 798l-242.996 -50.999c-8.66699 17.333 -19 33.833 -31 49.5s-24.333 28.5 -37 38.5c-17.333 13.333 -37 23.5 -59 30.5s-50 10.5 -84 10.5c-25.333 0 -47.333 -1.83301 -66 -5.5s-34.334 -8.5 -47.001 -14.5c-18 -9.33301 -31.667 -21.5 -41 -36.5
s-14 -30.833 -14 -47.5c0 -26 10.333 -47 31 -63s54.667 -27.333 102 -34l172 -24c69.333 -10 126.333 -24.667 171 -44s81 -43 109 -71c27.333 -26.667 47.833 -57.834 61.5 -93.501s20.5 -74.167 20.5 -115.5c0 -55.333 -12 -104.833 -36 -148.5
s-57.667 -80.834 -101 -111.501c-40 -28 -89.833 -49.5 -149.5 -64.5s-127.167 -22.5 -202.5 -22.5c-70 0 -135 7.5 -195 22.5s-113 39.167 -159 72.5c-36.667 26 -67.834 56.833 -93.501 92.5s-45.167 74.5 -58.5 116.5l258 39c6 -20.667 14.667 -39.667 26 -57
s25.333 -32.333 42 -45c22 -17.333 49.333 -30.666 82 -39.999s66 -14 100 -14c29.333 0 58.666 3 87.999 9s52 14 68 24c14 9.33301 24.667 20.666 32 33.999s11 28.666 11 45.999c0 26 -9.33301 47.5 -28 64.5s-58 30.5 -118 40.5l-149 24
c-68 11.333 -122.5 25.333 -163.5 42s-75.5 37 -103.5 61c-32 27.333 -56.333 60.333 -73 99s-25 79.334 -25 122.001c0 50 12.667 97.667 38 143s59.666 83 102.999 113c39.333 26 85.5 45 138.5 57s112.833 18 179.5 18c76 0 139 -7.66699 189 -23s94 -38.333 132 -69
c28.667 -22 53.5 -47.667 74.5 -77s37.167 -61.666 48.5 -96.999z" />
    <glyph glyph-name="afii10102" unicode="&#x455;" horiz-adv-x="1067" 
d="M970 798l-242.996 -50.999c-8.66699 17.333 -19 33.833 -31 49.5s-24.333 28.5 -37 38.5c-17.333 13.333 -37 23.5 -59 30.5s-50 10.5 -84 10.5c-25.333 0 -47.333 -1.83301 -66 -5.5s-34.334 -8.5 -47.001 -14.5c-18 -9.33301 -31.667 -21.5 -41 -36.5
s-14 -30.833 -14 -47.5c0 -26 10.333 -47 31 -63s54.667 -27.333 102 -34l172 -24c69.333 -10 126.333 -24.667 171 -44s81 -43 109 -71c27.333 -26.667 47.833 -57.834 61.5 -93.501s20.5 -74.167 20.5 -115.5c0 -55.333 -12 -104.833 -36 -148.5
s-57.667 -80.834 -101 -111.501c-40 -28 -89.833 -49.5 -149.5 -64.5s-127.167 -22.5 -202.5 -22.5c-70 0 -135 7.5 -195 22.5s-113 39.167 -159 72.5c-36.667 26 -67.834 56.833 -93.501 92.5s-45.167 74.5 -58.5 116.5l258 39c6 -20.667 14.667 -39.667 26 -57
s25.333 -32.333 42 -45c22 -17.333 49.333 -30.666 82 -39.999s66 -14 100 -14c29.333 0 58.666 3 87.999 9s52 14 68 24c14 9.33301 24.667 20.666 32 33.999s11 28.666 11 45.999c0 26 -9.33301 47.5 -28 64.5s-58 30.5 -118 40.5l-149 24
c-68 11.333 -122.5 25.333 -163.5 42s-75.5 37 -103.5 61c-32 27.333 -56.333 60.333 -73 99s-25 79.334 -25 122.001c0 50 12.667 97.667 38 143s59.666 83 102.999 113c39.333 26 85.5 45 138.5 57s112.833 18 179.5 18c76 0 139 -7.66699 189 -23s94 -38.333 132 -69
c28.667 -22 53.5 -47.667 74.5 -77s37.167 -61.666 48.5 -96.999z" />
    <glyph glyph-name="afii10104" unicode="&#xbf;" horiz-adv-x="657" 
d="M481 1044v-1044h-305v1044h305zM636 1415v-238h-235v238h235zM256 1415v-238h-236v238h236z" />
    <glyph glyph-name="afii10104" unicode="&#x457;" horiz-adv-x="657" 
d="M481 1044v-1044h-305v1044h305zM636 1415v-238h-235v238h235zM256 1415v-238h-236v238h236z" />
    <glyph glyph-name="afii10017" unicode="&#xc0;" horiz-adv-x="1255" 
d="M796 1404l447 -1404h-342l-99 331h-430l-98 -331h-274l442 1404h354zM741 569l-154 512l-153 -512h307z" />
    <glyph glyph-name="afii10017" unicode="&#x410;" horiz-adv-x="1255" 
d="M796 1404l447 -1404h-342l-99 331h-430l-98 -331h-274l442 1404h354zM741 569l-154 512l-153 -512h307z" />
    <glyph glyph-name="afii10018" unicode="&#xc1;" horiz-adv-x="1363" 
d="M1148 1404l0.00195312 -245h-677v-312h301c78.667 0 141.667 -6.66699 189 -20s90.666 -34 129.999 -62c54 -37.333 95.833 -83.333 125.5 -138s44.5 -119 44.5 -193c0 -62 -10 -120.5 -30 -175.5s-50.333 -102.5 -91 -142.5c-42.667 -42 -90.334 -71.833 -143.001 -89.5
s-119 -26.5 -199 -26.5h-655v1404h1005zM471.002 610l0.000976562 -365.003h264c37.333 0 65.833 3.83301 85.5 11.5s38.167 20.167 55.5 37.5c16.667 16.667 29.334 35.834 38.001 57.501s13 47.834 13 78.501c0 27.333 -4.33301 51.5 -13 72.5
s-21.334 39.833 -38.001 56.5c-17.333 16.667 -37.833 29.334 -61.5 38.001s-52.834 13 -87.501 13h-256z" />
    <glyph glyph-name="afii10018" unicode="&#x411;" horiz-adv-x="1363" 
d="M1148 1404l0.00195312 -245h-677v-312h301c78.667 0 141.667 -6.66699 189 -20s90.666 -34 129.999 -62c54 -37.333 95.833 -83.333 125.5 -138s44.5 -119 44.5 -193c0 -62 -10 -120.5 -30 -175.5s-50.333 -102.5 -91 -142.5c-42.667 -42 -90.334 -71.833 -143.001 -89.5
s-119 -26.5 -199 -26.5h-655v1404h1005zM471.002 610l0.000976562 -365.003h264c37.333 0 65.833 3.83301 85.5 11.5s38.167 20.167 55.5 37.5c16.667 16.667 29.334 35.834 38.001 57.501s13 47.834 13 78.501c0 27.333 -4.33301 51.5 -13 72.5
s-21.334 39.833 -38.001 56.5c-17.333 16.667 -37.833 29.334 -61.5 38.001s-52.834 13 -87.501 13h-256z" />
    <glyph glyph-name="afii10019" unicode="&#xc2;" horiz-adv-x="1374" 
d="M143 1404h643c82 0 149.667 -6.83301 203 -20.5s99 -36.167 137 -67.5c35.333 -28.667 63.666 -65.834 84.999 -111.501s32 -96.5 32 -152.5c0 -40 -7.16699 -79.333 -21.5 -118s-33.166 -71 -56.499 -97c-18.667 -20.667 -42.834 -40.167 -72.501 -58.5
s-59.5 -32.166 -89.5 -41.499v-4c30 -6 58.833 -15.167 86.5 -27.5s52.834 -27.833 75.501 -46.5c38 -31.333 67 -69.5 87 -114.5s30 -96.167 30 -153.5c0 -59.333 -10.5 -113.5 -31.5 -162.5s-50.833 -90.5 -89.5 -124.5s-85.167 -59.833 -139.5 -77.5
s-123.833 -26.5 -208.5 -26.5h-670v1404zM471 1159l-0.000976562 -318h227c46.667 0 82.334 3.66699 107.001 11s46.334 19.333 65.001 36c16 14.667 28.167 31.5 36.5 50.5s12.5 41.833 12.5 68.5c0 26 -4.33301 48.333 -13 67s-22 34.667 -40 48
c-18 12.667 -40.333 22 -67 28s-58.334 9 -95.001 9h-233zM470.999 604v-358.999h264c38 0 68.833 3.83301 92.5 11.5s44.5 19.5 62.5 35.5c18.667 16.667 33 36.167 43 58.5s15 47.166 15 74.499c0 25.333 -4.16699 48.5 -12.5 69.5s-19.833 38.833 -34.5 53.5
c-18.667 18.667 -41.667 32.667 -69 42s-62.333 14 -105 14h-256z" />
    <glyph glyph-name="afii10019" unicode="&#x412;" horiz-adv-x="1374" 
d="M143 1404h643c82 0 149.667 -6.83301 203 -20.5s99 -36.167 137 -67.5c35.333 -28.667 63.666 -65.834 84.999 -111.501s32 -96.5 32 -152.5c0 -40 -7.16699 -79.333 -21.5 -118s-33.166 -71 -56.499 -97c-18.667 -20.667 -42.834 -40.167 -72.501 -58.5
s-59.5 -32.166 -89.5 -41.499v-4c30 -6 58.833 -15.167 86.5 -27.5s52.834 -27.833 75.501 -46.5c38 -31.333 67 -69.5 87 -114.5s30 -96.167 30 -153.5c0 -59.333 -10.5 -113.5 -31.5 -162.5s-50.833 -90.5 -89.5 -124.5s-85.167 -59.833 -139.5 -77.5
s-123.833 -26.5 -208.5 -26.5h-670v1404zM471 1159l-0.000976562 -318h227c46.667 0 82.334 3.66699 107.001 11s46.334 19.333 65.001 36c16 14.667 28.167 31.5 36.5 50.5s12.5 41.833 12.5 68.5c0 26 -4.33301 48.333 -13 67s-22 34.667 -40 48
c-18 12.667 -40.333 22 -67 28s-58.334 9 -95.001 9h-233zM470.999 604v-358.999h264c38 0 68.833 3.83301 92.5 11.5s44.5 19.5 62.5 35.5c18.667 16.667 33 36.167 43 58.5s15 47.166 15 74.499c0 25.333 -4.16699 48.5 -12.5 69.5s-19.833 38.833 -34.5 53.5
c-18.667 18.667 -41.667 32.667 -69 42s-62.333 14 -105 14h-256z" />
    <glyph glyph-name="afii10020" unicode="&#xc3;" horiz-adv-x="1071" 
d="M143 1404h907v-258h-579v-1146h-328v1404z" />
    <glyph glyph-name="afii10020" unicode="&#x413;" horiz-adv-x="1071" 
d="M143 1404h907v-258h-579v-1146h-328v1404z" />
    <glyph glyph-name="afii10021" unicode="&#xc4;" horiz-adv-x="1417" 
d="M339 1404h895.001v-1146h134v-557h-299v299h-738v-299h-299v557h99c53.333 106.667 92.666 201.167 117.999 283.5s45.333 178.833 60 289.5c8 60 15 135.167 21 225.5s9 160.5 9 210.5v137zM598.001 1146l-3.00098 -99.999c-1.33301 -66.667 -7 -143.334 -17 -230.001
s-22 -158 -36 -214c-13.333 -55.333 -31.166 -114.5 -53.499 -177.5s-44.833 -118.5 -67.5 -166.5h486v888h-309z" />
    <glyph glyph-name="afii10021" unicode="&#x414;" horiz-adv-x="1417" 
d="M339 1404h895.001v-1146h134v-557h-299v299h-738v-299h-299v557h99c53.333 106.667 92.666 201.167 117.999 283.5s45.333 178.833 60 289.5c8 60 15 135.167 21 225.5s9 160.5 9 210.5v137zM598.001 1146l-3.00098 -99.999c-1.33301 -66.667 -7 -143.334 -17 -230.001
s-22 -158 -36 -214c-13.333 -55.333 -31.166 -114.5 -53.499 -177.5s-44.833 -118.5 -67.5 -166.5h486v888h-309z" />
    <glyph glyph-name="afii10022" unicode="&#xc5;" horiz-adv-x="1198" 
d="M143 1404h989v-258h-661v-303h528v-237h-528v-348h669v-258h-997v1404z" />
    <glyph glyph-name="afii10022" unicode="&#x415;" horiz-adv-x="1198" 
d="M143 1404h989v-258h-661v-303h528v-237h-528v-348h669v-258h-997v1404z" />
    <glyph glyph-name="afii10024" unicode="&#xc6;" horiz-adv-x="1912" 
d="M804 1404h302.991v-561h56c26 0 50 5.5 72 16.5s41 27.5 57 49.5c10 13.333 19.167 31.166 27.5 53.499s21.5 66.5 39.5 132.5l25 90c12.667 47.333 25.334 84.166 38.001 110.499s27.334 48.166 44.001 65.499c12.667 14 25.5 24.333 38.5 31s28.167 10.667 45.5 12h254
c-27.333 -32.667 -51.666 -71.667 -72.999 -117s-45 -106.666 -71 -183.999c-39.333 -118.667 -61.333 -183.167 -66 -193.5s-9 -19.5 -13 -27.5c-18.667 -33.333 -41.5 -61 -68.5 -83s-57.5 -36 -91.5 -42v-8c23.333 -2.66699 45.333 -8 66 -16s39.667 -17.667 57 -29
c35.333 -24 65.333 -56.333 90 -97s52 -106.667 82 -198l43 -131c12.667 -38 24.834 -71.167 36.501 -99.5s26.167 -59.166 43.5 -92.499c10 -20 18.833 -36.167 26.5 -48.5s16.5 -24.833 26.5 -37.5h-303c-17.333 3.33301 -32.5 9.33301 -45.5 18
s-25.833 22.334 -38.5 41.001c-14 19.333 -27.667 46 -41 80s-27.666 77.667 -42.999 131l-29 100l-19.5 65c-9 30 -15.5 50 -19.5 60c-8.66699 24.667 -17.834 43.667 -27.501 57s-22.834 24.333 -39.501 33c-14 7.33301 -29.167 12.666 -45.5 15.999s-40.166 5 -71.499 5
h-62v-606h-303v606h-61c-31.333 0 -55.166 -1.66699 -71.499 -5s-31.5 -8.66602 -45.5 -15.999c-16.667 -8.66699 -29.834 -19.667 -39.501 -33s-18.834 -32.333 -27.501 -57c-4 -10 -10.667 -30 -20 -60s-15.666 -51.667 -18.999 -65l-29 -100
c-15.333 -53.333 -29.833 -97 -43.5 -131s-27.167 -60.667 -40.5 -80c-12.667 -18.667 -25.5 -32.334 -38.5 -41.001s-28.167 -14.667 -45.5 -18h-303c10 12.667 18.833 25.167 26.5 37.5s16.5 28.5 26.5 48.5c17.333 33.333 31.833 64.166 43.5 92.499
s23.834 61.5 36.501 99.5l43 131c30 91.333 57.333 157.333 82 198s54.667 73 90 97c17.333 11.333 36.333 21 57 29s42.667 13.333 66 16v8c-34 6 -64.5 20 -91.5 42s-49.833 49.667 -68.5 83c-4 8 -8.33301 17.167 -13 27.5s-27 74.833 -67 193.5
c-25.333 77.333 -48.666 138.666 -69.999 183.999s-45.666 84.333 -72.999 117h254c16.667 -1.33301 31.667 -5.33301 45 -12s26.333 -17 39 -31c16.667 -17.333 31.334 -39.166 44.001 -65.499s25.334 -63.166 38.001 -110.499l24 -90
c18.667 -66 32.167 -110.167 40.5 -132.5s17.5 -40.166 27.5 -53.499c16 -22 35 -38.5 57 -49.5s46 -16.5 72 -16.5h55v561z" />
    <glyph glyph-name="afii10024" unicode="&#x416;" horiz-adv-x="1912" 
d="M804 1404h302.991v-561h56c26 0 50 5.5 72 16.5s41 27.5 57 49.5c10 13.333 19.167 31.166 27.5 53.499s21.5 66.5 39.5 132.5l25 90c12.667 47.333 25.334 84.166 38.001 110.499s27.334 48.166 44.001 65.499c12.667 14 25.5 24.333 38.5 31s28.167 10.667 45.5 12h254
c-27.333 -32.667 -51.666 -71.667 -72.999 -117s-45 -106.666 -71 -183.999c-39.333 -118.667 -61.333 -183.167 -66 -193.5s-9 -19.5 -13 -27.5c-18.667 -33.333 -41.5 -61 -68.5 -83s-57.5 -36 -91.5 -42v-8c23.333 -2.66699 45.333 -8 66 -16s39.667 -17.667 57 -29
c35.333 -24 65.333 -56.333 90 -97s52 -106.667 82 -198l43 -131c12.667 -38 24.834 -71.167 36.501 -99.5s26.167 -59.166 43.5 -92.499c10 -20 18.833 -36.167 26.5 -48.5s16.5 -24.833 26.5 -37.5h-303c-17.333 3.33301 -32.5 9.33301 -45.5 18
s-25.833 22.334 -38.5 41.001c-14 19.333 -27.667 46 -41 80s-27.666 77.667 -42.999 131l-29 100l-19.5 65c-9 30 -15.5 50 -19.5 60c-8.66699 24.667 -17.834 43.667 -27.501 57s-22.834 24.333 -39.501 33c-14 7.33301 -29.167 12.666 -45.5 15.999s-40.166 5 -71.499 5
h-62v-606h-303v606h-61c-31.333 0 -55.166 -1.66699 -71.499 -5s-31.5 -8.66602 -45.5 -15.999c-16.667 -8.66699 -29.834 -19.667 -39.501 -33s-18.834 -32.333 -27.501 -57c-4 -10 -10.667 -30 -20 -60s-15.666 -51.667 -18.999 -65l-29 -100
c-15.333 -53.333 -29.833 -97 -43.5 -131s-27.167 -60.667 -40.5 -80c-12.667 -18.667 -25.5 -32.334 -38.5 -41.001s-28.167 -14.667 -45.5 -18h-303c10 12.667 18.833 25.167 26.5 37.5s16.5 28.5 26.5 48.5c17.333 33.333 31.833 64.166 43.5 92.499
s23.834 61.5 36.501 99.5l43 131c30 91.333 57.333 157.333 82 198s54.667 73 90 97c17.333 11.333 36.333 21 57 29s42.667 13.333 66 16v8c-34 6 -64.5 20 -91.5 42s-49.833 49.667 -68.5 83c-4 8 -8.33301 17.167 -13 27.5s-27 74.833 -67 193.5
c-25.333 77.333 -48.666 138.666 -69.999 183.999s-45.666 84.333 -72.999 117h254c16.667 -1.33301 31.667 -5.33301 45 -12s26.333 -17 39 -31c16.667 -17.333 31.334 -39.166 44.001 -65.499s25.334 -63.166 38.001 -110.499l24 -90
c18.667 -66 32.167 -110.167 40.5 -132.5s17.5 -40.166 27.5 -53.499c16 -22 35 -38.5 57 -49.5s46 -16.5 72 -16.5h55v561z" />
    <glyph glyph-name="afii10025" unicode="&#xc7;" horiz-adv-x="1337" 
d="M391 972l-269 60c11.333 68 38.5 129.5 81.5 184.5s96.5 99.833 160.5 134.5c45.333 24.667 94.333 43.167 147 55.5s112.334 18.5 179.001 18.5c72.667 0 139.334 -7 200.001 -21s114.667 -36.333 162 -67c56 -36.667 97.333 -80 124 -130s40 -103.667 40 -161
c0 -76.667 -24.167 -143.834 -72.5 -201.501s-111.5 -94.167 -189.5 -109.5v-4c38.667 -4.66699 75.5 -15.167 110.5 -31.5s64.5 -35.833 88.5 -58.5c28 -28 50 -62.5 66 -103.5s24 -84.5 24 -130.5c0 -64.667 -13.667 -124.5 -41 -179.5s-64.333 -100.833 -111 -137.5
c-46 -36 -101.833 -63.333 -167.5 -82s-149.834 -28 -252.501 -28c-95.333 0 -174 9 -236 27s-115.667 44.333 -161 79c-42.667 32.667 -80.334 74.834 -113.001 126.501s-55 109.834 -67 174.501l284 57c9.33301 -30.667 21 -59 35 -85s28.333 -46 43 -60
c23.333 -22.667 54 -40.667 92 -54s77.667 -20 119 -20c38.667 0 72.834 4.5 102.501 13.5s54.167 22.167 73.5 39.5c20 17.333 36 39.333 48 66s18 54.667 18 84c0 28 -5.66699 53.167 -17 75.5s-28.333 41.5 -51 57.5c-20.667 14 -43.167 24.333 -67.5 31
s-57.166 10 -98.499 10h-190v237h188c32.667 0 63.5 4.16699 92.5 12.5s52.167 19.166 69.5 32.499c17.333 14 31.166 32.5 41.499 55.5s15.5 48.833 15.5 77.5c0 24.667 -5 47.334 -15 68.001s-26 39 -48 55c-18 13.333 -38.5 23.166 -61.5 29.499s-51.833 9.5 -86.5 9.5
c-42 0 -82.333 -6.66699 -121 -20s-71.334 -33.333 -98.001 -60c-14.667 -14.667 -28.167 -33 -40.5 -55s-22.5 -46 -30.5 -72z" />
    <glyph glyph-name="afii10025" unicode="&#x417;" horiz-adv-x="1337" 
d="M391 972l-269 60c11.333 68 38.5 129.5 81.5 184.5s96.5 99.833 160.5 134.5c45.333 24.667 94.333 43.167 147 55.5s112.334 18.5 179.001 18.5c72.667 0 139.334 -7 200.001 -21s114.667 -36.333 162 -67c56 -36.667 97.333 -80 124 -130s40 -103.667 40 -161
c0 -76.667 -24.167 -143.834 -72.5 -201.501s-111.5 -94.167 -189.5 -109.5v-4c38.667 -4.66699 75.5 -15.167 110.5 -31.5s64.5 -35.833 88.5 -58.5c28 -28 50 -62.5 66 -103.5s24 -84.5 24 -130.5c0 -64.667 -13.667 -124.5 -41 -179.5s-64.333 -100.833 -111 -137.5
c-46 -36 -101.833 -63.333 -167.5 -82s-149.834 -28 -252.501 -28c-95.333 0 -174 9 -236 27s-115.667 44.333 -161 79c-42.667 32.667 -80.334 74.834 -113.001 126.501s-55 109.834 -67 174.501l284 57c9.33301 -30.667 21 -59 35 -85s28.333 -46 43 -60
c23.333 -22.667 54 -40.667 92 -54s77.667 -20 119 -20c38.667 0 72.834 4.5 102.501 13.5s54.167 22.167 73.5 39.5c20 17.333 36 39.333 48 66s18 54.667 18 84c0 28 -5.66699 53.167 -17 75.5s-28.333 41.5 -51 57.5c-20.667 14 -43.167 24.333 -67.5 31
s-57.166 10 -98.499 10h-190v237h188c32.667 0 63.5 4.16699 92.5 12.5s52.167 19.166 69.5 32.499c17.333 14 31.166 32.5 41.499 55.5s15.5 48.833 15.5 77.5c0 24.667 -5 47.334 -15 68.001s-26 39 -48 55c-18 13.333 -38.5 23.166 -61.5 29.499s-51.833 9.5 -86.5 9.5
c-42 0 -82.333 -6.66699 -121 -20s-71.334 -33.333 -98.001 -60c-14.667 -14.667 -28.167 -33 -40.5 -55s-22.5 -46 -30.5 -72z" />
    <glyph glyph-name="afii10026" unicode="&#xc8;" horiz-adv-x="1411" 
d="M143 1404h328v-729c0 -34 -1 -65.833 -3 -95.5s-4.66699 -55.834 -8 -78.501c6 21.333 14.333 43.833 25 67.5s21 43.5 31 59.5l424 676v100h327v-1404h-327v731c0 35.333 0.833008 68.333 2.5 99s4.16699 58.334 7.5 83.001c-6 -20 -14.667 -42.667 -26 -68
s-21.333 -45 -30 -59l-423 -674v-112h-328v1404z" />
    <glyph glyph-name="afii10026" unicode="&#x418;" horiz-adv-x="1411" 
d="M143 1404h328v-729c0 -34 -1 -65.833 -3 -95.5s-4.66699 -55.834 -8 -78.501c6 21.333 14.333 43.833 25 67.5s21 43.5 31 59.5l424 676v100h327v-1404h-327v731c0 35.333 0.833008 68.333 2.5 99s4.16699 58.334 7.5 83.001c-6 -20 -14.667 -42.667 -26 -68
s-21.333 -45 -30 -59l-423 -674v-112h-328v1404z" />
    <glyph glyph-name="afii10027" unicode="&#xc9;" horiz-adv-x="1411" 
d="M143 1404l328 0.00292969v-729c0 -34 -1 -65.833 -3 -95.5s-4.66699 -55.834 -8 -78.501c6 21.333 14.333 43.833 25 67.5s21 43.5 31 59.5l424 676v100h327v-1404h-327v716c0 39.333 0.666992 75.166 2 107.499s4 62.166 8 89.499c-6 -20 -14.667 -42.667 -26 -68
s-21.333 -45 -30 -59l-423 -674v-112h-328v1404zM843 1822h252c-2 -38.667 -11.833 -75.5 -29.5 -110.5s-43.167 -64.833 -76.5 -89.5c-32.667 -25.333 -73.667 -44.333 -123 -57s-103.333 -19 -162 -19s-112.667 6.33301 -162 19s-90.333 31.667 -123 57
c-32.667 24.667 -58 54.5 -76 89.5s-28 71.833 -30 110.5h252c-0.666992 -15.333 1.83301 -30.333 7.5 -45s13.167 -27 22.5 -37c11.333 -10.667 26.333 -18.667 45 -24s40 -8 64 -8s45.333 2.66699 64 8s33.667 13.333 45 24c9.33301 10 16.833 22.333 22.5 37
s8.16699 29.667 7.5 45z" />
    <glyph glyph-name="afii10027" unicode="&#x419;" horiz-adv-x="1411" 
d="M143 1404l328 0.00292969v-729c0 -34 -1 -65.833 -3 -95.5s-4.66699 -55.834 -8 -78.501c6 21.333 14.333 43.833 25 67.5s21 43.5 31 59.5l424 676v100h327v-1404h-327v716c0 39.333 0.666992 75.166 2 107.499s4 62.166 8 89.499c-6 -20 -14.667 -42.667 -26 -68
s-21.333 -45 -30 -59l-423 -674v-112h-328v1404zM843 1822h252c-2 -38.667 -11.833 -75.5 -29.5 -110.5s-43.167 -64.833 -76.5 -89.5c-32.667 -25.333 -73.667 -44.333 -123 -57s-103.333 -19 -162 -19s-112.667 6.33301 -162 19s-90.333 31.667 -123 57
c-32.667 24.667 -58 54.5 -76 89.5s-28 71.833 -30 110.5h252c-0.666992 -15.333 1.83301 -30.333 7.5 -45s13.167 -27 22.5 -37c11.333 -10.667 26.333 -18.667 45 -24s40 -8 64 -8s45.333 2.66699 64 8s33.667 13.333 45 24c9.33301 10 16.833 22.333 22.5 37
s8.16699 29.667 7.5 45z" />
    <glyph glyph-name="afii10028" unicode="&#xca;" horiz-adv-x="1349" 
d="M143 1404l327.998 0.00878906v-561h102c21.333 0 41 2.16699 59 6.5s34.333 11.166 49 20.499c21.333 12.667 39.333 30.167 54 52.5s32.334 68.166 53.001 137.499l39 131c11.333 38 23.333 70.167 36 96.5s27.334 48.833 44.001 67.5
c14.667 16.667 29.834 29.167 45.501 37.5s33.834 12.166 54.501 11.499h256c-12 -8.66699 -22.333 -17.834 -31 -27.501s-18.667 -24.167 -30 -43.5c-19.333 -32 -36.5 -66.5 -51.5 -103.5s-29.5 -79.167 -43.5 -126.5l-32 -114
c-14.667 -50.667 -30.334 -90.834 -47.001 -120.501s-36 -53.834 -58 -72.501c-14.667 -12.667 -30.334 -22.667 -47.001 -30s-34.334 -12.333 -53.001 -15v-8c20 -2.66699 39.5 -7.5 58.5 -14.5s36.167 -15.833 51.5 -26.5c35.333 -22.667 66 -55.167 92 -97.5
s53.667 -109.5 83 -201.5c40 -128 62.833 -199.833 68.5 -215.5s12.167 -31.834 19.5 -48.501c12.667 -31.333 25.334 -57.333 38.001 -78s28.667 -41 48 -61h-303c-22 2 -42 11.167 -60 27.5s-34.333 39.166 -49 68.499c-8.66699 16.667 -18.667 41.667 -30 75
s-23.333 71 -36 113l-36 127c-9.33301 31.333 -18.333 58.166 -27 80.499s-17.667 39.833 -27 52.5c-14.667 21.333 -34 37 -58 47s-60.667 15 -110 15h-122v-606h-328v1404z" />
    <glyph glyph-name="afii10028" unicode="&#x41a;" horiz-adv-x="1349" 
d="M143 1404l327.998 0.00878906v-561h102c21.333 0 41 2.16699 59 6.5s34.333 11.166 49 20.499c21.333 12.667 39.333 30.167 54 52.5s32.334 68.166 53.001 137.499l39 131c11.333 38 23.333 70.167 36 96.5s27.334 48.833 44.001 67.5
c14.667 16.667 29.834 29.167 45.501 37.5s33.834 12.166 54.501 11.499h256c-12 -8.66699 -22.333 -17.834 -31 -27.501s-18.667 -24.167 -30 -43.5c-19.333 -32 -36.5 -66.5 -51.5 -103.5s-29.5 -79.167 -43.5 -126.5l-32 -114
c-14.667 -50.667 -30.334 -90.834 -47.001 -120.501s-36 -53.834 -58 -72.501c-14.667 -12.667 -30.334 -22.667 -47.001 -30s-34.334 -12.333 -53.001 -15v-8c20 -2.66699 39.5 -7.5 58.5 -14.5s36.167 -15.833 51.5 -26.5c35.333 -22.667 66 -55.167 92 -97.5
s53.667 -109.5 83 -201.5c40 -128 62.833 -199.833 68.5 -215.5s12.167 -31.834 19.5 -48.501c12.667 -31.333 25.334 -57.333 38.001 -78s28.667 -41 48 -61h-303c-22 2 -42 11.167 -60 27.5s-34.333 39.166 -49 68.499c-8.66699 16.667 -18.667 41.667 -30 75
s-23.333 71 -36 113l-36 127c-9.33301 31.333 -18.333 58.166 -27 80.499s-17.667 39.833 -27 52.5c-14.667 21.333 -34 37 -58 47s-60.667 15 -110 15h-122v-606h-328v1404z" />
    <glyph glyph-name="afii10029" unicode="&#xcb;" horiz-adv-x="1402" 
d="M333 1404l926.001 -0.00292969v-1404h-328v1146h-329l-2 -100c-2.66699 -115.333 -8.66699 -227.166 -18 -335.499s-21.333 -199.166 -36 -272.499c-16 -85.333 -37.333 -157.166 -64 -215.499s-57 -104.833 -91 -139.5c-33.333 -32.667 -70.5 -57 -111.5 -73
s-86.5 -24 -136.5 -24c-18 0 -35.333 1.16699 -52 3.5s-33.667 5.83301 -51 10.5v256c6 -2 12 -3.33301 18 -4s11.667 -1 17 -1c39.333 0 74.5 13.833 105.5 41.5s56.167 68.5 75.5 122.5c12 35.333 23 83 33 143s18 125.667 24 197
c3.33301 44 6.16602 98.833 8.49902 164.5s5.5 194.5 9.5 386.5z" />
    <glyph glyph-name="afii10029" unicode="&#x41b;" horiz-adv-x="1402" 
d="M333 1404l926.001 -0.00292969v-1404h-328v1146h-329l-2 -100c-2.66699 -115.333 -8.66699 -227.166 -18 -335.499s-21.333 -199.166 -36 -272.499c-16 -85.333 -37.333 -157.166 -64 -215.499s-57 -104.833 -91 -139.5c-33.333 -32.667 -70.5 -57 -111.5 -73
s-86.5 -24 -136.5 -24c-18 0 -35.333 1.16699 -52 3.5s-33.667 5.83301 -51 10.5v256c6 -2 12 -3.33301 18 -4s11.667 -1 17 -1c39.333 0 74.5 13.833 105.5 41.5s56.167 68.5 75.5 122.5c12 35.333 23 83 33 143s18 125.667 24 197
c3.33301 44 6.16602 98.833 8.49902 164.5s5.5 194.5 9.5 386.5z" />
    <glyph glyph-name="afii10030" unicode="&#xcc;" horiz-adv-x="1769" 
d="M589 1404l295 -897h4l291 897h447v-1404h-316v1093h-4l-340 -1093h-213l-348 1093h-4v-1093h-258v1404h446z" />
    <glyph glyph-name="afii10030" unicode="&#x41c;" horiz-adv-x="1769" 
d="M589 1404l295 -897h4l291 897h447v-1404h-316v1093h-4l-340 -1093h-213l-348 1093h-4v-1093h-258v1404h446z" />
    <glyph glyph-name="afii10031" unicode="&#xcd;" horiz-adv-x="1402" 
d="M1259 1404v-1404h-328v595h-460v-595h-328v1404h328v-550h460v550h328z" />
    <glyph glyph-name="afii10031" unicode="&#x41d;" horiz-adv-x="1402" 
d="M1259 1404v-1404h-328v595h-460v-595h-328v1404h328v-550h460v550h328z" />
    <glyph glyph-name="afii10032" unicode="&#xce;" horiz-adv-x="1417" 
d="M75 702c0 116 19.0029 225 57.0029 327s94.333 186.333 169 253c55.333 49.333 117.166 85.5 185.499 108.5s142.166 34.5 221.499 34.5c80 0 154 -11.5 222 -34.5s130 -59.167 186 -108.5c74.667 -66.667 130.834 -151 168.501 -253s56.5 -211 56.5 -327
c0 -117.333 -18.5 -225 -55.5 -323s-88.833 -178.667 -155.5 -242c-53.333 -50.667 -115.833 -89.5 -187.5 -116.5s-149.834 -40.5 -234.501 -40.5s-162.834 13.5 -234.501 40.5s-134.167 65.833 -187.5 116.5c-66.667 63.333 -118.5 144 -155.5 242
s-55.5 205.667 -55.5 323zM428.003 706c0 -76 6.00098 -144.333 18.001 -205s30.333 -111 55 -151c25.333 -40.667 55.666 -71.667 90.999 -93s74 -32 116 -32c42.667 0 81.5 10.667 116.5 32s65.167 52.333 90.5 93c24.667 40 43.167 90.333 55.5 151s18.5 129 18.5 205
s-6.16699 143.333 -18.5 202s-30.833 108 -55.5 148c-25.333 40.667 -54.833 71.334 -88.5 92.001s-73.167 31 -118.5 31s-84.833 -10.333 -118.5 -31s-63.167 -51.334 -88.5 -92.001c-24.667 -40 -43 -89.333 -55 -148s-18 -126 -18 -202z" />
    <glyph glyph-name="afii10032" unicode="&#x41e;" horiz-adv-x="1417" 
d="M75 702c0 116 19.0029 225 57.0029 327s94.333 186.333 169 253c55.333 49.333 117.166 85.5 185.499 108.5s142.166 34.5 221.499 34.5c80 0 154 -11.5 222 -34.5s130 -59.167 186 -108.5c74.667 -66.667 130.834 -151 168.501 -253s56.5 -211 56.5 -327
c0 -117.333 -18.5 -225 -55.5 -323s-88.833 -178.667 -155.5 -242c-53.333 -50.667 -115.833 -89.5 -187.5 -116.5s-149.834 -40.5 -234.501 -40.5s-162.834 13.5 -234.501 40.5s-134.167 65.833 -187.5 116.5c-66.667 63.333 -118.5 144 -155.5 242
s-55.5 205.667 -55.5 323zM428.003 706c0 -76 6.00098 -144.333 18.001 -205s30.333 -111 55 -151c25.333 -40.667 55.666 -71.667 90.999 -93s74 -32 116 -32c42.667 0 81.5 10.667 116.5 32s65.167 52.333 90.5 93c24.667 40 43.167 90.333 55.5 151s18.5 129 18.5 205
s-6.16699 143.333 -18.5 202s-30.833 108 -55.5 148c-25.333 40.667 -54.833 71.334 -88.5 92.001s-73.167 31 -118.5 31s-84.833 -10.333 -118.5 -31s-63.167 -51.334 -88.5 -92.001c-24.667 -40 -43 -89.333 -55 -148s-18 -126 -18 -202z" />
    <glyph glyph-name="afii10033" unicode="&#xcf;" horiz-adv-x="1394" 
d="M143 1404h1108v-1404h-328v1146h-452v-1146h-328v1404z" />
    <glyph glyph-name="afii10033" unicode="&#x41f;" horiz-adv-x="1394" 
d="M143 1404h1108v-1404h-328v1146h-452v-1146h-328v1404z" />
    <glyph glyph-name="afii10034" unicode="&#xd0;" horiz-adv-x="1280" 
d="M143 1404l519.999 0.000976562c98.667 0 176.667 -6.33301 234 -19s108.333 -32.667 153 -60c58.667 -36.667 104.334 -83.834 137.001 -141.501s49 -126.167 49 -205.5c0 -54.667 -8 -104.5 -24 -149.5s-38.667 -85.833 -68 -122.5c-44 -55.333 -97 -97.5 -159 -126.5
s-155 -43.5 -279 -43.5h-235v-536h-328v1404zM470.999 782.001l205.999 0.000976562c44 0 79.333 4 106 12s49.334 21 68.001 39c18 16.667 32.167 37.667 42.5 63s15.5 50.666 15.5 75.999c0 27.333 -4.5 52.833 -13.5 76.5s-22.167 43.167 -39.5 58.5
c-18 16.667 -40.667 29.5 -68 38.5s-62 13.5 -104 13.5h-213v-377z" />
    <glyph glyph-name="afii10034" unicode="&#x420;" horiz-adv-x="1280" 
d="M143 1404l519.999 0.000976562c98.667 0 176.667 -6.33301 234 -19s108.333 -32.667 153 -60c58.667 -36.667 104.334 -83.834 137.001 -141.501s49 -126.167 49 -205.5c0 -54.667 -8 -104.5 -24 -149.5s-38.667 -85.833 -68 -122.5c-44 -55.333 -97 -97.5 -159 -126.5
s-155 -43.5 -279 -43.5h-235v-536h-328v1404zM470.999 782.001l205.999 0.000976562c44 0 79.333 4 106 12s49.334 21 68.001 39c18 16.667 32.167 37.667 42.5 63s15.5 50.666 15.5 75.999c0 27.333 -4.5 52.833 -13.5 76.5s-22.167 43.167 -39.5 58.5
c-18 16.667 -40.667 29.5 -68 38.5s-62 13.5 -104 13.5h-213v-377z" />
    <glyph glyph-name="afii10035" unicode="&#xd1;" horiz-adv-x="1329" 
d="M1267 913l-306.998 -25.0068c-2 29.333 -7 58.5 -15 87.5s-18.667 55.833 -32 80.5c-23.333 42.667 -51.333 73.834 -84 93.501s-73 29.5 -121 29.5c-54 0 -99.667 -13.167 -137 -39.5s-68.666 -67.166 -93.999 -122.499c-18 -39.333 -30.667 -83.333 -38 -132
s-11 -107.667 -11 -177c0 -72.667 3.66699 -134.5 11 -185.5s20 -95.5 38 -133.5c25.333 -56 57.833 -97.333 97.5 -124s83.5 -40 131.5 -40c42 0 79.167 8.5 111.5 25.5s60.166 41.833 83.499 74.5c16 23.333 29.833 51.833 41.5 85.5s19.5 68.167 23.5 103.5l301 -29
c-7.33301 -66.667 -25.166 -130.667 -53.499 -192s-65.833 -114.666 -112.5 -159.999c-50.667 -50 -109.167 -88 -175.5 -114s-139.5 -39 -219.5 -39c-122 0 -227.833 26.833 -317.5 80.5s-159.834 124.834 -210.501 213.501c-33.333 58.667 -58.833 126.334 -76.5 203.001
s-26.5 152.334 -26.5 227.001c0 116 18.333 222.5 55 319.5s86 176.167 148 237.5c54 54 116.167 94.833 186.5 122.5s151.5 41.5 243.5 41.5c77.333 0 150.166 -12.167 218.499 -36.5s128.5 -62.166 180.5 -113.499c47.333 -46 84.666 -101 111.999 -165
s43.333 -129.667 48 -197z" />
    <glyph glyph-name="afii10035" unicode="&#x421;" horiz-adv-x="1329" 
d="M1267 913l-306.998 -25.0068c-2 29.333 -7 58.5 -15 87.5s-18.667 55.833 -32 80.5c-23.333 42.667 -51.333 73.834 -84 93.501s-73 29.5 -121 29.5c-54 0 -99.667 -13.167 -137 -39.5s-68.666 -67.166 -93.999 -122.499c-18 -39.333 -30.667 -83.333 -38 -132
s-11 -107.667 -11 -177c0 -72.667 3.66699 -134.5 11 -185.5s20 -95.5 38 -133.5c25.333 -56 57.833 -97.333 97.5 -124s83.5 -40 131.5 -40c42 0 79.167 8.5 111.5 25.5s60.166 41.833 83.499 74.5c16 23.333 29.833 51.833 41.5 85.5s19.5 68.167 23.5 103.5l301 -29
c-7.33301 -66.667 -25.166 -130.667 -53.499 -192s-65.833 -114.666 -112.5 -159.999c-50.667 -50 -109.167 -88 -175.5 -114s-139.5 -39 -219.5 -39c-122 0 -227.833 26.833 -317.5 80.5s-159.834 124.834 -210.501 213.501c-33.333 58.667 -58.833 126.334 -76.5 203.001
s-26.5 152.334 -26.5 227.001c0 116 18.333 222.5 55 319.5s86 176.167 148 237.5c54 54 116.167 94.833 186.5 122.5s151.5 41.5 243.5 41.5c77.333 0 150.166 -12.167 218.499 -36.5s128.5 -62.166 180.5 -113.499c47.333 -46 84.666 -101 111.999 -165
s43.333 -129.667 48 -197z" />
    <glyph glyph-name="afii10036" unicode="&#xd2;" horiz-adv-x="991" 
d="M0 1404h991v-258h-332v-1146h-328v1146h-331v258z" />
    <glyph glyph-name="afii10036" unicode="&#x422;" horiz-adv-x="991" 
d="M0 1404h991v-258h-332v-1146h-328v1146h-331v258z" />
    <glyph glyph-name="afii10037" unicode="&#xd3;" horiz-adv-x="1204" 
d="M-14 1404l360.004 0.00195312l309 -671h4l270 671h289l-428 -1011c-36.667 -86.667 -68.5 -153.334 -95.5 -200.001s-53.833 -83.334 -80.5 -110.001c-34.667 -33.333 -75.834 -58.833 -123.501 -76.5s-104.834 -26.5 -171.501 -26.5c-25.333 0 -51.833 1.66699 -79.5 5
s-55.834 8.33301 -84.501 15v256c20 -6 41 -10.667 63 -14s42.667 -5 62 -5c25.333 0 49.166 2.83301 71.499 8.5s41.5 14.5 57.5 26.5c14 10 28 25 42 45s25.333 41.667 34 65z" />
    <glyph glyph-name="afii10037" unicode="&#x423;" horiz-adv-x="1204" 
d="M-14 1404l360.004 0.00195312l309 -671h4l270 671h289l-428 -1011c-36.667 -86.667 -68.5 -153.334 -95.5 -200.001s-53.833 -83.334 -80.5 -110.001c-34.667 -33.333 -75.834 -58.833 -123.501 -76.5s-104.834 -26.5 -171.501 -26.5c-25.333 0 -51.833 1.66699 -79.5 5
s-55.834 8.33301 -84.501 15v256c20 -6 41 -10.667 63 -14s42.667 -5 62 -5c25.333 0 49.166 2.83301 71.499 8.5s41.5 14.5 57.5 26.5c14 10 28 25 42 45s25.333 41.667 34 65z" />
    <glyph glyph-name="afii10038" unicode="&#xd4;" horiz-adv-x="1728" 
d="M700 1445h327.997v-165h18c75.333 0 144 -7.83301 206 -23.5s118.333 -40.167 169 -73.5c76.667 -50.667 134.334 -115.834 173.001 -195.501s58 -168.834 58 -267.501c0 -85.333 -14.833 -164.5 -44.5 -237.5s-76.167 -135.833 -139.5 -188.5
c-53.333 -44 -117.166 -77.167 -191.499 -99.5s-157.166 -32.166 -248.499 -29.499v-165h-328v165c-92 -2.66699 -175 7.16602 -249 29.499s-137.667 55.5 -191 99.5c-64 52.667 -110.833 115.5 -140.5 188.5s-44.5 152.167 -44.5 237.5c0 98.667 19.333 187.834 58 267.501
s96.667 144.834 174 195.501c50.667 33.333 107 57.833 169 73.5s130.333 23.5 205 23.5h19v165zM709.997 393v659l-31 -2c-42.667 -2.66699 -81 -10.5 -115 -23.5s-61.667 -29.833 -83 -50.5c-28.667 -26 -50.167 -61 -64.5 -105s-21.5 -94.333 -21.5 -151
c0 -46 3.66699 -85.333 11 -118s20 -62.667 38 -90c28 -44 64 -75.333 108 -94s96.667 -27 158 -25zM1017 1052v-659c62 -2 115 6.33301 159 25s80 50 108 94c17.333 27.333 29.833 57.333 37.5 90s11.5 72 11.5 118c0 56.667 -7.33301 107 -22 151s-36 79 -64 105
c-22 20.667 -49.833 37.5 -83.5 50.5s-72.167 20.833 -115.5 23.5z" />
    <glyph glyph-name="afii10038" unicode="&#x424;" horiz-adv-x="1728" 
d="M700 1445h327.997v-165h18c75.333 0 144 -7.83301 206 -23.5s118.333 -40.167 169 -73.5c76.667 -50.667 134.334 -115.834 173.001 -195.501s58 -168.834 58 -267.501c0 -85.333 -14.833 -164.5 -44.5 -237.5s-76.167 -135.833 -139.5 -188.5
c-53.333 -44 -117.166 -77.167 -191.499 -99.5s-157.166 -32.166 -248.499 -29.499v-165h-328v165c-92 -2.66699 -175 7.16602 -249 29.499s-137.667 55.5 -191 99.5c-64 52.667 -110.833 115.5 -140.5 188.5s-44.5 152.167 -44.5 237.5c0 98.667 19.333 187.834 58 267.501
s96.667 144.834 174 195.501c50.667 33.333 107 57.833 169 73.5s130.333 23.5 205 23.5h19v165zM709.997 393v659l-31 -2c-42.667 -2.66699 -81 -10.5 -115 -23.5s-61.667 -29.833 -83 -50.5c-28.667 -26 -50.167 -61 -64.5 -105s-21.5 -94.333 -21.5 -151
c0 -46 3.66699 -85.333 11 -118s20 -62.667 38 -90c28 -44 64 -75.333 108 -94s96.667 -27 158 -25zM1017 1052v-659c62 -2 115 6.33301 159 25s80 50 108 94c17.333 27.333 29.833 57.333 37.5 90s11.5 72 11.5 118c0 56.667 -7.33301 107 -22 151s-36 79 -64 105
c-22 20.667 -49.833 37.5 -83.5 50.5s-72.167 20.833 -115.5 23.5z" />
    <glyph glyph-name="afii10039" unicode="&#xd5;" horiz-adv-x="1298" 
d="M40 1404h379l254 -436l256 436h305l-403 -651l463 -753h-379l-299 503l-301 -503h-311l456 729z" />
    <glyph glyph-name="afii10039" unicode="&#x425;" horiz-adv-x="1298" 
d="M40 1404h379l254 -436l256 436h305l-403 -651l463 -753h-379l-299 503l-301 -503h-311l456 729z" />
    <glyph glyph-name="afii10040" unicode="&#xd6;" horiz-adv-x="1443" 
d="M143 1404h328v-1146h452v1146h328v-1146h139v-552h-299v294h-948v1404z" />
    <glyph glyph-name="afii10040" unicode="&#x426;" horiz-adv-x="1443" 
d="M143 1404h328v-1146h452v1146h328v-1146h139v-552h-299v294h-948v1404z" />
    <glyph glyph-name="afii10041" unicode="&#xd7;" horiz-adv-x="1341" 
d="M122 1404h316.002v-389c0 -40.667 3 -72.334 9 -95.001s16 -42 30 -58c14.667 -17.333 33.667 -30.166 57 -38.499s69 -12.5 137 -12.5c35.333 0 69 1.16699 101 3.5s64.667 5.83301 98 10.5v579h328v-1404h-328v577c-46.667 -5.33301 -92.834 -9.33301 -138.501 -12
s-91.167 -4 -136.5 -4c-98.667 0 -173.334 6.5 -224.001 19.5s-94 34.5 -130 64.5c-39.333 32 -69 75.333 -89 130s-30 128 -30 220v409z" />
    <glyph glyph-name="afii10041" unicode="&#x427;" horiz-adv-x="1341" 
d="M122 1404h316.002v-389c0 -40.667 3 -72.334 9 -95.001s16 -42 30 -58c14.667 -17.333 33.667 -30.166 57 -38.499s69 -12.5 137 -12.5c35.333 0 69 1.16699 101 3.5s64.667 5.83301 98 10.5v579h328v-1404h-328v577c-46.667 -5.33301 -92.834 -9.33301 -138.501 -12
s-91.167 -4 -136.5 -4c-98.667 0 -173.334 6.5 -224.001 19.5s-94 34.5 -130 64.5c-39.333 32 -69 75.333 -89 130s-30 128 -30 220v409z" />
    <glyph glyph-name="afii10042" unicode="&#xd8;" horiz-adv-x="1923" 
d="M143 1404h317v-1146h342v1146h318v-1146h342v1146h317v-1404h-1636v1404z" />
    <glyph glyph-name="afii10042" unicode="&#x428;" horiz-adv-x="1923" 
d="M143 1404h317v-1146h342v1146h318v-1146h342v1146h317v-1404h-1636v1404z" />
    <glyph glyph-name="afii10043" unicode="&#xd9;" horiz-adv-x="1970" 
d="M143 1404h317v-1146h342v1146h318v-1146h342v1146h317v-1146h137v-552h-299v294h-1474v1404z" />
    <glyph glyph-name="afii10043" unicode="&#x429;" horiz-adv-x="1970" 
d="M143 1404h317v-1146h342v1146h318v-1146h342v1146h317v-1146h137v-552h-299v294h-1474v1404z" />
    <glyph glyph-name="afii10044" unicode="&#xda;" horiz-adv-x="1525" 
d="M-20 1404l697.003 -0.000976562v-557h295c83.333 0 156.833 -10.667 220.5 -32s116.5 -55 158.5 -101c31.333 -33.333 56 -73.666 74 -120.999s27 -101 27 -161c0 -68.667 -10.333 -129.667 -31 -183s-49.334 -98.333 -86.001 -135c-40.667 -40 -87.334 -69 -140.001 -87
s-121.334 -27 -206.001 -27h-639v1146h-370v258zM677.003 601.999v-356.999h250c36 0 66 4 90 12s44 19.667 60 35c15.333 15.333 27 34.166 35 56.499s12 46.5 12 72.5c0 28.667 -3.83301 53.5 -11.5 74.5s-19.5 39.167 -35.5 54.5c-17.333 17.333 -38.5 30.333 -63.5 39
s-55.833 13 -92.5 13h-244z" />
    <glyph glyph-name="afii10044" unicode="&#x42a;" horiz-adv-x="1525" 
d="M-20 1404l697.003 -0.000976562v-557h295c83.333 0 156.833 -10.667 220.5 -32s116.5 -55 158.5 -101c31.333 -33.333 56 -73.666 74 -120.999s27 -101 27 -161c0 -68.667 -10.333 -129.667 -31 -183s-49.334 -98.333 -86.001 -135c-40.667 -40 -87.334 -69 -140.001 -87
s-121.334 -27 -206.001 -27h-639v1146h-370v258zM677.003 601.999v-356.999h250c36 0 66 4 90 12s44 19.667 60 35c15.333 15.333 27 34.166 35 56.499s12 46.5 12 72.5c0 28.667 -3.83301 53.5 -11.5 74.5s-19.5 39.167 -35.5 54.5c-17.333 17.333 -38.5 30.333 -63.5 39
s-55.833 13 -92.5 13h-244z" />
    <glyph glyph-name="afii10045" unicode="&#xdb;" horiz-adv-x="1847" 
d="M143 1404l328 -0.000976562v-557h294c84 0 157.667 -10.667 221 -32s116 -55 158 -101c31.333 -33.333 56 -73.666 74 -120.999s27 -101 27 -161c0 -68.667 -10.333 -129.667 -31 -183s-49.334 -98.333 -86.001 -135c-40.667 -40 -87.167 -69 -139.5 -87
s-121.166 -27 -206.499 -27h-639v1404zM471 601.999v-356.999h249c36 0 66 4 90 12s44 19.667 60 35c15.333 15.333 27 34.166 35 56.499s12 46.5 12 72.5c0 28.667 -3.83301 53.5 -11.5 74.5s-19.5 39.167 -35.5 54.5c-17.333 17.333 -38.5 30.333 -63.5 39
s-55.833 13 -92.5 13h-243zM1376 1404h327v-1404h-327v1404z" />
    <glyph glyph-name="afii10045" unicode="&#x42b;" horiz-adv-x="1847" 
d="M143 1404l328 -0.000976562v-557h294c84 0 157.667 -10.667 221 -32s116 -55 158 -101c31.333 -33.333 56 -73.666 74 -120.999s27 -101 27 -161c0 -68.667 -10.333 -129.667 -31 -183s-49.334 -98.333 -86.001 -135c-40.667 -40 -87.167 -69 -139.5 -87
s-121.166 -27 -206.499 -27h-639v1404zM471 601.999v-356.999h249c36 0 66 4 90 12s44 19.667 60 35c15.333 15.333 27 34.166 35 56.499s12 46.5 12 72.5c0 28.667 -3.83301 53.5 -11.5 74.5s-19.5 39.167 -35.5 54.5c-17.333 17.333 -38.5 30.333 -63.5 39
s-55.833 13 -92.5 13h-243zM1376 1404h327v-1404h-327v1404z" />
    <glyph glyph-name="afii10046" unicode="&#xdc;" horiz-adv-x="1318" 
d="M143 1404l328 -0.000976562v-557h294c84 0 157.667 -10.667 221 -32s116 -55 158 -101c31.333 -33.333 56 -73.666 74 -120.999s27 -101 27 -161c0 -68.667 -10.333 -129.667 -31 -183s-49.334 -98.333 -86.001 -135c-40.667 -40 -87.167 -69 -139.5 -87
s-121.166 -27 -206.499 -27h-639v1404zM471 601.999v-356.999h249c36 0 66 4 90 12s44 19.667 60 35c15.333 15.333 27 34.166 35 56.499s12 46.5 12 72.5c0 28.667 -3.83301 53.5 -11.5 74.5s-19.5 39.167 -35.5 54.5c-17.333 17.333 -38.5 30.333 -63.5 39
s-55.833 13 -92.5 13h-243z" />
    <glyph glyph-name="afii10046" unicode="&#x42c;" horiz-adv-x="1318" 
d="M143 1404l328 -0.000976562v-557h294c84 0 157.667 -10.667 221 -32s116 -55 158 -101c31.333 -33.333 56 -73.666 74 -120.999s27 -101 27 -161c0 -68.667 -10.333 -129.667 -31 -183s-49.334 -98.333 -86.001 -135c-40.667 -40 -87.167 -69 -139.5 -87
s-121.166 -27 -206.499 -27h-639v1404zM471 601.999v-356.999h249c36 0 66 4 90 12s44 19.667 60 35c15.333 15.333 27 34.166 35 56.499s12 46.5 12 72.5c0 28.667 -3.83301 53.5 -11.5 74.5s-19.5 39.167 -35.5 54.5c-17.333 17.333 -38.5 30.333 -63.5 39
s-55.833 13 -92.5 13h-243z" />
    <glyph glyph-name="afii10047" unicode="&#xdd;" horiz-adv-x="1343" 
d="M382 935l-302.994 56c14.667 56.667 37 110.834 67 162.501s65.667 96.5 107 134.5c49.333 44 106.833 77.833 172.5 101.5s144.834 35.5 237.501 35.5c98 0 184.333 -16.167 259 -48.5s139.334 -81.166 194.001 -146.499c50.667 -60.667 88.5 -132.5 113.5 -215.5
s37.5 -172.833 37.5 -269.5c0 -102.667 -13.833 -204.834 -41.5 -306.501s-67.834 -185.834 -120.501 -252.501c-52 -66 -116.167 -116.833 -192.5 -152.5s-166.833 -53.5 -271.5 -53.5c-84 0 -159.167 10.5 -225.5 31.5s-123.833 51.167 -172.5 90.5
c-45.333 36.667 -82.333 79.5 -111 128.5s-48.334 101.167 -59.001 156.5l305 57c6 -26 14.833 -50.167 26.5 -72.5s25.5 -42.5 41.5 -60.5c25.333 -28.667 53.666 -50.167 84.999 -64.5s67 -21.5 107 -21.5c52 0 97.167 11.667 135.5 35s69.833 58.666 94.5 105.999
c15.333 30 27.166 66 35.499 108s12.166 85.333 11.499 130h-408v237h408c0 40.667 -5.5 82.5 -16.5 125.5s-25.833 79.167 -44.5 108.5c-22.667 34 -50.334 59.833 -83.001 77.5s-71.334 26.5 -116.001 26.5c-39.333 0 -76 -7.66699 -110 -23s-64.333 -39 -91 -71
c-16 -19.333 -30.333 -42.166 -43 -68.499s-22.334 -53.5 -29.001 -81.5z" />
    <glyph glyph-name="afii10047" unicode="&#x42d;" horiz-adv-x="1343" 
d="M382 935l-302.994 56c14.667 56.667 37 110.834 67 162.501s65.667 96.5 107 134.5c49.333 44 106.833 77.833 172.5 101.5s144.834 35.5 237.501 35.5c98 0 184.333 -16.167 259 -48.5s139.334 -81.166 194.001 -146.499c50.667 -60.667 88.5 -132.5 113.5 -215.5
s37.5 -172.833 37.5 -269.5c0 -102.667 -13.833 -204.834 -41.5 -306.501s-67.834 -185.834 -120.501 -252.501c-52 -66 -116.167 -116.833 -192.5 -152.5s-166.833 -53.5 -271.5 -53.5c-84 0 -159.167 10.5 -225.5 31.5s-123.833 51.167 -172.5 90.5
c-45.333 36.667 -82.333 79.5 -111 128.5s-48.334 101.167 -59.001 156.5l305 57c6 -26 14.833 -50.167 26.5 -72.5s25.5 -42.5 41.5 -60.5c25.333 -28.667 53.666 -50.167 84.999 -64.5s67 -21.5 107 -21.5c52 0 97.167 11.667 135.5 35s69.833 58.666 94.5 105.999
c15.333 30 27.166 66 35.499 108s12.166 85.333 11.499 130h-408v237h408c0 40.667 -5.5 82.5 -16.5 125.5s-25.833 79.167 -44.5 108.5c-22.667 34 -50.334 59.833 -83.001 77.5s-71.334 26.5 -116.001 26.5c-39.333 0 -76 -7.66699 -110 -23s-64.333 -39 -91 -71
c-16 -19.333 -30.333 -42.166 -43 -68.499s-22.334 -53.5 -29.001 -81.5z" />
    <glyph glyph-name="afii10048" unicode="&#xde;" horiz-adv-x="1982" 
d="M471 847l180.002 -0.000976562c10 82.667 33.833 162.834 71.5 240.501s85.5 142.5 143.5 194.5c55.333 49.333 117.166 85.5 185.499 108.5s142.166 34.5 221.499 34.5c80 0 154 -11.5 222 -34.5s130 -59.167 186 -108.5c74.667 -66.667 130.834 -151 168.501 -253
s56.5 -211 56.5 -327c0 -117.333 -18.5 -225 -55.5 -323s-88.833 -178.667 -155.5 -242c-52.667 -50.667 -115 -89.5 -187 -116.5s-150.333 -40.5 -235 -40.5s-162.834 13.5 -234.501 40.5s-134.167 65.833 -187.5 116.5c-57.333 54.667 -105 124.167 -143 208.5
s-60.333 172.5 -67 264.5h-170v-610h-328v1404h328v-557zM1273 1179c-45.333 0 -84.832 -10.333 -118.499 -31s-62.834 -51.334 -87.501 -92.001c-25.333 -40 -44 -89.333 -56 -148s-18 -126 -18 -202s6 -144.333 18 -205s30.667 -111 56 -151
c24.667 -40.667 54.667 -71.667 90 -93s74 -32 116 -32c42.667 0 81.667 10.667 117 32s65.333 52.333 90 93c25.333 40 44 90.333 56 151s18 129 18 205s-6.16699 143.333 -18.5 202s-30.833 108 -55.5 148c-24.667 40.667 -54 71.334 -88 92.001s-73.667 31 -119 31z" />
    <glyph glyph-name="afii10048" unicode="&#x42e;" horiz-adv-x="1982" 
d="M471 847l180.002 -0.000976562c10 82.667 33.833 162.834 71.5 240.501s85.5 142.5 143.5 194.5c55.333 49.333 117.166 85.5 185.499 108.5s142.166 34.5 221.499 34.5c80 0 154 -11.5 222 -34.5s130 -59.167 186 -108.5c74.667 -66.667 130.834 -151 168.501 -253
s56.5 -211 56.5 -327c0 -117.333 -18.5 -225 -55.5 -323s-88.833 -178.667 -155.5 -242c-52.667 -50.667 -115 -89.5 -187 -116.5s-150.333 -40.5 -235 -40.5s-162.834 13.5 -234.501 40.5s-134.167 65.833 -187.5 116.5c-57.333 54.667 -105 124.167 -143 208.5
s-60.333 172.5 -67 264.5h-170v-610h-328v1404h328v-557zM1273 1179c-45.333 0 -84.832 -10.333 -118.499 -31s-62.834 -51.334 -87.501 -92.001c-25.333 -40 -44 -89.333 -56 -148s-18 -126 -18 -202s6 -144.333 18 -205s30.667 -111 56 -151
c24.667 -40.667 54.667 -71.667 90 -93s74 -32 116 -32c42.667 0 81.667 10.667 117 32s65.333 52.333 90 93c25.333 40 44 90.333 56 151s18 129 18 205s-6.16699 143.333 -18.5 202s-30.833 108 -55.5 148c-24.667 40.667 -54 71.334 -88 92.001s-73.667 31 -119 31z" />
    <glyph glyph-name="afii10049" unicode="&#xdf;" horiz-adv-x="1386" 
d="M1243 1404l0.000976562 -1404h-328v561h-193l-288 -561h-357l340 595c-38.667 10 -75.834 24.167 -111.501 42.5s-64.5 38.5 -86.5 60.5c-34 32 -59.667 71.667 -77 119s-26 101 -26 161c0 73.333 13.833 138.333 41.5 195s67.167 103.667 118.5 141
c40 29.333 87.333 51.666 142 66.999s124.667 23 210 23h615zM915.001 1159l-247.997 -0.000976562c-32.667 0 -63.334 -3.33301 -92.001 -10s-51.334 -15.667 -68.001 -27c-20.667 -14.667 -36.334 -33.667 -47.001 -57s-16 -50.666 -16 -81.999
c0 -30 4.66699 -55.667 14 -77s23 -39.666 41 -54.999c18.667 -14.667 41 -25.834 67 -33.501s58.333 -11.5 97 -11.5h252v353z" />
    <glyph glyph-name="afii10049" unicode="&#x42f;" horiz-adv-x="1386" 
d="M1243 1404l0.000976562 -1404h-328v561h-193l-288 -561h-357l340 595c-38.667 10 -75.834 24.167 -111.501 42.5s-64.5 38.5 -86.5 60.5c-34 32 -59.667 71.667 -77 119s-26 101 -26 161c0 73.333 13.833 138.333 41.5 195s67.167 103.667 118.5 141
c40 29.333 87.333 51.666 142 66.999s124.667 23 210 23h615zM915.001 1159l-247.997 -0.000976562c-32.667 0 -63.334 -3.33301 -92.001 -10s-51.334 -15.667 -68.001 -27c-20.667 -14.667 -36.334 -33.667 -47.001 -57s-16 -50.666 -16 -81.999
c0 -30 4.66699 -55.667 14 -77s23 -39.666 41 -54.999c18.667 -14.667 41 -25.834 67 -33.501s58.333 -11.5 97 -11.5h252v353z" />
    <glyph glyph-name="afii10065" unicode="&#xe0;" horiz-adv-x="1206" 
d="M389 722l-282.999 30.9941c12 51.333 33.167 98.333 63.5 141s69.166 77.667 116.499 105c40 22.667 87 39.167 141 49.5s115.667 15.5 185 15.5c114.667 0 205.834 -14 273.501 -42s117.834 -75.333 150.501 -142c12.667 -26.667 22 -56 28 -88s9 -86.667 9 -164v-403
c0 -36 2.5 -73 7.5 -111s12.5 -76 22.5 -114h-297c-4.66699 26 -8.33398 52.833 -11.001 80.5s-4.33398 55.834 -5.00098 84.501c-35.333 -62 -82.833 -108.333 -142.5 -139s-128.834 -46 -207.501 -46c-50.667 0 -99 6.5 -145 19.5s-85 32.833 -117 59.5
c-33.333 27.333 -59.5 61.333 -78.5 102s-28.5 84.334 -28.5 131.001c0 68 18.833 128 56.5 180s93.167 93 166.5 123c46 19.333 105 34.833 177 46.5s141.333 18.834 208 21.501l99 4v23c0 28 -2.66699 52.333 -8 73s-13 37.334 -23 50.001
c-13.333 16 -32.5 27.833 -57.5 35.5s-54.833 11.5 -89.5 11.5c-33.333 0 -60.666 -2.66699 -81.999 -8s-40 -13 -56 -23c-18 -11.333 -33.5 -26.166 -46.5 -44.499s-21.833 -39.166 -26.5 -62.499zM778.001 500.994l-92.001 -8.00195
c-81.333 -7.33301 -140 -17.666 -176 -30.999s-65 -33 -87 -59c-10.667 -13.333 -18.667 -28 -24 -44s-8 -32.667 -8 -50c0 -19.333 3.83301 -36.666 11.5 -51.999s18.834 -28.666 33.501 -39.999c13.333 -10.667 30 -18.834 50 -24.501s40.667 -8.5 62 -8.5
c32.667 0 65 6.66699 97 20s57.667 32 77 56c17.333 20.667 31 47.667 41 81s15 68.333 15 105v55z" />
    <glyph glyph-name="afii10065" unicode="&#x430;" horiz-adv-x="1206" 
d="M389 722l-282.999 30.9941c12 51.333 33.167 98.333 63.5 141s69.166 77.667 116.499 105c40 22.667 87 39.167 141 49.5s115.667 15.5 185 15.5c114.667 0 205.834 -14 273.501 -42s117.834 -75.333 150.501 -142c12.667 -26.667 22 -56 28 -88s9 -86.667 9 -164v-403
c0 -36 2.5 -73 7.5 -111s12.5 -76 22.5 -114h-297c-4.66699 26 -8.33398 52.833 -11.001 80.5s-4.33398 55.834 -5.00098 84.501c-35.333 -62 -82.833 -108.333 -142.5 -139s-128.834 -46 -207.501 -46c-50.667 0 -99 6.5 -145 19.5s-85 32.833 -117 59.5
c-33.333 27.333 -59.5 61.333 -78.5 102s-28.5 84.334 -28.5 131.001c0 68 18.833 128 56.5 180s93.167 93 166.5 123c46 19.333 105 34.833 177 46.5s141.333 18.834 208 21.501l99 4v23c0 28 -2.66699 52.333 -8 73s-13 37.334 -23 50.001
c-13.333 16 -32.5 27.833 -57.5 35.5s-54.833 11.5 -89.5 11.5c-33.333 0 -60.666 -2.66699 -81.999 -8s-40 -13 -56 -23c-18 -11.333 -33.5 -26.166 -46.5 -44.499s-21.833 -39.166 -26.5 -62.499zM778.001 500.994l-92.001 -8.00195
c-81.333 -7.33301 -140 -17.666 -176 -30.999s-65 -33 -87 -59c-10.667 -13.333 -18.667 -28 -24 -44s-8 -32.667 -8 -50c0 -19.333 3.83301 -36.666 11.5 -51.999s18.834 -28.666 33.501 -39.999c13.333 -10.667 30 -18.834 50 -24.501s40.667 -8.5 62 -8.5
c32.667 0 65 6.66699 97 20s57.667 32 77 56c17.333 20.667 31 47.667 41 81s15 68.333 15 105v55z" />
    <glyph glyph-name="afii10066" unicode="&#xe1;" horiz-adv-x="1216" 
d="M1075 1427l0.00195312 -225.001c-38.667 -14.667 -76.5 -27 -113.5 -37s-78.5 -19 -124.5 -27c-65.333 -10.667 -104 -16.667 -116 -18s-38.667 -5.66602 -80 -12.999c-56.667 -9.33301 -98.834 -18.166 -126.501 -26.499s-51.834 -18.5 -72.501 -30.5
c-44 -24.667 -78.667 -59.667 -104 -105s-42 -99 -50 -161h4c40.667 68 93.334 118.5 158.001 151.5s141.667 49.5 231 49.5c54.667 0 106.167 -7.16699 154.5 -21.5s92.5 -35.833 132.5 -64.5c57.333 -42 101.666 -96.333 132.999 -163s47 -143.667 47 -231
c0 -72.667 -10.333 -139.667 -31 -201s-49.667 -114.333 -87 -159c-48.667 -58 -106.167 -100 -172.5 -126s-146.833 -39 -241.5 -39c-92 0 -168.833 13.667 -230.5 41s-115.167 68.666 -160.5 123.999c-48 58 -84 127.833 -108 209.5s-36 170.834 -36 267.501
c0 120.667 16.167 231.5 48.5 332.5s79.166 181.5 140.499 241.5c40.667 39.333 88.167 70.833 142.5 94.5s132.5 43.167 234.5 58.5c169.333 26 273.833 43.167 313.5 51.5s77.834 17.166 114.501 26.499zM618.002 793.999c-28 0 -54.167 -4.99805 -78.5 -14.998
s-45.833 -24.667 -64.5 -44c-24 -24.667 -42.333 -57.167 -55 -97.5s-19 -88.5 -19 -144.5c0 -62.667 6.5 -114.334 19.5 -155.001s33.833 -74.334 62.5 -101.001c18 -16.667 38.333 -29.667 61 -39s46 -14 70 -14c30.667 0 58.5 5.5 83.5 16.5s46.167 26.5 63.5 46.5
c22.667 26 39.667 58.833 51 98.5s17 90.167 17 151.5c0 52 -5 96.833 -15 134.5s-26.333 70.167 -49 97.5c-18 22 -39 38.333 -63 49s-52 16 -84 16z" />
    <glyph glyph-name="afii10066" unicode="&#x431;" horiz-adv-x="1216" 
d="M1075 1427l0.00195312 -225.001c-38.667 -14.667 -76.5 -27 -113.5 -37s-78.5 -19 -124.5 -27c-65.333 -10.667 -104 -16.667 -116 -18s-38.667 -5.66602 -80 -12.999c-56.667 -9.33301 -98.834 -18.166 -126.501 -26.499s-51.834 -18.5 -72.501 -30.5
c-44 -24.667 -78.667 -59.667 -104 -105s-42 -99 -50 -161h4c40.667 68 93.334 118.5 158.001 151.5s141.667 49.5 231 49.5c54.667 0 106.167 -7.16699 154.5 -21.5s92.5 -35.833 132.5 -64.5c57.333 -42 101.666 -96.333 132.999 -163s47 -143.667 47 -231
c0 -72.667 -10.333 -139.667 -31 -201s-49.667 -114.333 -87 -159c-48.667 -58 -106.167 -100 -172.5 -126s-146.833 -39 -241.5 -39c-92 0 -168.833 13.667 -230.5 41s-115.167 68.666 -160.5 123.999c-48 58 -84 127.833 -108 209.5s-36 170.834 -36 267.501
c0 120.667 16.167 231.5 48.5 332.5s79.166 181.5 140.499 241.5c40.667 39.333 88.167 70.833 142.5 94.5s132.5 43.167 234.5 58.5c169.333 26 273.833 43.167 313.5 51.5s77.834 17.166 114.501 26.499zM618.002 793.999c-28 0 -54.167 -4.99805 -78.5 -14.998
s-45.833 -24.667 -64.5 -44c-24 -24.667 -42.333 -57.167 -55 -97.5s-19 -88.5 -19 -144.5c0 -62.667 6.5 -114.334 19.5 -155.001s33.833 -74.334 62.5 -101.001c18 -16.667 38.333 -29.667 61 -39s46 -14 70 -14c30.667 0 58.5 5.5 83.5 16.5s46.167 26.5 63.5 46.5
c22.667 26 39.667 58.833 51 98.5s17 90.167 17 151.5c0 52 -5 96.833 -15 134.5s-26.333 70.167 -49 97.5c-18 22 -39 38.333 -63 49s-52 16 -84 16z" />
    <glyph glyph-name="afii10067" unicode="&#xe2;" horiz-adv-x="1214" 
d="M129 1044l593.001 0.000976562c51.333 0 96.333 -4.33301 135 -13s71.667 -22 99 -40c32.667 -22 57.834 -50.167 75.501 -84.5s26.5 -72.5 26.5 -114.5c0 -60 -18 -111.667 -54 -155s-86 -70.666 -150 -81.999v-5c33.333 -1.33301 66.5 -8.5 99.5 -21.5
s61.167 -30.833 84.5 -53.5s41.5 -49.334 54.5 -80.001s19.5 -64.334 19.5 -101.001c0 -47.333 -10 -91 -30 -131s-47 -72.667 -81 -98c-28.667 -21.333 -62.334 -37.5 -101.001 -48.5s-86.334 -16.5 -143.001 -16.5h-628v1044zM434.001 870.001l-0.000976562 -247.999h157
c32 0 56.833 2.83301 74.5 8.5s33.167 14.5 46.5 26.5c12.667 11.333 22.334 25.166 29.001 41.499s10 34.5 10 54.5c0 18 -3.83301 35 -11.5 51s-18.167 29 -31.5 39c-12 10 -26.167 17 -42.5 21s-38.833 6 -67.5 6h-164zM434 448.002l0.000976562 -274.002h194
c27.333 0 51.666 3.16699 72.999 9.5s38.666 15.833 51.999 28.5c12 12 21.5 27 28.5 45s10.5 36 10.5 54c0 20.667 -4.66699 40.334 -14 59.001s-21.666 33.667 -36.999 45c-13.333 10.667 -29.833 18.834 -49.5 24.501s-42.167 8.5 -67.5 8.5h-190z" />
    <glyph glyph-name="afii10067" unicode="&#x432;" horiz-adv-x="1214" 
d="M129 1044l593.001 0.000976562c51.333 0 96.333 -4.33301 135 -13s71.667 -22 99 -40c32.667 -22 57.834 -50.167 75.501 -84.5s26.5 -72.5 26.5 -114.5c0 -60 -18 -111.667 -54 -155s-86 -70.666 -150 -81.999v-5c33.333 -1.33301 66.5 -8.5 99.5 -21.5
s61.167 -30.833 84.5 -53.5s41.5 -49.334 54.5 -80.001s19.5 -64.334 19.5 -101.001c0 -47.333 -10 -91 -30 -131s-47 -72.667 -81 -98c-28.667 -21.333 -62.334 -37.5 -101.001 -48.5s-86.334 -16.5 -143.001 -16.5h-628v1044zM434.001 870.001l-0.000976562 -247.999h157
c32 0 56.833 2.83301 74.5 8.5s33.167 14.5 46.5 26.5c12.667 11.333 22.334 25.166 29.001 41.499s10 34.5 10 54.5c0 18 -3.83301 35 -11.5 51s-18.167 29 -31.5 39c-12 10 -26.167 17 -42.5 21s-38.833 6 -67.5 6h-164zM434 448.002l0.000976562 -274.002h194
c27.333 0 51.666 3.16699 72.999 9.5s38.666 15.833 51.999 28.5c12 12 21.5 27 28.5 45s10.5 36 10.5 54c0 20.667 -4.66699 40.334 -14 59.001s-21.666 33.667 -36.999 45c-13.333 10.667 -29.833 18.834 -49.5 24.501s-42.167 8.5 -67.5 8.5h-190z" />
    <glyph glyph-name="glyph146" unicode="&#xe3;" horiz-adv-x="917" 
d="M129 1044h768v-215h-463v-829h-305v1044z" />
    <glyph glyph-name="glyph146" unicode="&#x433;" horiz-adv-x="917" 
d="M129 1044h768v-215h-463v-829h-305v1044z" />
    <glyph glyph-name="afii10069" unicode="&#xe4;" horiz-adv-x="1206" 
d="M272 1044l739.002 0.000976562v-829h117v-491h-277v276h-534v-276h-277v491h93c29.333 51.333 54.166 110 74.499 176s34.833 132 43.5 198c3.33301 22.667 6.16602 46.667 8.49902 72s5.83301 127.666 10.5 306.999zM495.002 829.001v-39
c0 -49.333 -2.33301 -100 -7 -152s-11.334 -104.333 -20.001 -157c-9.33301 -60 -17.166 -101.333 -23.499 -124s-23.5 -70 -51.5 -142h313v614h-211z" />
    <glyph glyph-name="afii10069" unicode="&#x434;" horiz-adv-x="1206" 
d="M272 1044l739.002 0.000976562v-829h117v-491h-277v276h-534v-276h-277v491h93c29.333 51.333 54.166 110 74.499 176s34.833 132 43.5 198c3.33301 22.667 6.16602 46.667 8.49902 72s5.83301 127.666 10.5 306.999zM495.002 829.001v-39
c0 -49.333 -2.33301 -100 -7 -152s-11.334 -104.333 -20.001 -157c-9.33301 -60 -17.166 -101.333 -23.499 -124s-23.5 -70 -51.5 -142h313v614h-211z" />
    <glyph glyph-name="afii10070" unicode="&#xe5;" horiz-adv-x="1177" 
d="M813 346l286 -27.001c-14.667 -52 -36.667 -98.667 -66 -140s-64.666 -76.666 -105.999 -105.999c-42 -29.333 -91.167 -52.166 -147.5 -68.499s-118.5 -24.5 -186.5 -24.5c-72.667 0 -141.5 12 -206.5 36s-121.5 60 -169.5 108c-48 47.333 -85 104.666 -111 171.999
s-39 142 -39 224c0 94 16.333 176.667 49 248s77.667 131.333 135 180c44.667 37.333 95 66 151 86s120.333 30 193 30c82.667 0 157.5 -15 224.5 -45s123.5 -73 169.5 -129c39.333 -48 69.333 -104.333 90 -169s31 -133.667 31 -207v-54h-723
c-1.33301 -29.333 1 -58.666 7 -87.999s15 -55.333 27 -78c20 -36.667 45.667 -64.167 77 -82.5s68 -27.5 110 -27.5c31.333 0 60.166 5.16699 86.499 15.5s48.5 24.833 66.5 43.5c12.667 13.333 23.5 28.666 32.5 45.999s15.5 36.333 19.5 57zM387 633.999
l409.001 0.00195312c0.666992 26 -2.33301 52 -9 78s-17.334 49.333 -32.001 70c-18 25.333 -40.167 44.666 -66.5 57.999s-55.833 20 -88.5 20c-32 0 -61.333 -5.83301 -88 -17.5s-49.334 -27.834 -68.001 -48.501c-18 -19.333 -32.167 -43 -42.5 -71
s-15.166 -57.667 -14.499 -89z" />
    <glyph glyph-name="afii10070" unicode="&#x435;" horiz-adv-x="1177" 
d="M813 346l286 -27.001c-14.667 -52 -36.667 -98.667 -66 -140s-64.666 -76.666 -105.999 -105.999c-42 -29.333 -91.167 -52.166 -147.5 -68.499s-118.5 -24.5 -186.5 -24.5c-72.667 0 -141.5 12 -206.5 36s-121.5 60 -169.5 108c-48 47.333 -85 104.666 -111 171.999
s-39 142 -39 224c0 94 16.333 176.667 49 248s77.667 131.333 135 180c44.667 37.333 95 66 151 86s120.333 30 193 30c82.667 0 157.5 -15 224.5 -45s123.5 -73 169.5 -129c39.333 -48 69.333 -104.333 90 -169s31 -133.667 31 -207v-54h-723
c-1.33301 -29.333 1 -58.666 7 -87.999s15 -55.333 27 -78c20 -36.667 45.667 -64.167 77 -82.5s68 -27.5 110 -27.5c31.333 0 60.166 5.16699 86.499 15.5s48.5 24.833 66.5 43.5c12.667 13.333 23.5 28.666 32.5 45.999s15.5 36.333 19.5 57zM387 633.999
l409.001 0.00195312c0.666992 26 -2.33301 52 -9 78s-17.334 49.333 -32.001 70c-18 25.333 -40.167 44.666 -66.5 57.999s-55.833 20 -88.5 20c-32 0 -61.333 -5.83301 -88 -17.5s-49.334 -27.834 -68.001 -48.501c-18 -19.333 -32.167 -43 -42.5 -71
s-15.166 -57.667 -14.499 -89z" />
    <glyph glyph-name="afii10072" unicode="&#xe6;" horiz-adv-x="1601" 
d="M659 1044l282.999 -0.000976562v-399h55c33.333 0 59.5 7.5 78.5 22.5s35.167 40.833 48.5 77.5c7.33301 21.333 16 51.666 26 90.999s19 69 27 89c13.333 35.333 28.833 63 46.5 83s39.167 32 64.5 36h243c-18 -22 -33.833 -45.833 -47.5 -71.5
s-27.167 -57.167 -40.5 -94.5l-27.5 -86c-11.667 -36.667 -21.5 -64.667 -29.5 -84c-20 -47.333 -42.833 -81.666 -68.5 -102.999s-56.834 -34 -93.501 -38v-4c33.333 -6.66699 62.166 -16.667 86.499 -30s46.833 -32.666 67.5 -57.999c32 -40.667 60.5 -104 85.5 -190
s42.833 -142.333 53.5 -169c8.66699 -20.667 18.334 -40.834 29.001 -60.501s22.334 -38.167 35.001 -55.5h-283c-34 4.66699 -61.833 26.667 -83.5 66s-43.834 101.666 -66.501 186.999c-14 54.667 -25.167 92 -33.5 112s-18.166 35.333 -29.499 46
c-10.667 10 -22.334 17.333 -35.001 22s-29.667 7 -51 7h-57v-440h-283v440h-57c-21.333 0 -38.5 -2.33301 -51.5 -7s-24.5 -12 -34.5 -22c-11.333 -10.667 -21.333 -26 -30 -46s-20 -57.333 -34 -112c-22 -85.333 -44 -147.666 -66 -186.999s-49.667 -61.333 -83 -66h-283
c12 17.333 23.333 35.833 34 55.5s20.334 39.834 29.001 60.501c11.333 26.667 29.5 83 54.5 169s53.5 149.333 85.5 190c20 25.333 42.333 44.666 67 57.999s53.334 23.333 86.001 30v4c-36.667 4 -67.834 16.667 -93.501 38s-48.167 55.666 -67.5 102.999
c-8.66699 19.333 -18.667 47.333 -30 84s-20.666 65.334 -27.999 86.001c-12.667 37.333 -26 68.833 -40 94.5s-30 49.5 -48 71.5h244c24.667 -4 45.834 -16 63.501 -36s33.167 -47.667 46.5 -83c8 -20 17 -49.667 27 -89s19 -69.666 27 -90.999
c12.667 -36.667 28.667 -62.5 48 -77.5s45.666 -22.5 78.999 -22.5h55v399z" />
    <glyph glyph-name="afii10072" unicode="&#x436;" horiz-adv-x="1601" 
d="M659 1044l282.999 -0.000976562v-399h55c33.333 0 59.5 7.5 78.5 22.5s35.167 40.833 48.5 77.5c7.33301 21.333 16 51.666 26 90.999s19 69 27 89c13.333 35.333 28.833 63 46.5 83s39.167 32 64.5 36h243c-18 -22 -33.833 -45.833 -47.5 -71.5
s-27.167 -57.167 -40.5 -94.5l-27.5 -86c-11.667 -36.667 -21.5 -64.667 -29.5 -84c-20 -47.333 -42.833 -81.666 -68.5 -102.999s-56.834 -34 -93.501 -38v-4c33.333 -6.66699 62.166 -16.667 86.499 -30s46.833 -32.666 67.5 -57.999c32 -40.667 60.5 -104 85.5 -190
s42.833 -142.333 53.5 -169c8.66699 -20.667 18.334 -40.834 29.001 -60.501s22.334 -38.167 35.001 -55.5h-283c-34 4.66699 -61.833 26.667 -83.5 66s-43.834 101.666 -66.501 186.999c-14 54.667 -25.167 92 -33.5 112s-18.166 35.333 -29.499 46
c-10.667 10 -22.334 17.333 -35.001 22s-29.667 7 -51 7h-57v-440h-283v440h-57c-21.333 0 -38.5 -2.33301 -51.5 -7s-24.5 -12 -34.5 -22c-11.333 -10.667 -21.333 -26 -30 -46s-20 -57.333 -34 -112c-22 -85.333 -44 -147.666 -66 -186.999s-49.667 -61.333 -83 -66h-283
c12 17.333 23.333 35.833 34 55.5s20.334 39.834 29.001 60.501c11.333 26.667 29.5 83 54.5 169s53.5 149.333 85.5 190c20 25.333 42.333 44.666 67 57.999s53.334 23.333 86.001 30v4c-36.667 4 -67.834 16.667 -93.501 38s-48.167 55.666 -67.5 102.999
c-8.66699 19.333 -18.667 47.333 -30 84s-20.666 65.334 -27.999 86.001c-12.667 37.333 -26 68.833 -40 94.5s-30 49.5 -48 71.5h244c24.667 -4 45.834 -16 63.501 -36s33.167 -47.667 46.5 -83c8 -20 17 -49.667 27 -89s19 -69.666 27 -90.999
c12.667 -36.667 28.667 -62.5 48 -77.5s45.666 -22.5 78.999 -22.5h55v399z" />
    <glyph glyph-name="afii10073" unicode="&#xe7;" horiz-adv-x="1132" 
d="M331 698l-255.995 51.001c11.333 46 29.666 88.167 54.999 126.5s57.666 71.166 96.999 98.499c40.667 29.333 88.667 51.666 144 66.999s118.666 23 189.999 23c54 0 104 -4.16699 150 -12.5s90 -22.5 132 -42.5c59.333 -27.333 102.5 -59.833 129.5 -97.5
s40.5 -80.834 40.5 -129.501c0 -33.333 -5.83301 -63.833 -17.5 -91.5s-28.167 -51.834 -49.5 -72.501c-20 -18.667 -42.333 -33.667 -67 -45s-50.334 -19 -77.001 -23v-4c30 -4 59.5 -12.5 88.5 -25.5s52.833 -28.833 71.5 -47.5c20.667 -20.667 37.167 -46.667 49.5 -78
s18.5 -62.666 18.5 -93.999c0 -48 -13.167 -95 -39.5 -141s-62.5 -83 -108.5 -111c-38.667 -24.667 -85.334 -42.334 -140.001 -53.001s-117 -16 -187 -16c-87.333 0 -158.666 7.66699 -213.999 23s-102.333 37.333 -141 66c-38 28.667 -69 63.334 -93 104.001
s-39.333 84 -46 130l268 43c2 -19.333 6.83301 -37.666 14.5 -54.999s18.5 -33.333 32.5 -48c18.667 -18.667 41.334 -33.167 68.001 -43.5s56 -15.5 88 -15.5c22 0 44.5 3 67.5 9s42.833 14.667 59.5 26c18 12 31 26.167 39 42.5s12 35.5 12 57.5
c0 23.333 -3.66699 42.333 -11 57s-18 27 -32 37c-14 10.667 -33.5 19.167 -58.5 25.5s-51.833 9.5 -80.5 9.5h-103v174h103c16.667 0 37.167 3 61.5 9s42.833 12.667 55.5 20c15.333 9.33301 28 22.5 38 39.5s15 36.5 15 58.5c0 16.667 -3.33301 31.334 -10 44.001
s-18.334 24.667 -35.001 36c-15.333 10 -31.333 17.667 -48 23s-36.334 8 -59.001 8c-30.667 0 -59 -4.33301 -85 -13s-48.667 -21.667 -68 -39c-16.667 -14 -30.167 -30.5 -40.5 -49.5s-17.5 -39.167 -21.5 -60.5z" />
    <glyph glyph-name="afii10073" unicode="&#x437;" horiz-adv-x="1132" 
d="M331 698l-255.995 51.001c11.333 46 29.666 88.167 54.999 126.5s57.666 71.166 96.999 98.499c40.667 29.333 88.667 51.666 144 66.999s118.666 23 189.999 23c54 0 104 -4.16699 150 -12.5s90 -22.5 132 -42.5c59.333 -27.333 102.5 -59.833 129.5 -97.5
s40.5 -80.834 40.5 -129.501c0 -33.333 -5.83301 -63.833 -17.5 -91.5s-28.167 -51.834 -49.5 -72.501c-20 -18.667 -42.333 -33.667 -67 -45s-50.334 -19 -77.001 -23v-4c30 -4 59.5 -12.5 88.5 -25.5s52.833 -28.833 71.5 -47.5c20.667 -20.667 37.167 -46.667 49.5 -78
s18.5 -62.666 18.5 -93.999c0 -48 -13.167 -95 -39.5 -141s-62.5 -83 -108.5 -111c-38.667 -24.667 -85.334 -42.334 -140.001 -53.001s-117 -16 -187 -16c-87.333 0 -158.666 7.66699 -213.999 23s-102.333 37.333 -141 66c-38 28.667 -69 63.334 -93 104.001
s-39.333 84 -46 130l268 43c2 -19.333 6.83301 -37.666 14.5 -54.999s18.5 -33.333 32.5 -48c18.667 -18.667 41.334 -33.167 68.001 -43.5s56 -15.5 88 -15.5c22 0 44.5 3 67.5 9s42.833 14.667 59.5 26c18 12 31 26.167 39 42.5s12 35.5 12 57.5
c0 23.333 -3.66699 42.333 -11 57s-18 27 -32 37c-14 10.667 -33.5 19.167 -58.5 25.5s-51.833 9.5 -80.5 9.5h-103v174h103c16.667 0 37.167 3 61.5 9s42.833 12.667 55.5 20c15.333 9.33301 28 22.5 38 39.5s15 36.5 15 58.5c0 16.667 -3.33301 31.334 -10 44.001
s-18.334 24.667 -35.001 36c-15.333 10 -31.333 17.667 -48 23s-36.334 8 -59.001 8c-30.667 0 -59 -4.33301 -85 -13s-48.667 -21.667 -68 -39c-16.667 -14 -30.167 -30.5 -40.5 -49.5s-17.5 -39.167 -21.5 -60.5z" />
    <glyph glyph-name="afii10074" unicode="&#xe8;" horiz-adv-x="1202" 
d="M129 1044l304.999 -0.000976562v-487c0 -22 -0.666992 -42.167 -2 -60.5s-3.66602 -35.166 -6.99902 -50.499l31.5 51l26.5 41l285 428v78h305v-1044h-305v503c0 15.333 0.666992 33 2 53s3.33301 38.667 6 56c-2.66699 -6.66699 -5.5 -13 -8.5 -19
s-20.167 -32.333 -51.5 -79l-282 -428v-86h-305v1044z" />
    <glyph glyph-name="afii10074" unicode="&#x438;" horiz-adv-x="1202" 
d="M129 1044l304.999 -0.000976562v-487c0 -22 -0.666992 -42.167 -2 -60.5s-3.66602 -35.166 -6.99902 -50.499l31.5 51l26.5 41l285 428v78h305v-1044h-305v503c0 15.333 0.666992 33 2 53s3.33301 38.667 6 56c-2.66699 -6.66699 -5.5 -13 -8.5 -19
s-20.167 -32.333 -51.5 -79l-282 -428v-86h-305v1044z" />
    <glyph glyph-name="afii10075" unicode="&#xe9;" horiz-adv-x="1202" 
d="M129 1044l304.999 -0.000976562v-487c0 -22 -0.666992 -42.167 -2 -60.5s-3.66602 -35.166 -6.99902 -50.499l31.5 51l26.5 41l285 428v78h305v-1044h-305v503c0 15.333 0.666992 33 2 53s3.33301 38.667 6 56c-2.66699 -6.66699 -5.5 -13 -8.5 -19
s-20.167 -32.333 -51.5 -79l-282 -428v-86h-305v1044zM259.999 1417h230.999c0 -36.667 9.33301 -66 28 -88s45.667 -33 81 -33c34.667 0 61.334 11 80.001 33s28 51.333 28 88h232c-2 -80 -33.833 -145.167 -95.5 -195.5s-143.167 -75.5 -244.5 -75.5
c-102 0 -183.833 25.167 -245.5 75.5s-93.167 115.5 -94.5 195.5z" />
    <glyph glyph-name="afii10075" unicode="&#x439;" horiz-adv-x="1202" 
d="M129 1044l304.999 -0.000976562v-487c0 -22 -0.666992 -42.167 -2 -60.5s-3.66602 -35.166 -6.99902 -50.499l31.5 51l26.5 41l285 428v78h305v-1044h-305v503c0 15.333 0.666992 33 2 53s3.33301 38.667 6 56c-2.66699 -6.66699 -5.5 -13 -8.5 -19
s-20.167 -32.333 -51.5 -79l-282 -428v-86h-305v1044zM259.999 1417h230.999c0 -36.667 9.33301 -66 28 -88s45.667 -33 81 -33c34.667 0 61.334 11 80.001 33s28 51.333 28 88h232c-2 -80 -33.833 -145.167 -95.5 -195.5s-143.167 -75.5 -244.5 -75.5
c-102 0 -183.833 25.167 -245.5 75.5s-93.167 115.5 -94.5 195.5z" />
    <glyph glyph-name="glyph177" unicode="&#xea;" horiz-adv-x="1155" 
d="M129 1044l304.997 -0.00292969v-401h82c36.667 0 66.834 7.33301 90.501 22s42.5 37.334 56.5 68.001c14 30 27.5 70.667 40.5 122s26.167 89 39.5 113c12.667 23.333 27.334 41.166 44.001 53.499s34.667 19.833 54 22.5h252c-16 -16.667 -31 -35 -45 -55
s-25.667 -39.333 -35 -58c-13.333 -28 -29.5 -70.667 -48.5 -128s-30.167 -89.666 -33.5 -96.999c-16.667 -44 -38.334 -77.333 -65.001 -100s-61.667 -35.667 -105 -39v-4c34 -5.33301 64 -16.666 90 -33.999s48 -39.666 66 -66.999c10 -14.667 19.833 -32.667 29.5 -54
s24.5 -60 44.5 -116c12.667 -36 23.334 -65 32.001 -87l35 -87c14 -32 25.5 -55.667 34.5 -71s20.167 -31 33.5 -47h-287c-26 8 -47.333 23.667 -64 47s-32.667 58 -48 104c-9.33301 26 -18.666 54.5 -27.999 85.5s-17.333 54.5 -24 70.5l-14 37
c-13.333 33.333 -29.833 57.333 -49.5 72s-48.167 22 -85.5 22h-92v-438h-305v1044z" />
    <glyph glyph-name="glyph177" unicode="&#x43a;" horiz-adv-x="1155" 
d="M129 1044l304.997 -0.00292969v-401h82c36.667 0 66.834 7.33301 90.501 22s42.5 37.334 56.5 68.001c14 30 27.5 70.667 40.5 122s26.167 89 39.5 113c12.667 23.333 27.334 41.166 44.001 53.499s34.667 19.833 54 22.5h252c-16 -16.667 -31 -35 -45 -55
s-25.667 -39.333 -35 -58c-13.333 -28 -29.5 -70.667 -48.5 -128s-30.167 -89.666 -33.5 -96.999c-16.667 -44 -38.334 -77.333 -65.001 -100s-61.667 -35.667 -105 -39v-4c34 -5.33301 64 -16.666 90 -33.999s48 -39.666 66 -66.999c10 -14.667 19.833 -32.667 29.5 -54
s24.5 -60 44.5 -116c12.667 -36 23.334 -65 32.001 -87l35 -87c14 -32 25.5 -55.667 34.5 -71s20.167 -31 33.5 -47h-287c-26 8 -47.333 23.667 -64 47s-32.667 58 -48 104c-9.33301 26 -18.666 54.5 -27.999 85.5s-17.333 54.5 -24 70.5l-14 37
c-13.333 33.333 -29.833 57.333 -49.5 72s-48.167 22 -85.5 22h-92v-438h-305v1044z" />
    <glyph glyph-name="afii10077" unicode="&#xeb;" horiz-adv-x="1148" 
d="M260 1044l759.001 -0.000976562v-1044h-305v829h-215c-11.333 -266 -25.333 -437.833 -42 -515.5s-41.667 -139.167 -75 -184.5c-32.667 -45.333 -73.334 -79.5 -122.001 -102.5s-99.334 -34.5 -152.001 -34.5c-13.333 0 -26.333 0.666992 -39 2s-25.667 3.33301 -39 6
v219c4 -0.666992 8 -1 12 -1s8.33301 0.333008 13 1c32 1.33301 59.167 9.5 81.5 24.5s40.833 35.5 55.5 61.5c16.667 29.333 29.334 71.833 38.001 127.5s15.667 139.5 21 251.5c4 82.667 6.5 139.334 7.5 170.001s1.5 68 1.5 112v78z" />
    <glyph glyph-name="afii10077" unicode="&#x43b;" horiz-adv-x="1148" 
d="M260 1044l759.001 -0.000976562v-1044h-305v829h-215c-11.333 -266 -25.333 -437.833 -42 -515.5s-41.667 -139.167 -75 -184.5c-32.667 -45.333 -73.334 -79.5 -122.001 -102.5s-99.334 -34.5 -152.001 -34.5c-13.333 0 -26.333 0.666992 -39 2s-25.667 3.33301 -39 6
v219c4 -0.666992 8 -1 12 -1s8.33301 0.333008 13 1c32 1.33301 59.167 9.5 81.5 24.5s40.833 35.5 55.5 61.5c16.667 29.333 29.334 71.833 38.001 127.5s15.667 139.5 21 251.5c4 82.667 6.5 139.334 7.5 170.001s1.5 68 1.5 112v78z" />
    <glyph glyph-name="afii10078" unicode="&#xec;" horiz-adv-x="1492" 
d="M129 1044l398.999 0.00292969l225 -643l219 643h391v-1044h-278v690c0 13.333 0.166992 24.666 0.5 33.999s1.5 20.333 3.5 33c1.33301 12 2.33301 22.167 3 30.5s1 18.166 1 29.499c-28 -70.667 -42.833 -108.334 -44.5 -113.001s-3.16699 -8.66699 -4.5 -12l-227 -692
h-174l-242 692c-24 68 -37.167 104.833 -39.5 110.5s-4.16602 10.5 -5.49902 14.5c4 -76.667 6 -116 6 -118v-5v-694h-233v1044z" />
    <glyph glyph-name="afii10078" unicode="&#x43c;" horiz-adv-x="1492" 
d="M129 1044l398.999 0.00292969l225 -643l219 643h391v-1044h-278v690c0 13.333 0.166992 24.666 0.5 33.999s1.5 20.333 3.5 33c1.33301 12 2.33301 22.167 3 30.5s1 18.166 1 29.499c-28 -70.667 -42.833 -108.334 -44.5 -113.001s-3.16699 -8.66699 -4.5 -12l-227 -692
h-174l-242 692c-24 68 -37.167 104.833 -39.5 110.5s-4.16602 10.5 -5.49902 14.5c4 -76.667 6 -116 6 -118v-5v-694h-233v1044z" />
    <glyph glyph-name="afii10079" unicode="&#xed;" horiz-adv-x="1198" 
d="M129 1044h305v-391h329v391h306v-1044h-306v438h-329v-438h-305v1044z" />
    <glyph glyph-name="afii10079" unicode="&#x43d;" horiz-adv-x="1198" 
d="M129 1044h305v-391h329v391h306v-1044h-306v438h-329v-438h-305v1044z" />
    <glyph glyph-name="afii10080" unicode="&#xee;" horiz-adv-x="1171" 
d="M67 524c0 78.667 13.5 152.167 40.5 220.5s65.5 127.166 115.5 176.499c49.333 49.333 104.5 85.5 165.5 108.5s126.5 34.5 196.5 34.5s135.5 -11.5 196.5 -34.5s116.5 -59.167 166.5 -108.5c49.333 -49.333 87.5 -108.166 114.5 -176.499s40.5 -141.833 40.5 -220.5
c0 -82.667 -14.667 -160 -44 -232s-69 -132 -119 -180c-46 -43.333 -99.333 -76.166 -160 -98.499s-125.667 -33.5 -195 -33.5s-134.333 11.167 -195 33.5s-113.667 55.166 -159 98.499c-50.667 48 -90.667 108 -120 180s-44 149.333 -44 232zM585 184
c34 0 63.668 7.5 89.001 22.5s46.333 36.833 63 65.5c16 27.333 27.833 61.333 35.5 102s11.5 90.667 11.5 150c0 62.667 -4.33301 113.667 -13 153s-22 73 -40 101c-18 27.333 -38.833 47.833 -62.5 61.5s-51.5 20.5 -83.5 20.5s-59.833 -6.83301 -83.5 -20.5
s-44.167 -34.167 -61.5 -61.5c-18 -28 -31.333 -61.667 -40 -101s-13 -90.333 -13 -153c0 -59.333 3.83301 -109.333 11.5 -150s19.5 -74.667 35.5 -102c16.667 -28.667 37.667 -50.5 63 -65.5s54.666 -22.5 87.999 -22.5z" />
    <glyph glyph-name="afii10080" unicode="&#x43e;" horiz-adv-x="1171" 
d="M67 524c0 78.667 13.5 152.167 40.5 220.5s65.5 127.166 115.5 176.499c49.333 49.333 104.5 85.5 165.5 108.5s126.5 34.5 196.5 34.5s135.5 -11.5 196.5 -34.5s116.5 -59.167 166.5 -108.5c49.333 -49.333 87.5 -108.166 114.5 -176.499s40.5 -141.833 40.5 -220.5
c0 -82.667 -14.667 -160 -44 -232s-69 -132 -119 -180c-46 -43.333 -99.333 -76.166 -160 -98.499s-125.667 -33.5 -195 -33.5s-134.333 11.167 -195 33.5s-113.667 55.166 -159 98.499c-50.667 48 -90.667 108 -120 180s-44 149.333 -44 232zM585 184
c34 0 63.668 7.5 89.001 22.5s46.333 36.833 63 65.5c16 27.333 27.833 61.333 35.5 102s11.5 90.667 11.5 150c0 62.667 -4.33301 113.667 -13 153s-22 73 -40 101c-18 27.333 -38.833 47.833 -62.5 61.5s-51.5 20.5 -83.5 20.5s-59.833 -6.83301 -83.5 -20.5
s-44.167 -34.167 -61.5 -61.5c-18 -28 -31.333 -61.667 -40 -101s-13 -90.333 -13 -153c0 -59.333 3.83301 -109.333 11.5 -150s19.5 -74.667 35.5 -102c16.667 -28.667 37.667 -50.5 63 -65.5s54.666 -22.5 87.999 -22.5z" />
    <glyph glyph-name="afii10081" unicode="&#xef;" horiz-adv-x="1196" 
d="M129 1044h940v-1044h-306v829h-329v-829h-305v1044z" />
    <glyph glyph-name="afii10081" unicode="&#x43f;" horiz-adv-x="1196" 
d="M129 1044h940v-1044h-306v829h-329v-829h-305v1044z" />
    <glyph glyph-name="afii10082" unicode="&#xf0;" horiz-adv-x="1193" 
d="M434 -335l-305.002 0.000976562v1379h282v-168c31.333 60 75.5 106.333 132.5 139s118.833 49 185.5 49c124.667 0 221.334 -48.833 290.001 -146.5s103 -226.167 103 -385.5c0 -166 -36.167 -299.5 -108.5 -400.5s-171.5 -151.5 -297.5 -151.5
c-62 0 -116.667 12.667 -164 38s-86.666 63.666 -117.999 114.999v-468zM433.998 643.001v-225.999c0 -72.667 15.833 -129.667 47.5 -171s75.167 -62 130.5 -62c63.333 0 110.833 28.667 142.5 86s47.5 142.666 47.5 255.999c0 114.667 -16.5 199 -49.5 253
s-79.833 81 -140.5 81c-54 0 -97.167 -20.333 -129.5 -61s-48.5 -92.667 -48.5 -156z" />
    <glyph glyph-name="afii10082" unicode="&#x440;" horiz-adv-x="1193" 
d="M434 -335l-305.002 0.000976562v1379h282v-168c31.333 60 75.5 106.333 132.5 139s118.833 49 185.5 49c124.667 0 221.334 -48.833 290.001 -146.5s103 -226.167 103 -385.5c0 -166 -36.167 -299.5 -108.5 -400.5s-171.5 -151.5 -297.5 -151.5
c-62 0 -116.667 12.667 -164 38s-86.666 63.666 -117.999 114.999v-468zM433.998 643.001v-225.999c0 -72.667 15.833 -129.667 47.5 -171s75.167 -62 130.5 -62c63.333 0 110.833 28.667 142.5 86s47.5 142.666 47.5 255.999c0 114.667 -16.5 199 -49.5 253
s-79.833 81 -140.5 81c-54 0 -97.167 -20.333 -129.5 -61s-48.5 -92.667 -48.5 -156z" />
    <glyph glyph-name="afii10083" unicode="&#xf1;" horiz-adv-x="1069" 
d="M1015 673l-274.004 -25.9971c-1.33301 26 -5.66602 52.5 -12.999 79.5s-16.666 48.833 -27.999 65.5c-14 20 -32.5 36.333 -55.5 49s-48.167 19 -75.5 19c-28.667 0 -55.334 -7.33301 -80.001 -22s-44.334 -34.667 -59.001 -60c-15.333 -25.333 -26.333 -59.5 -33 -102.5
s-10 -94.167 -10 -153.5c0 -58.667 3.33301 -109 10 -151s18.334 -77 35.001 -105c16.667 -29.333 36 -50.333 58 -63s49 -19 81 -19c31.333 0 56.5 5.33301 75.5 16s36.167 27.667 51.5 51c13.333 20.667 23.833 44.167 31.5 70.5s12.167 52.833 13.5 79.5l274 -29
c-6.66699 -56.667 -22.667 -109.834 -48 -159.501s-57 -91.167 -95 -124.5c-38.667 -34.667 -84.667 -61.334 -138 -80.001s-112.333 -28 -177 -28s-126.167 10.333 -184.5 31s-109.5 52.334 -153.5 95.001c-47.333 46 -84.833 104.667 -112.5 176
s-41.5 150.666 -41.5 237.999c0 89.333 14.667 170.166 44 242.499s70 132.166 122 179.499c41.333 37.333 90.833 67 148.5 89s118.834 33 183.501 33c60.667 0 118.334 -9.16699 173.001 -27.5s101.334 -45.166 140.001 -80.499c36.667 -34 67 -76.167 91 -126.5
s39.333 -102.5 46 -156.5z" />
    <glyph glyph-name="afii10083" unicode="&#x441;" horiz-adv-x="1069" 
d="M1015 673l-274.004 -25.9971c-1.33301 26 -5.66602 52.5 -12.999 79.5s-16.666 48.833 -27.999 65.5c-14 20 -32.5 36.333 -55.5 49s-48.167 19 -75.5 19c-28.667 0 -55.334 -7.33301 -80.001 -22s-44.334 -34.667 -59.001 -60c-15.333 -25.333 -26.333 -59.5 -33 -102.5
s-10 -94.167 -10 -153.5c0 -58.667 3.33301 -109 10 -151s18.334 -77 35.001 -105c16.667 -29.333 36 -50.333 58 -63s49 -19 81 -19c31.333 0 56.5 5.33301 75.5 16s36.167 27.667 51.5 51c13.333 20.667 23.833 44.167 31.5 70.5s12.167 52.833 13.5 79.5l274 -29
c-6.66699 -56.667 -22.667 -109.834 -48 -159.501s-57 -91.167 -95 -124.5c-38.667 -34.667 -84.667 -61.334 -138 -80.001s-112.333 -28 -177 -28s-126.167 10.333 -184.5 31s-109.5 52.334 -153.5 95.001c-47.333 46 -84.833 104.667 -112.5 176
s-41.5 150.666 -41.5 237.999c0 89.333 14.667 170.166 44 242.499s70 132.166 122 179.499c41.333 37.333 90.833 67 148.5 89s118.834 33 183.501 33c60.667 0 118.334 -9.16699 173.001 -27.5s101.334 -45.166 140.001 -80.499c36.667 -34 67 -76.167 91 -126.5
s39.333 -102.5 46 -156.5z" />
    <glyph glyph-name="afii10084" unicode="&#xf2;" horiz-adv-x="923" 
d="M10 1044h903v-215h-299v-829h-305v829h-299v215z" />
    <glyph glyph-name="afii10084" unicode="&#x442;" horiz-adv-x="923" 
d="M10 1044h903v-215h-299v-829h-305v829h-299v215z" />
    <glyph glyph-name="glyph190" unicode="&#xf3;" horiz-adv-x="1005" 
d="M997 1044l-406.002 -1121c-19.333 -54 -39.666 -96.833 -60.999 -128.5s-46 -59.167 -74 -82.5c-32 -26.667 -66 -46 -102 -58s-81.667 -18 -137 -18c-26.667 0 -55.5 1.5 -86.5 4.5s-60.167 6.83301 -87.5 11.5v226c24.667 -4.66699 50.667 -8.33398 78 -11.001
s52.333 -4 75 -4c28 0 51.167 2.33301 69.5 7s33.5 11.334 45.5 20.001c12.667 10 24.334 24.5 35.001 43.5s18 37.167 22 54.5l6 26l-382 1030h335l211 -653l223 653h236z" />
    <glyph glyph-name="glyph190" unicode="&#x443;" horiz-adv-x="1005" 
d="M997 1044l-406.002 -1121c-19.333 -54 -39.666 -96.833 -60.999 -128.5s-46 -59.167 -74 -82.5c-32 -26.667 -66 -46 -102 -58s-81.667 -18 -137 -18c-26.667 0 -55.5 1.5 -86.5 4.5s-60.167 6.83301 -87.5 11.5v226c24.667 -4.66699 50.667 -8.33398 78 -11.001
s52.333 -4 75 -4c28 0 51.167 2.33301 69.5 7s33.5 11.334 45.5 20.001c12.667 10 24.334 24.5 35.001 43.5s18 37.167 22 54.5l6 26l-382 1030h335l211 -653l223 653h236z" />
    <glyph glyph-name="afii10086" unicode="&#xf4;" horiz-adv-x="1570" 
d="M632 1404h305.001v-360h27c63.333 0 128.666 -10.5 195.999 -31.5s124.333 -50.167 171 -87.5c55.333 -44 97.833 -100.333 127.5 -169s44.5 -146 44.5 -232c0 -84.667 -14.833 -161.5 -44.5 -230.5s-68.167 -124.833 -115.5 -167.5
c-49.333 -44 -109.833 -76.167 -181.5 -96.5s-146.5 -30.166 -224.5 -29.499v-335h-305v335c-78 -0.666992 -152.667 9.16602 -224 29.499s-131.666 52.5 -180.999 96.5c-47.333 42.667 -85.833 98.5 -115.5 167.5s-44.5 145.833 -44.5 230.5c0 86 14.833 163.333 44.5 232
s72.167 125 127.5 169c46.667 37.333 103.667 66.5 171 87.5s132.666 31.5 195.999 31.5h26v360zM653.001 204l-0.000976562 634.998h-23c-32.667 0 -60.667 -4 -84 -12s-45.666 -20.333 -66.999 -37c-33.333 -25.333 -59.5 -60.666 -78.5 -105.999
s-28.5 -98.666 -28.5 -159.999c0 -58.667 9.5 -112 28.5 -160s45.833 -85 80.5 -111c20 -14.667 43 -26.5 69 -35.5s52.667 -13.5 80 -13.5h23zM917 838.998l-0.000976562 -634.998h23c27.333 0 54 4.5 80 13.5s49 20.833 69 35.5c34.667 26 61.5 63 80.5 111
s28.5 101.333 28.5 160c0 61.333 -9.5 114.666 -28.5 159.999s-45.167 80.666 -78.5 105.999c-21.333 16.667 -43.666 29 -66.999 37s-51.333 12 -84 12h-23z" />
    <glyph glyph-name="afii10086" unicode="&#x444;" horiz-adv-x="1570" 
d="M632 1404h305.001v-360h27c63.333 0 128.666 -10.5 195.999 -31.5s124.333 -50.167 171 -87.5c55.333 -44 97.833 -100.333 127.5 -169s44.5 -146 44.5 -232c0 -84.667 -14.833 -161.5 -44.5 -230.5s-68.167 -124.833 -115.5 -167.5
c-49.333 -44 -109.833 -76.167 -181.5 -96.5s-146.5 -30.166 -224.5 -29.499v-335h-305v335c-78 -0.666992 -152.667 9.16602 -224 29.499s-131.666 52.5 -180.999 96.5c-47.333 42.667 -85.833 98.5 -115.5 167.5s-44.5 145.833 -44.5 230.5c0 86 14.833 163.333 44.5 232
s72.167 125 127.5 169c46.667 37.333 103.667 66.5 171 87.5s132.666 31.5 195.999 31.5h26v360zM653.001 204l-0.000976562 634.998h-23c-32.667 0 -60.667 -4 -84 -12s-45.666 -20.333 -66.999 -37c-33.333 -25.333 -59.5 -60.666 -78.5 -105.999
s-28.5 -98.666 -28.5 -159.999c0 -58.667 9.5 -112 28.5 -160s45.833 -85 80.5 -111c20 -14.667 43 -26.5 69 -35.5s52.667 -13.5 80 -13.5h23zM917 838.998l-0.000976562 -634.998h23c27.333 0 54 4.5 80 13.5s49 20.833 69 35.5c34.667 26 61.5 63 80.5 111
s28.5 101.333 28.5 160c0 61.333 -9.5 114.666 -28.5 159.999s-45.167 80.666 -78.5 105.999c-21.333 16.667 -43.666 29 -66.999 37s-51.333 12 -84 12h-23z" />
    <glyph glyph-name="afii10087" unicode="&#xf5;" horiz-adv-x="1069" 
d="M565 749l178 295h264l-303 -473l365 -571h-353l-219 368l-231 -368h-266l362 548l-319 496h350z" />
    <glyph glyph-name="afii10087" unicode="&#x445;" horiz-adv-x="1069" 
d="M565 749l178 295h264l-303 -473l365 -571h-353l-219 368l-231 -368h-266l362 548l-319 496h350z" />
    <glyph glyph-name="afii10088" unicode="&#xf6;" horiz-adv-x="1275" 
d="M129 1044h305v-829h336v829h305v-829h123v-491h-277v276h-792v1044z" />
    <glyph glyph-name="afii10088" unicode="&#x446;" horiz-adv-x="1275" 
d="M129 1044h305v-829h336v829h305v-829h123v-491h-277v276h-792v1044z" />
    <glyph glyph-name="afii10089" unicode="&#xf7;" horiz-adv-x="1116" 
d="M81 1044l306 -0.00195312v-268c0 -72.667 10.333 -120.5 31 -143.5s60.667 -34.5 120 -34.5c14 0 32 0.833008 54 2.5s51.667 4.83398 89 9.50098v434h306v-1044h-306v411c-114 -11.333 -176 -17.166 -186 -17.499s-21.667 -0.5 -35 -0.5
c-142.667 0 -241.5 25.833 -296.5 77.5s-82.5 154.167 -82.5 307.5v266z" />
    <glyph glyph-name="afii10089" unicode="&#x447;" horiz-adv-x="1116" 
d="M81 1044l306 -0.00195312v-268c0 -72.667 10.333 -120.5 31 -143.5s60.667 -34.5 120 -34.5c14 0 32 0.833008 54 2.5s51.667 4.83398 89 9.50098v434h306v-1044h-306v411c-114 -11.333 -176 -17.166 -186 -17.499s-21.667 -0.5 -35 -0.5
c-142.667 0 -241.5 25.833 -296.5 77.5s-82.5 154.167 -82.5 307.5v266z" />
    <glyph glyph-name="afii10090" unicode="&#xf8;" horiz-adv-x="1697" 
d="M129 1044h305v-829h262v829h305v-829h262v829h305v-1044h-1439v1044z" />
    <glyph glyph-name="afii10090" unicode="&#x448;" horiz-adv-x="1697" 
d="M129 1044h305v-829h262v829h305v-829h262v829h305v-1044h-1439v1044z" />
    <glyph glyph-name="afii10091" unicode="&#xf9;" horiz-adv-x="1769" 
d="M129 1044h305v-829h262v829h305v-829h262v829h305v-829h123v-491h-276v276h-1286v1044z" />
    <glyph glyph-name="afii10091" unicode="&#x449;" horiz-adv-x="1769" 
d="M129 1044h305v-829h262v829h305v-829h262v829h305v-829h123v-491h-276v276h-1286v1044z" />
    <glyph glyph-name="afii10092" unicode="&#xfa;" horiz-adv-x="1288" 
d="M-20 1044l618 -0.000976562v-383h253c60 0 113 -6.66699 159 -20s84.667 -34 116 -62c29.333 -26 53.333 -60.333 72 -103s28 -90.334 28 -143.001c0 -54 -10.167 -103.167 -30.5 -147.5s-48.833 -81.166 -85.5 -110.499c-30.667 -23.333 -67.167 -41.666 -109.5 -54.999
s-87.833 -20 -136.5 -20h-572v829h-312v215zM598 486.999v-283h139c27.333 0 50.666 2.83301 69.999 8.5s36.333 14.5 51 26.5c15.333 12.667 27.333 29.167 36 49.5s13 42.833 13 67.5c0 21.333 -4.16699 40.5 -12.5 57.5s-21.166 31.833 -38.499 44.5
c-14 10 -29.333 17.333 -46 22s-39.667 7 -69 7h-143z" />
    <glyph glyph-name="afii10092" unicode="&#x44a;" horiz-adv-x="1288" 
d="M-20 1044l618 -0.000976562v-383h253c60 0 113 -6.66699 159 -20s84.667 -34 116 -62c29.333 -26 53.333 -60.333 72 -103s28 -90.334 28 -143.001c0 -54 -10.167 -103.167 -30.5 -147.5s-48.833 -81.166 -85.5 -110.499c-30.667 -23.333 -67.167 -41.666 -109.5 -54.999
s-87.833 -20 -136.5 -20h-572v829h-312v215zM598 486.999v-283h139c27.333 0 50.666 2.83301 69.999 8.5s36.333 14.5 51 26.5c15.333 12.667 27.333 29.167 36 49.5s13 42.833 13 67.5c0 21.333 -4.16699 40.5 -12.5 57.5s-21.166 31.833 -38.499 44.5
c-14 10 -29.333 17.333 -46 22s-39.667 7 -69 7h-143z" />
    <glyph glyph-name="afii10093" unicode="&#xfb;" horiz-adv-x="1589" 
d="M129 1044l305 -0.000976562v-383h254c60 0 112.833 -6.66699 158.5 -20s84.167 -34 115.5 -62c29.333 -26 53.333 -60.333 72 -103s28 -90.334 28 -143.001c0 -54 -10.167 -103.167 -30.5 -147.5s-48.833 -81.166 -85.5 -110.499
c-30.667 -23.333 -67.167 -41.666 -109.5 -54.999s-87.833 -20 -136.5 -20h-571v1044zM434 486.999v-283h139c27.333 0 50.666 2.83301 69.999 8.5s36.333 14.5 51 26.5c15.333 12.667 27.333 29.167 36 49.5s13 42.833 13 67.5c0 21.333 -4.16699 40.5 -12.5 57.5
s-21.166 31.833 -38.499 44.5c-14 10 -29.167 17.333 -45.5 22s-39.5 7 -69.5 7h-143zM1155 1044h305v-1044h-305v1044z" />
    <glyph glyph-name="afii10093" unicode="&#x44b;" horiz-adv-x="1589" 
d="M129 1044l305 -0.000976562v-383h254c60 0 112.833 -6.66699 158.5 -20s84.167 -34 115.5 -62c29.333 -26 53.333 -60.333 72 -103s28 -90.334 28 -143.001c0 -54 -10.167 -103.167 -30.5 -147.5s-48.833 -81.166 -85.5 -110.499
c-30.667 -23.333 -67.167 -41.666 -109.5 -54.999s-87.833 -20 -136.5 -20h-571v1044zM434 486.999v-283h139c27.333 0 50.666 2.83301 69.999 8.5s36.333 14.5 51 26.5c15.333 12.667 27.333 29.167 36 49.5s13 42.833 13 67.5c0 21.333 -4.16699 40.5 -12.5 57.5
s-21.166 31.833 -38.499 44.5c-14 10 -29.167 17.333 -45.5 22s-39.5 7 -69.5 7h-143zM1155 1044h305v-1044h-305v1044z" />
    <glyph glyph-name="afii10094" unicode="&#xfc;" horiz-adv-x="1124" 
d="M129 1044l305 -0.000976562v-383h254c60 0 112.833 -6.66699 158.5 -20s84.167 -34 115.5 -62c29.333 -26 53.333 -60.333 72 -103s28 -90.334 28 -143.001c0 -54 -10.167 -103.167 -30.5 -147.5s-48.833 -81.166 -85.5 -110.499
c-30.667 -23.333 -67.167 -41.666 -109.5 -54.999s-87.833 -20 -136.5 -20h-571v1044zM434 486.999v-283h139c27.333 0 50.666 2.83301 69.999 8.5s36.333 14.5 51 26.5c15.333 12.667 27.333 29.167 36 49.5s13 42.833 13 67.5c0 21.333 -4.16699 40.5 -12.5 57.5
s-21.166 31.833 -38.499 44.5c-14 10 -29.167 17.333 -45.5 22s-39.5 7 -69.5 7h-143z" />
    <glyph glyph-name="afii10094" unicode="&#x44c;" horiz-adv-x="1124" 
d="M129 1044l305 -0.000976562v-383h254c60 0 112.833 -6.66699 158.5 -20s84.167 -34 115.5 -62c29.333 -26 53.333 -60.333 72 -103s28 -90.334 28 -143.001c0 -54 -10.167 -103.167 -30.5 -147.5s-48.833 -81.166 -85.5 -110.499
c-30.667 -23.333 -67.167 -41.666 -109.5 -54.999s-87.833 -20 -136.5 -20h-571v1044zM434 486.999v-283h139c27.333 0 50.666 2.83301 69.999 8.5s36.333 14.5 51 26.5c15.333 12.667 27.333 29.167 36 49.5s13 42.833 13 67.5c0 21.333 -4.16699 40.5 -12.5 57.5
s-21.166 31.833 -38.499 44.5c-14 10 -29.167 17.333 -45.5 22s-39.5 7 -69.5 7h-143z" />
    <glyph glyph-name="afii10095" unicode="&#xfd;" horiz-adv-x="1120" 
d="M329 702l-269.996 38.9961c14.667 46.667 36.167 89.334 64.5 128.001s61.5 71.667 99.5 99c42 30.667 90.5 54.334 145.5 71.001s117.167 25 186.5 25c72 0 137.333 -10.5 196 -31.5s110.667 -54.167 156 -99.5c48 -48 84.167 -106.5 108.5 -175.5
s36.5 -141.5 36.5 -217.5c0 -73.333 -11 -145.666 -33 -216.999s-52 -130.666 -90 -177.999c-46 -58 -100.667 -100 -164 -126s-139 -39 -227 -39c-60.667 0 -115.667 5.5 -165 16.5s-94.666 29.167 -135.999 54.5c-47.333 28.667 -87 64.834 -119 108.501
s-54.333 92.834 -67 147.501l276 37c5.33301 -21.333 13.166 -41 23.499 -59s23.166 -34 38.499 -48c20 -19.333 41.5 -33 64.5 -41s50.5 -12 82.5 -12c33.333 0 63 6.66699 89 20s48.333 34.666 67 63.999c14 22.667 24.667 50.5 32 83.5s10.333 66.5 9 100.5h-316v174h316
c0.666992 29.333 -2.83301 57.833 -10.5 85.5s-17.834 51.167 -30.501 70.5c-17.333 25.333 -38.833 44.666 -64.5 57.999s-54.834 20 -87.501 20c-26.667 0 -52.167 -4.33301 -76.5 -13s-46.5 -21.667 -66.5 -39c-16.667 -14 -30.834 -30 -42.501 -48
s-20.167 -37.333 -25.5 -58z" />
    <glyph glyph-name="afii10095" unicode="&#x44d;" horiz-adv-x="1120" 
d="M329 702l-269.996 38.9961c14.667 46.667 36.167 89.334 64.5 128.001s61.5 71.667 99.5 99c42 30.667 90.5 54.334 145.5 71.001s117.167 25 186.5 25c72 0 137.333 -10.5 196 -31.5s110.667 -54.167 156 -99.5c48 -48 84.167 -106.5 108.5 -175.5
s36.5 -141.5 36.5 -217.5c0 -73.333 -11 -145.666 -33 -216.999s-52 -130.666 -90 -177.999c-46 -58 -100.667 -100 -164 -126s-139 -39 -227 -39c-60.667 0 -115.667 5.5 -165 16.5s-94.666 29.167 -135.999 54.5c-47.333 28.667 -87 64.834 -119 108.501
s-54.333 92.834 -67 147.501l276 37c5.33301 -21.333 13.166 -41 23.499 -59s23.166 -34 38.499 -48c20 -19.333 41.5 -33 64.5 -41s50.5 -12 82.5 -12c33.333 0 63 6.66699 89 20s48.333 34.666 67 63.999c14 22.667 24.667 50.5 32 83.5s10.333 66.5 9 100.5h-316v174h316
c0.666992 29.333 -2.83301 57.833 -10.5 85.5s-17.834 51.167 -30.501 70.5c-17.333 25.333 -38.833 44.666 -64.5 57.999s-54.834 20 -87.501 20c-26.667 0 -52.167 -4.33301 -76.5 -13s-46.5 -21.667 -66.5 -39c-16.667 -14 -30.834 -30 -42.501 -48
s-20.167 -37.333 -25.5 -58z" />
    <glyph glyph-name="afii10096" unicode="&#xfe;" horiz-adv-x="1658" 
d="M129 1044l305.003 -0.00195312v-393h133c10.667 52.667 28.5 102.167 53.5 148.5s54.833 86.833 89.5 121.5c49.333 49.333 104.666 85.5 165.999 108.5s127 34.5 197 34.5s135.5 -11.5 196.5 -34.5s116.167 -59.167 165.5 -108.5
c50 -49.333 88.5 -108.166 115.5 -176.499s40.5 -141.833 40.5 -220.5c0 -82.667 -14.667 -160 -44 -232s-69.333 -132 -120 -180c-46.667 -44 -100.334 -77 -161.001 -99s-125 -33 -193 -33c-70.667 0 -136.667 11.333 -198 34s-115 55.334 -161 98.001
c-40.667 38.667 -75.334 86 -104.001 142s-47 116.667 -55 182h-121v-436h-305v1044zM1073 183.998c33.333 0 62.667 7.5 88 22.5s46.333 36.833 63 65.5c16 27.333 27.833 61.333 35.5 102s11.5 90.667 11.5 150c0 62.667 -4.33301 113.667 -13 153s-22 73 -40 101
c-17.333 27.333 -37.833 47.833 -61.5 61.5s-51.5 20.5 -83.5 20.5c-32.667 0 -60.667 -6.83301 -84 -20.5s-44 -34.167 -62 -61.5c-18 -28 -31.333 -61.667 -40 -101s-13 -90.333 -13 -153c0 -59.333 3.83301 -109.333 11.5 -150s19.5 -74.667 35.5 -102
c16.667 -28.667 37.667 -50.5 63 -65.5s55 -22.5 89 -22.5z" />
    <glyph glyph-name="afii10096" unicode="&#x44e;" horiz-adv-x="1658" 
d="M129 1044l305.003 -0.00195312v-393h133c10.667 52.667 28.5 102.167 53.5 148.5s54.833 86.833 89.5 121.5c49.333 49.333 104.666 85.5 165.999 108.5s127 34.5 197 34.5s135.5 -11.5 196.5 -34.5s116.167 -59.167 165.5 -108.5
c50 -49.333 88.5 -108.166 115.5 -176.499s40.5 -141.833 40.5 -220.5c0 -82.667 -14.667 -160 -44 -232s-69.333 -132 -120 -180c-46.667 -44 -100.334 -77 -161.001 -99s-125 -33 -193 -33c-70.667 0 -136.667 11.333 -198 34s-115 55.334 -161 98.001
c-40.667 38.667 -75.334 86 -104.001 142s-47 116.667 -55 182h-121v-436h-305v1044zM1073 183.998c33.333 0 62.667 7.5 88 22.5s46.333 36.833 63 65.5c16 27.333 27.833 61.333 35.5 102s11.5 90.667 11.5 150c0 62.667 -4.33301 113.667 -13 153s-22 73 -40 101
c-17.333 27.333 -37.833 47.833 -61.5 61.5s-51.5 20.5 -83.5 20.5c-32.667 0 -60.667 -6.83301 -84 -20.5s-44 -34.167 -62 -61.5c-18 -28 -31.333 -61.667 -40 -101s-13 -90.333 -13 -153c0 -59.333 3.83301 -109.333 11.5 -150s19.5 -74.667 35.5 -102
c16.667 -28.667 37.667 -50.5 63 -65.5s55 -22.5 89 -22.5z" />
    <glyph glyph-name="afii10097" unicode="&#xff;" horiz-adv-x="1187" 
d="M1058 1044v-1044h-305v362h-151l-181 -362h-329l239 419c-29.333 9.33301 -57 21.666 -83 36.999s-47.333 31.666 -64 48.999c-24.667 26 -43.167 57 -55.5 93s-18.5 74.667 -18.5 116c0 42 6.5 81.833 19.5 119.5s30.5 69.5 52.5 95.5
c32.667 39.333 74.5 68.333 125.5 87s114.833 28 191.5 28h559zM753 839.002h-151.001c-25.333 0 -49.166 -2.83301 -71.499 -8.5s-40.833 -14.5 -55.5 -26.5c-16 -12 -27.5 -26.5 -34.5 -43.5s-10.5 -37.833 -10.5 -62.5c0 -24 3.83301 -45.333 11.5 -64
s18.167 -33.667 31.5 -45c12 -10 29 -17.833 51 -23.5s52 -8.5 90 -8.5h139v282z" />
    <glyph glyph-name="afii10097" unicode="&#x44f;" horiz-adv-x="1187" 
d="M1058 1044v-1044h-305v362h-151l-181 -362h-329l239 419c-29.333 9.33301 -57 21.666 -83 36.999s-47.333 31.666 -64 48.999c-24.667 26 -43.167 57 -55.5 93s-18.5 74.667 -18.5 116c0 42 6.5 81.833 19.5 119.5s30.5 69.5 52.5 95.5
c32.667 39.333 74.5 68.333 125.5 87s114.833 28 191.5 28h559zM753 839.002h-151.001c-25.333 0 -49.166 -2.83301 -71.499 -8.5s-40.833 -14.5 -55.5 -26.5c-16 -12 -27.5 -26.5 -34.5 -43.5s-10.5 -37.833 -10.5 -62.5c0 -24 3.83301 -45.333 11.5 -64
s18.167 -33.667 31.5 -45c12 -10 29 -17.833 51 -23.5s52 -8.5 90 -8.5h139v282z" />
    <glyph glyph-name="afii10059" unicode="&#x152;" horiz-adv-x="2095" 
d="M1259 1404l-0.000976562 -557.001h295c83.333 0 156.833 -10.667 220.5 -32s116.5 -55 158.5 -101c30.667 -33.333 55 -73.666 73 -120.999s27 -101 27 -161c0 -68.667 -10.167 -129.667 -30.5 -183s-49.166 -98.333 -86.499 -135c-40 -40 -86.333 -69 -139 -87
s-121.667 -27 -207 -27h-639v595h-460v-595h-328v1404h328v-550h460v550h328zM1259 601.999v-356.999h250c36 0 65.833 4 89.5 12s43.5 19.667 59.5 35s27.833 34.166 35.5 56.499s11.5 46.5 11.5 72.5c0 28.667 -3.66699 53.5 -11 74.5s-19.333 39.167 -36 54.5
c-17.333 17.333 -38.5 30.333 -63.5 39s-55.5 13 -91.5 13h-244z" />
    <glyph glyph-name="afii10059" unicode="&#x40a;" horiz-adv-x="2095" 
d="M1259 1404l-0.000976562 -557.001h295c83.333 0 156.833 -10.667 220.5 -32s116.5 -55 158.5 -101c30.667 -33.333 55 -73.666 73 -120.999s27 -101 27 -161c0 -68.667 -10.167 -129.667 -30.5 -183s-49.166 -98.333 -86.499 -135c-40 -40 -86.333 -69 -139 -87
s-121.667 -27 -207 -27h-639v595h-460v-595h-328v1404h328v-550h460v550h328zM1259 601.999v-356.999h250c36 0 65.833 4 89.5 12s43.5 19.667 59.5 35s27.833 34.166 35.5 56.499s11.5 46.5 11.5 72.5c0 28.667 -3.66699 53.5 -11 74.5s-19.333 39.167 -36 54.5
c-17.333 17.333 -38.5 30.333 -63.5 39s-55.5 13 -91.5 13h-244z" />
    <glyph glyph-name="afii10107" unicode="&#x153;" horiz-adv-x="1748" 
d="M1069 1044l0.000976562 -348h254c60.667 0 113 -7.66699 157 -23s83 -38.333 117 -69c34 -32 59.167 -68.333 75.5 -109s24.5 -89 24.5 -145c0 -60.667 -9.33301 -114 -28 -160s-48 -85 -88 -117c-30.667 -24 -65.834 -42.167 -105.501 -54.5s-86.5 -18.5 -140.5 -18.5
h-572v438h-329v-438h-305v1044h305v-391h329v391h306zM1069 491v-287h139c27.333 0 50.666 2.83301 69.999 8.5s36.333 14.5 51 26.5c15.333 13.333 27.333 30 36 50s13 42.333 13 67c0 22 -4.16699 42 -12.5 60s-21.166 33.333 -38.499 46c-14 10 -29.333 17.333 -46 22
s-39.667 7 -69 7h-143z" />
    <glyph glyph-name="afii10107" unicode="&#x45a;" horiz-adv-x="1748" 
d="M1069 1044l0.000976562 -348h254c60.667 0 113 -7.66699 157 -23s83 -38.333 117 -69c34 -32 59.167 -68.333 75.5 -109s24.5 -89 24.5 -145c0 -60.667 -9.33301 -114 -28 -160s-48 -85 -88 -117c-30.667 -24 -65.834 -42.167 -105.501 -54.5s-86.5 -18.5 -140.5 -18.5
h-572v438h-329v-438h-305v1044h305v-391h329v391h306zM1069 491v-287h139c27.333 0 50.666 2.83301 69.999 8.5s36.333 14.5 51 26.5c15.333 13.333 27.333 30 36 50s13 42.333 13 67c0 22 -4.16699 42 -12.5 60s-21.166 33.333 -38.499 46c-14 10 -29.333 17.333 -46 22
s-39.667 7 -69 7h-143z" />
    <glyph glyph-name="afii10058" unicode="&#x160;" horiz-adv-x="2095" 
d="M1259 847l295 -0.00390625c83.333 0 156.833 -10.667 220.5 -32s116.5 -55 158.5 -101c30.667 -33.333 55 -73.666 73 -120.999s27 -101 27 -161c0 -68.667 -10.167 -129.667 -30.5 -183s-49.166 -98.333 -86.499 -135c-40 -40 -86.333 -69 -139 -87
s-121.667 -27 -207 -27h-639v1146h-329l-2 -100c-2.66699 -115.333 -8.66699 -227.166 -18 -335.499s-21.333 -199.166 -36 -272.499c-16 -85.333 -37.333 -157.166 -64 -215.499s-57 -104.833 -91 -139.5c-33.333 -32.667 -70.5 -57 -111.5 -73s-86.5 -24 -136.5 -24
c-18 0 -35.333 1.16699 -52 3.5s-33.667 5.83301 -51 10.5v256c6 -2 12 -3.33301 18 -4s11.667 -1 17 -1c39.333 0 74.5 13.833 105.5 41.5s56.167 68.5 75.5 122.5c12 35.333 23 83 33 143s18 125.667 24 197c3.33301 44 6.16602 98.833 8.49902 164.5s5.5 194.5 9.5 386.5
l2 98h926v-557zM1259 601.996v-356.999h250c36 0 65.833 4 89.5 12s43.5 19.667 59.5 35s27.833 34.166 35.5 56.499s11.5 46.5 11.5 72.5c0 28.667 -3.66699 53.5 -11 74.5s-19.333 39.167 -36 54.5c-17.333 17.333 -38.5 30.333 -63.5 39s-55.5 13 -91.5 13h-244z" />
    <glyph glyph-name="afii10058" unicode="&#x409;" horiz-adv-x="2095" 
d="M1259 847l295 -0.00390625c83.333 0 156.833 -10.667 220.5 -32s116.5 -55 158.5 -101c30.667 -33.333 55 -73.666 73 -120.999s27 -101 27 -161c0 -68.667 -10.167 -129.667 -30.5 -183s-49.166 -98.333 -86.499 -135c-40 -40 -86.333 -69 -139 -87
s-121.667 -27 -207 -27h-639v1146h-329l-2 -100c-2.66699 -115.333 -8.66699 -227.166 -18 -335.499s-21.333 -199.166 -36 -272.499c-16 -85.333 -37.333 -157.166 -64 -215.499s-57 -104.833 -91 -139.5c-33.333 -32.667 -70.5 -57 -111.5 -73s-86.5 -24 -136.5 -24
c-18 0 -35.333 1.16699 -52 3.5s-33.667 5.83301 -51 10.5v256c6 -2 12 -3.33301 18 -4s11.667 -1 17 -1c39.333 0 74.5 13.833 105.5 41.5s56.167 68.5 75.5 122.5c12 35.333 23 83 33 143s18 125.667 24 197c3.33301 44 6.16602 98.833 8.49902 164.5s5.5 194.5 9.5 386.5
l2 98h926v-557zM1259 601.996v-356.999h250c36 0 65.833 4 89.5 12s43.5 19.667 59.5 35s27.833 34.166 35.5 56.499s11.5 46.5 11.5 72.5c0 28.667 -3.66699 53.5 -11 74.5s-19.333 39.167 -36 54.5c-17.333 17.333 -38.5 30.333 -63.5 39s-55.5 13 -91.5 13h-244z" />
    <glyph glyph-name="afii10106" unicode="&#x161;" horiz-adv-x="1699" 
d="M1019 696l254.002 -0.000976562c60.667 0 113.167 -7.66699 157.5 -23s83.5 -38.333 117.5 -69c34 -32 59.167 -68.333 75.5 -109s24.5 -89 24.5 -145c0 -60.667 -9.33301 -114 -28 -160s-48.334 -85 -89.001 -117c-30 -24 -64.833 -42.167 -104.5 -54.5
s-86.5 -18.5 -140.5 -18.5h-572v829h-215c-11.333 -266 -25.333 -437.833 -42 -515.5s-41.667 -139.167 -75 -184.5c-32.667 -45.333 -73.334 -79.5 -122.001 -102.5s-99.334 -34.5 -152.001 -34.5c-13.333 0 -26.333 0.666992 -39 2s-25.667 3.33301 -39 6v219
c4 -0.666992 8 -1 12 -1s8.33301 0.333008 13 1c32 1.33301 59.167 9.5 81.5 24.5s40.833 35.5 55.5 61.5c16.667 29.333 29.334 71.833 38.001 127.5s15.667 139.5 21 251.5c4 82.667 6.5 139.334 7.5 170.001s1.5 68 1.5 112v78h759v-348zM1019 490.999l0.000976562 -287
h140c27.333 0 50.666 2.83301 69.999 8.5s36.333 14.5 51 26.5c15.333 13.333 27.333 30 36 50s13 42.333 13 67c0 22 -4.16699 42 -12.5 60s-21.5 33.333 -39.5 46c-13.333 10 -28.333 17.333 -45 22s-39.667 7 -69 7h-144z" />
    <glyph glyph-name="afii10106" unicode="&#x459;" horiz-adv-x="1699" 
d="M1019 696l254.002 -0.000976562c60.667 0 113.167 -7.66699 157.5 -23s83.5 -38.333 117.5 -69c34 -32 59.167 -68.333 75.5 -109s24.5 -89 24.5 -145c0 -60.667 -9.33301 -114 -28 -160s-48.334 -85 -89.001 -117c-30 -24 -64.833 -42.167 -104.5 -54.5
s-86.5 -18.5 -140.5 -18.5h-572v829h-215c-11.333 -266 -25.333 -437.833 -42 -515.5s-41.667 -139.167 -75 -184.5c-32.667 -45.333 -73.334 -79.5 -122.001 -102.5s-99.334 -34.5 -152.001 -34.5c-13.333 0 -26.333 0.666992 -39 2s-25.667 3.33301 -39 6v219
c4 -0.666992 8 -1 12 -1s8.33301 0.333008 13 1c32 1.33301 59.167 9.5 81.5 24.5s40.833 35.5 55.5 61.5c16.667 29.333 29.334 71.833 38.001 127.5s15.667 139.5 21 251.5c4 82.667 6.5 139.334 7.5 170.001s1.5 68 1.5 112v78h759v-348zM1019 490.999l0.000976562 -287
h140c27.333 0 50.666 2.83301 69.999 8.5s36.333 14.5 51 26.5c15.333 13.333 27.333 30 36 50s13 42.333 13 67c0 22 -4.16699 42 -12.5 60s-21.5 33.333 -39.5 46c-13.333 10 -28.333 17.333 -45 22s-39.667 7 -69 7h-144z" />
    <glyph glyph-name="afii10193" unicode="&#x178;" horiz-adv-x="1204" 
d="M129 1044h305v-829h336v829h305v-1044h-334v-282h-279v282h-333v1044z" />
    <glyph glyph-name="afii10193" unicode="&#x45f;" horiz-adv-x="1204" 
d="M129 1044h305v-829h336v829h305v-1044h-334v-282h-279v282h-333v1044z" />
    <glyph glyph-name="afii10100" unicode="&#x192;" horiz-adv-x="917" 
d="M129 1044h768v-215h-463v-829h-305v1044zM653 1560l76 -172l-418 -192l-51 116z" />
    <glyph glyph-name="afii10100" unicode="&#x453;" horiz-adv-x="917" 
d="M129 1044h768v-215h-463v-829h-305v1044zM653 1560l76 -172l-418 -192l-51 116z" />
    <glyph glyph-name="Accent" unicode="&#x2c6;" horiz-adv-x="1028" 
d="M708 1560l76 -172l-418 -192l-51 116z" />
    <glyph glyph-name="accent" unicode="&#x2dc;" horiz-adv-x="1067" 
d="M788 1861l70 -178l-461 -156l-51 119z" />
    <glyph glyph-name="endash" unicode="&#x2013;" horiz-adv-x="1310" 
d="M1167 671v-246h-1024v246h1024z" />
    <glyph glyph-name="emdash" unicode="&#x2014;" horiz-adv-x="2129" 
d="M1986 671v-246h-1843v246h1843z" />
    <glyph glyph-name="quoteleft" unicode="&#x2018;" horiz-adv-x="546" 
d="M423 1400l-133 -264h119v-276h-287v254l174 286h127z" />
    <glyph glyph-name="quoteright" unicode="&#x2019;" horiz-adv-x="546" 
d="M423 1400v-254l-174 -286h-127l134 264h-119v276h286z" />
    <glyph glyph-name="quotesinglbase" unicode="&#x201a;" horiz-adv-x="546" 
d="M423 276v-254l-174 -286h-127l134 264h-119v276h286z" />
    <glyph glyph-name="quotedblleft" unicode="&#x201c;" horiz-adv-x="919" 
d="M796 1402l-133 -264h119v-276h-287v254l174 286h127zM423 1402l-135 -264h121v-276h-287v254l174 286h127z" />
    <glyph glyph-name="quotedblright" unicode="&#x201d;" horiz-adv-x="919" 
d="M423 1404v-254l-174 -286h-127l134 264h-119v276h286zM796 1404v-254l-174 -286h-127l135 264h-121v276h287z" />
    <glyph glyph-name="quotedblbase" unicode="&#x201e;" horiz-adv-x="919" 
d="M423 276v-254l-174 -286h-127l134 264h-119v276h286zM796 276v-254l-174 -286h-127l135 264h-121v276h287z" />
    <glyph glyph-name="dagger" unicode="&#x2020;" horiz-adv-x="1265" 
d="M698 -337h-131.002v108c0 174 -8.66699 351.667 -26 533s-40 335 -68 461c18 16 34.833 33 50.5 51s30.167 36.667 43.5 56l-438 -68l26 133l-26 134l438 -80l-82 413l147 -22l148 22l-82 -413l438 80l-26 -134l26 -133l-438 68c12.667 -19.333 26.834 -38 42.501 -56
s32.834 -35 51.501 -51c-28 -126 -50.667 -279.667 -68 -461s-26 -359 -26 -533v-108z" />
    <glyph glyph-name="daggerdbl" unicode="&#x2021;" horiz-adv-x="1257" 
d="M694 -337h-131l-4 71c-7.33301 128 -19.166 260.167 -35.499 396.5s-34.833 251.166 -55.5 344.499c16 12 30.833 25.5 44.5 40.5s29.167 34.167 46.5 57.5l-435 -70l25 135l-25 134l435 -82l-47 118l47 115l-435 -69l25 135l-25 133l435 -82l-68 364l137 -28l137 28
l-67 -364l434 82l-25 -133l25 -135l-434 69l47 -115l-47 -118l434 82l-25 -134l25 -135l-434 70c17.333 -23.333 32.666 -42.5 45.999 -57.5s28 -28.5 44 -40.5c-20.667 -93.333 -39 -208.166 -55 -344.499s-27.667 -268.5 -35 -396.5z" />
    <glyph glyph-name="bullet" unicode="&#x2022;" horiz-adv-x="1392" 
d="M696 1050c95.333 0 177.166 -34.167 245.499 -102.5s102.5 -150.166 102.5 -245.499s-34.167 -177.166 -102.5 -245.499s-150.166 -102.5 -245.499 -102.5c-96 0 -178 34.167 -246 102.5s-102 150.166 -102 245.499s34 177.166 102 245.499s150 102.5 246 102.5z" />
    <glyph glyph-name="bullet" unicode="&#xf000;" horiz-adv-x="1392" 
d="M696 1050c95.333 0 177.166 -34.167 245.499 -102.5s102.5 -150.166 102.5 -245.499s-34.167 -177.166 -102.5 -245.499s-150.166 -102.5 -245.499 -102.5c-96 0 -178 34.167 -246 102.5s-102 150.166 -102 245.499s34 177.166 102 245.499s150 102.5 246 102.5z" />
    <glyph glyph-name="ellipsis" unicode="&#x2026;" horiz-adv-x="1935" 
d="M448 317v-317h-326v317h326zM1130 317v-317h-326v317h326zM1812 317v-317h-326v317h326z" />
    <glyph glyph-name="perthousand" unicode="&#x2030;" horiz-adv-x="2154" 
d="M1253 1404l-854 -1404h-176l854 1404h176zM61 1048c0 61.333 7.66699 115.668 23 163.001s39.666 88.666 72.999 123.999c26 26.667 54.5 46.334 85.5 59.001s66.167 19 105.5 19c38.667 0 73.5 -6.33301 104.5 -19s59.5 -32.334 85.5 -59.001
c34 -35.333 58.5 -76.666 73.5 -123.999s22.5 -101.666 22.5 -162.999c0 -110 -25.667 -198.167 -77 -264.5s-121 -99.5 -209 -99.5c-39.333 0 -74.5 6.16699 -105.5 18.5s-59.5 31.833 -85.5 58.5c-33.333 35.333 -57.666 76.666 -72.999 123.999s-23 101.666 -23 162.999z
M239 1048c0 -84 9.33301 -143.167 28 -177.5s45.667 -51.5 81 -51.5c16 0 32 5.5 48 16.5s28.667 26.5 38 46.5c6.66699 15.333 12 37.833 16 67.5s6 62.5 6 98.5s-2 68.833 -6 98.5s-9.33301 52.167 -16 67.5c-9.33301 20.667 -22 36.334 -38 47.001s-32 16 -48 16
c-16.667 0 -33 -5.33301 -49 -16s-28.333 -26.334 -37 -47.001c-7.33301 -15.333 -13 -37.833 -17 -67.5s-6 -62.5 -6 -98.5zM839 356.002c0 61.333 7.66699 115.665 23 162.998s39.666 88.666 72.999 123.999c26 26.667 54.5 46.167 85.5 58.5s66.167 18.5 105.5 18.5
s74.333 -6.16699 105 -18.5s59 -31.833 85 -58.5c34 -35.333 58.667 -76.666 74 -123.999s23 -101.666 23 -162.999c0 -110 -25.667 -198.167 -77 -264.5s-121.333 -99.5 -210 -99.5c-39.333 0 -74.5 6.16699 -105.5 18.5s-59.5 31.833 -85.5 58.5
c-33.333 34.667 -57.666 75.834 -72.999 123.501s-23 102.167 -23 163.5zM1017 356.001c0 -84 9.33398 -143.333 28.001 -178s45.667 -52 81 -52c16.667 0 32.834 5.5 48.501 16.5s28.167 26.833 37.5 47.5c6.66699 15.333 12 37.833 16 67.5s6 62.5 6 98.5
s-2 68.833 -6 98.5s-9.33301 52.167 -16 67.5c-9.33301 20 -21.833 35.5 -37.5 46.5s-31.834 16.5 -48.501 16.5s-32.834 -5.5 -48.501 -16.5s-28.167 -26.5 -37.5 -46.5c-6.66699 -15.333 -12.167 -37.833 -16.5 -67.5s-6.5 -62.5 -6.5 -98.5zM1519 356.001
c0 61.333 7.66699 115.665 23 162.998s39.666 88.666 72.999 123.999c26 26.667 54.5 46.167 85.5 58.5s66.167 18.5 105.5 18.5c38.667 0 73.5 -6.16699 104.5 -18.5s59.5 -31.833 85.5 -58.5c34 -35.333 58.667 -76.666 74 -123.999s23 -101.666 23 -162.999
c0 -110 -25.667 -198.167 -77 -264.5s-121.333 -99.5 -210 -99.5c-39.333 0 -74.5 6.16699 -105.5 18.5s-59.5 31.833 -85.5 58.5c-33.333 34.667 -57.666 75.834 -72.999 123.501s-23 102.167 -23 163.5zM1697 356c0 -84 9.33398 -143.333 28.001 -178s45.667 -52 81 -52
c16.667 0 32.834 5.5 48.501 16.5s28.167 26.833 37.5 47.5c6.66699 15.333 12 37.833 16 67.5s6 62.5 6 98.5s-2 68.833 -6 98.5s-9.33301 52.167 -16 67.5c-9.33301 20 -21.833 35.5 -37.5 46.5s-31.834 16.5 -48.501 16.5s-32.834 -5.5 -48.501 -16.5
s-28.167 -26.5 -37.5 -46.5c-6.66699 -15.333 -12.167 -37.833 -16.5 -67.5s-6.5 -62.5 -6.5 -98.5z" />
    <glyph glyph-name="guilsinglleft" unicode="&#x2039;" horiz-adv-x="458" 
d="M264 526l108 -289h-125l-176 289l176 295h125z" />
    <glyph glyph-name="guilsinglright" unicode="&#x203a;" horiz-adv-x="458" 
d="M194 526l-108 295h124l177 -295l-177 -289h-124z" />
    <glyph glyph-name="trademark" unicode="&#x2122;" horiz-adv-x="1857" 
d="M679 1404v-172h-229v-645h-229v645h-229v172h687zM1165 587l-209 611v-611h-199v817h348l156 -464l164 464h346v-817h-229v621l-219 -621h-158z" />
    <glyph glyph-name="periodcentered" unicode="&#x2219;" horiz-adv-x="571" 
d="M448 749v-317h-326v317h326z" />
    <glyph glyph-name="fi" unicode="&#xf001;" horiz-adv-x="1224" 
d="M679 1415l-0.00195312 -207.002l-18 2c-12 1.33301 -22.833 2.33301 -32.5 3s-18.5 1 -26.5 1c-19.333 0 -36.666 -2.83301 -51.999 -8.5s-28 -13.834 -38 -24.501c-11.333 -11.333 -19.666 -26.166 -24.999 -44.499s-8 -38.166 -8 -59.499v-33h176v-215h-176v-829h-305
v829h-146v215h146v29c0 68 10 125.833 30 173.5s49.333 85.834 88 114.501c27.333 20 61.5 35.667 102.5 47s90.833 17 149.5 17c24.667 0 48 -0.833008 70 -2.5s43.667 -4.16699 65 -7.5zM1091 1044v-1044h-305v1044h305zM1095 1417v-240h-313v240h313z" />
    <glyph glyph-name="uniF002" unicode="&#xf002;" horiz-adv-x="1222" 
d="M679 1415l-0.00195312 -207.002l-18 2c-12 1.33301 -22.833 2.33301 -32.5 3s-18.5 1 -26.5 1c-19.333 0 -36.666 -2.83301 -51.999 -8.5s-28 -13.834 -38 -24.501c-11.333 -11.333 -19.666 -26.166 -24.999 -44.499s-8 -38.166 -8 -59.499v-33h176v-215h-176v-829h-305
v829h-146v215h146v29c0 68 10 125.833 30 173.5s49.333 85.834 88 114.501c27.333 20 61.5 35.667 102.5 47s90.833 17 149.5 17c24.667 0 48 -0.833008 70 -2.5s43.667 -4.16699 65 -7.5zM1093 1404v-1404h-305v1404h305z" />
    <glyph glyph-name="glyph1" horiz-adv-x="0" 
 />
    <glyph glyph-name="glyph2" horiz-adv-x="618" 
 />
    <glyph glyph-name="sterling" horiz-adv-x="1257" 
d="M1132 1175l-233 -98.001c-20.667 34 -45.667 59.5 -75 76.5s-60.333 25.5 -93 25.5c-41.333 0 -75.666 -15.167 -102.999 -45.5s-41 -69.166 -41 -116.499c0 -8 1.16699 -24.333 3.5 -49s4.83301 -43.667 7.5 -57l12 -82h250v-195h-228l2 -82
c2 -60 -10 -116.5 -36 -169.5s-64.333 -97.5 -115 -133.5h211c51.333 0 92.333 4.66699 123 14s57.334 23.333 80.001 42c14 11.333 26.833 25.5 38.5 42.5s21.167 34.833 28.5 53.5l252 -70c-12.667 -48.667 -32 -92.834 -58 -132.501s-55.667 -73.167 -89 -100.5
c-38.667 -31.333 -83.334 -55.5 -134.001 -72.5s-110.667 -25.5 -180 -25.5h-741v249h33c51.333 0 91.666 3.83301 120.999 11.5s54.333 18.834 75 33.501c28.667 20.667 49.834 47 63.501 79s20.5 66.667 20.5 104c0 18 -0.5 35.667 -1.5 53s-3.16699 37 -6.5 59l-6 45
h-197v195h164l-10 88c-0.666992 6.66699 -1.16699 13.5 -1.5 20.5s-0.5 19.833 -0.5 38.5c0 92 14.167 166.167 42.5 222.5s70.833 104.5 127.5 144.5c36 26 77.667 46.167 125 60.5s99 21.5 155 21.5c96 0 180.167 -21.333 252.5 -64s126.166 -104.667 161.499 -186z" />
    <glyph glyph-name="NotEqual" horiz-adv-x="1300" 
d="M131 937h596l137 265h184l-137 -265h258v-237h-383l-107 -209h490v-238h-614l-144 -273h-182l143 273h-241v238h364l109 209h-473v237z" />
    <glyph glyph-name="glyph144" horiz-adv-x="1067" 
d="M788 1861l70 -178l-461 -156l-51 119z" />
    <glyph glyph-name="glyph147" horiz-adv-x="1028" 
d="M708 1560l76 -172l-418 -192l-51 116z" />
    <glyph glyph-name="infinity" horiz-adv-x="1441" 
d="M804 722c90 -83.333 141.5 -126.667 154.5 -130s26.5 -5 40.5 -5c47.333 0 85.833 14.333 115.5 43s44.5 65 44.5 109c0 36 -15.167 66.833 -45.5 92.5s-68.5 38.5 -114.5 38.5c-34.667 0 -69.667 -13.833 -105 -41.5s-65.333 -63.167 -90 -106.5zM636 728.999
c-51.333 62.667 -89.167 101.833 -113.5 117.5s-50.5 23.5 -78.5 23.5c-42.667 0 -80.334 -13.5 -113.001 -40.5s-49 -63.5 -49 -109.5c0 -36 15.167 -67.167 45.5 -93.5s68.5 -39.5 114.5 -39.5c28.667 0 54.834 7 78.501 21s62.167 54.333 115.5 121zM726.999 547.998
c-44 -52 -94.668 -93.334 -152.001 -124.001s-118.666 -46 -183.999 -46c-103.333 0 -187.666 33.5 -252.999 100.5s-98 152.5 -98 256.5c0 104.667 33 188.167 99 250.5s144.333 93.5 235 93.5c67.333 0 130.5 -15 189.5 -45s109.167 -71 150.5 -123
c40.667 50.667 90.834 91.334 150.501 122.001s122.167 46 187.5 46c103.333 0 187.166 -33.5 251.499 -100.5s96.5 -150.167 96.5 -249.5c0 -100 -33 -183.5 -99 -250.5s-150.333 -100.5 -253 -100.5c-52.667 0 -100.834 10 -144.501 30s-102.5 66.667 -176.5 140z" />
    <glyph glyph-name="lessequal" horiz-adv-x="1329" 
d="M505 757l688 -268v-254l-1026 412v221l1026 412v-254zM167 256v256l1026 -412v-255z" />
    <glyph glyph-name="greaterequal" horiz-adv-x="1329" 
d="M856 757l-689 269v254l1026 -412v-221l-1026 -412v254zM1193 256l-1026 -411v255l1026 412v-256z" />
    <glyph glyph-name="radical" horiz-adv-x="1429" 
d="M0 1024h530l246 -678l280 1362h373v-168h-221l-385 -1806h-176l-435 1128h-212v162z" />
    <glyph glyph-name="florin" horiz-adv-x="1228" 
d="M1136 1474l-34.999 -204.999c-8.66699 1.33301 -18.167 2.33301 -28.5 3s-28.833 1 -55.5 1c-58.667 0 -106.334 -17.5 -143.001 -52.5s-57.667 -80.167 -63 -135.5h233l-39 -213h-221l-152 -819c-26.667 -146.667 -79 -248.667 -157 -306s-179 -86 -303 -86
c-20 0 -43.667 1.5 -71 4.5s-54.333 6.83301 -81 11.5l37 219c9.33301 -1.33301 19.166 -2.33301 29.499 -3s29.166 -1 56.499 -1c68.667 0 114.834 16.5 138.501 49.5s42.834 89.167 57.501 168.5l144 762h-170l37 213h172l4 37c12.667 115.333 55.5 205.166 128.5 269.499
s172.167 96.5 297.5 96.5c26 0 55.833 -1.16699 89.5 -3.5s65.167 -5.83301 94.5 -10.5z" />
    <glyph glyph-name="approxequal" horiz-adv-x="1169" 
d="M233 626l-167.999 87.998c12.667 32 27.5 63.167 44.5 93.5s34.167 55.833 51.5 76.5c28.667 34.667 60.667 60.5 96 77.5s76.333 25.5 123 25.5c26 0 53.5 -3.5 82.5 -10.5s74.833 -22.167 137.5 -45.5l71 -26c19.333 -7.33301 39.666 -13.333 60.999 -18
s39.333 -7 54 -7c34 0 62.5 8.83301 85.5 26.5s44.167 45.834 63.5 84.501l168 -88c-15.333 -31.333 -30.5 -59 -45.5 -83s-29.833 -44.333 -44.5 -61c-32 -36.667 -68.5 -63.834 -109.5 -81.501s-84.167 -26.5 -129.5 -26.5c-18 0 -36.167 1.83301 -54.5 5.5
s-40.5 9.83398 -66.5 18.501l-88 31c-72 25.333 -116.167 39.833 -132.5 43.5s-30.833 5.5 -43.5 5.5c-35.333 0 -64.833 -9.66699 -88.5 -29s-46.167 -52.666 -67.5 -99.999zM233.001 199.998l-167.999 87.998c12.667 32 27.5 63.167 44.5 93.5s34.167 55.833 51.5 76.5
c28.667 34.667 60.667 60.5 96 77.5s76.333 25.5 123 25.5c26 0 53.5 -3.5 82.5 -10.5s74.833 -22.167 137.5 -45.5l71 -26c19.333 -7.33301 39.666 -13.333 60.999 -18s39.333 -7 54 -7c34 0 62.5 8.83301 85.5 26.5s44.167 45.834 63.5 84.501l168 -88
c-15.333 -30.667 -30.5 -58.167 -45.5 -82.5s-29.833 -44.833 -44.5 -61.5c-32 -36.667 -68.5 -63.834 -109.5 -81.501s-84.167 -26.5 -129.5 -26.5c-18 0 -36.167 1.83301 -54.5 5.5s-40.5 9.83398 -66.5 18.501l-88 31c-72 25.333 -116.167 39.833 -132.5 43.5
s-30.833 5.5 -43.5 5.5c-35.333 0 -64.833 -9.66699 -88.5 -29s-46.167 -52.666 -67.5 -99.999z" />
    <glyph glyph-name="Delta" horiz-adv-x="1402" 
d="M528 1417h326l495 -1417h-1313zM653 1034l-262 -772h520z" />
    <glyph glyph-name="divide" horiz-adv-x="1314" 
d="M131 452v238h1052v-238h-1052zM792 301v-265h-270v265h270zM792 1105v-264h-270v264h270z" />
    <glyph glyph-name="glyph188" horiz-adv-x="1036" 
d="M126 1822h251.994c-1.33301 -35.333 10.834 -62.833 36.501 -82.5s60.167 -29.5 103.5 -29.5c42.667 0 76.834 9.83301 102.501 29.5s37.834 47.167 36.501 82.5h252c-5.33301 -91.333 -43.666 -160.166 -114.999 -206.499s-163.333 -69.5 -276 -69.5
c-113.333 0 -205.666 23.167 -276.999 69.5s-109.666 115.166 -114.999 206.499z" />
    <glyph glyph-name="glyph191" horiz-adv-x="1064" 
d="M698 1492h163.998c-4.66699 -46.667 -18.5 -91.167 -41.5 -133.5s-51.5 -75.5 -85.5 -99.5c-27.333 -19.333 -57.833 -34 -91.5 -44s-70.834 -15 -111.501 -15s-77.834 5 -111.501 15s-64.167 24.667 -91.5 44c-34 24 -62.5 57.167 -85.5 99.5
s-36.833 86.833 -41.5 133.5h164c0.666992 -20.667 5.83398 -40.667 15.501 -60s22.167 -34.666 37.5 -45.999c12.667 -9.33301 28.334 -16.5 47.001 -21.5s40.667 -7.5 66 -7.5s47.333 2.5 66 7.5s34.334 12.167 47.001 21.5c15.333 11.333 27.833 26.666 37.5 45.999
s14.834 39.333 15.501 60z" />
    </font>
</defs>
</svg>
